<?xml version="1.0" encoding="UTF-8"?>
<svg xmlns="http://www.w3.org/2000/svg" xmlns:xlink="http://www.w3.org/1999/xlink" width="792" height="936" viewBox="0 0 792 936">
<defs>
<clipPath id="clip-0">
<rect x="0" y="0" width="792" height="936"/>
</clipPath>
<g id="source-5" clip-path="url(#clip-0)">
<path fill-rule="nonzero" fill="rgb(100%, 100%, 100%)" fill-opacity="1" d="M 68 36 C 68 53.671875 53.671875 68 36 68 C 18.328125 68 4 53.671875 4 36 C 4 18.328125 18.328125 4 36 4 C 53.671875 4 68 18.328125 68 36 "/>
<path fill-rule="nonzero" fill="rgb(100%, 100%, 94.117647%)" fill-opacity="1" d="M 140 36 C 140 53.671875 125.671875 68 108 68 C 90.328125 68 76 53.671875 76 36 C 76 18.328125 90.328125 4 108 4 C 125.671875 4 140 18.328125 140 36 "/>
<path fill-rule="nonzero" fill="rgb(100%, 100%, 87.843137%)" fill-opacity="1" d="M 212 36 C 212 53.671875 197.671875 68 180 68 C 162.328125 68 148 53.671875 148 36 C 148 18.328125 162.328125 4 180 4 C 197.671875 4 212 18.328125 212 36 "/>
<path fill-rule="nonzero" fill="rgb(96.078431%, 100%, 98.039216%)" fill-opacity="1" d="M 284 36 C 284 53.671875 269.671875 68 252 68 C 234.328125 68 220 53.671875 220 36 C 220 18.328125 234.328125 4 252 4 C 269.671875 4 284 18.328125 284 36 "/>
<path fill-rule="nonzero" fill="rgb(94.117647%, 100%, 100%)" fill-opacity="1" d="M 356 36 C 356 53.671875 341.671875 68 324 68 C 306.328125 68 292 53.671875 292 36 C 292 18.328125 306.328125 4 324 4 C 341.671875 4 356 18.328125 356 36 "/>
<path fill-rule="nonzero" fill="rgb(100%, 98.039216%, 98.039216%)" fill-opacity="1" d="M 428 36 C 428 53.671875 413.671875 68 396 68 C 378.328125 68 364 53.671875 364 36 C 364 18.328125 378.328125 4 396 4 C 413.671875 4 428 18.328125 428 36 "/>
<path fill-rule="nonzero" fill="rgb(94.117647%, 100%, 94.117647%)" fill-opacity="1" d="M 500 36 C 500 53.671875 485.671875 68 468 68 C 450.328125 68 436 53.671875 436 36 C 436 18.328125 450.328125 4 468 4 C 485.671875 4 500 18.328125 500 36 "/>
<path fill-rule="nonzero" fill="rgb(100%, 98.039216%, 94.117647%)" fill-opacity="1" d="M 572 36 C 572 53.671875 557.671875 68 540 68 C 522.328125 68 508 53.671875 508 36 C 508 18.328125 522.328125 4 540 4 C 557.671875 4 572 18.328125 572 36 "/>
<path fill-rule="nonzero" fill="rgb(87.843137%, 100%, 100%)" fill-opacity="1" d="M 644 36 C 644 53.671875 629.671875 68 612 68 C 594.328125 68 580 53.671875 580 36 C 580 18.328125 594.328125 4 612 4 C 629.671875 4 644 18.328125 644 36 "/>
<path fill-rule="nonzero" fill="rgb(97.254902%, 97.254902%, 100%)" fill-opacity="1" d="M 716 36 C 716 53.671875 701.671875 68 684 68 C 666.328125 68 652 53.671875 652 36 C 652 18.328125 666.328125 4 684 4 C 701.671875 4 716 18.328125 716 36 "/>
<path fill-rule="nonzero" fill="rgb(100%, 97.254902%, 86.27451%)" fill-opacity="1" d="M 788 36 C 788 53.671875 773.671875 68 756 68 C 738.328125 68 724 53.671875 724 36 C 724 18.328125 738.328125 4 756 4 C 773.671875 4 788 18.328125 788 36 "/>
<path fill-rule="nonzero" fill="rgb(94.117647%, 97.254902%, 100%)" fill-opacity="1" d="M 68 108 C 68 125.671875 53.671875 140 36 140 C 18.328125 140 4 125.671875 4 108 C 4 90.328125 18.328125 76 36 76 C 53.671875 76 68 90.328125 68 108 "/>
<path fill-rule="nonzero" fill="rgb(100%, 96.078431%, 93.333333%)" fill-opacity="1" d="M 140 108 C 140 125.671875 125.671875 140 108 140 C 90.328125 140 76 125.671875 76 108 C 76 90.328125 90.328125 76 108 76 C 125.671875 76 140 90.328125 140 108 "/>
<path fill-rule="nonzero" fill="rgb(99.215686%, 96.078431%, 90.196078%)" fill-opacity="1" d="M 212 108 C 212 125.671875 197.671875 140 180 140 C 162.328125 140 148 125.671875 148 108 C 148 90.328125 162.328125 76 180 76 C 197.671875 76 212 90.328125 212 108 "/>
<path fill-rule="nonzero" fill="rgb(96.078431%, 96.078431%, 96.078431%)" fill-opacity="1" d="M 284 108 C 284 125.671875 269.671875 140 252 140 C 234.328125 140 220 125.671875 220 108 C 220 90.328125 234.328125 76 252 76 C 269.671875 76 284 90.328125 284 108 "/>
<path fill-rule="nonzero" fill="rgb(100%, 94.117647%, 96.078431%)" fill-opacity="1" d="M 356 108 C 356 125.671875 341.671875 140 324 140 C 306.328125 140 292 125.671875 292 108 C 292 90.328125 306.328125 76 324 76 C 341.671875 76 356 90.328125 356 108 "/>
<path fill-rule="nonzero" fill="rgb(96.078431%, 96.078431%, 86.27451%)" fill-opacity="1" d="M 428 108 C 428 125.671875 413.671875 140 396 140 C 378.328125 140 364 125.671875 364 108 C 364 90.328125 378.328125 76 396 76 C 413.671875 76 428 90.328125 428 108 "/>
<path fill-rule="nonzero" fill="rgb(98.039216%, 94.117647%, 90.196078%)" fill-opacity="1" d="M 500 108 C 500 125.671875 485.671875 140 468 140 C 450.328125 140 436 125.671875 436 108 C 436 90.328125 450.328125 76 468 76 C 485.671875 76 500 90.328125 500 108 "/>
<path fill-rule="nonzero" fill="rgb(98.039216%, 92.156863%, 84.313725%)" fill-opacity="1" d="M 572 108 C 572 125.671875 557.671875 140 540 140 C 522.328125 140 508 125.671875 508 108 C 508 90.328125 522.328125 76 540 76 C 557.671875 76 572 90.328125 572 108 "/>
<path fill-rule="nonzero" fill="rgb(100%, 89.411765%, 88.235294%)" fill-opacity="1" d="M 644 108 C 644 125.671875 629.671875 140 612 140 C 594.328125 140 580 125.671875 580 108 C 580 90.328125 594.328125 76 612 76 C 629.671875 76 644 90.328125 644 108 "/>
<path fill-rule="nonzero" fill="rgb(90.196078%, 90.196078%, 98.039216%)" fill-opacity="1" d="M 716 108 C 716 125.671875 701.671875 140 684 140 C 666.328125 140 652 125.671875 652 108 C 652 90.328125 666.328125 76 684 76 C 701.671875 76 716 90.328125 716 108 "/>
<path fill-rule="nonzero" fill="rgb(86.27451%, 86.27451%, 86.27451%)" fill-opacity="1" d="M 788 108 C 788 125.671875 773.671875 140 756 140 C 738.328125 140 724 125.671875 724 108 C 724 90.328125 738.328125 76 756 76 C 773.671875 76 788 90.328125 788 108 "/>
<path fill-rule="nonzero" fill="rgb(82.745098%, 82.745098%, 82.745098%)" fill-opacity="1" d="M 68 180 C 68 197.671875 53.671875 212 36 212 C 18.328125 212 4 197.671875 4 180 C 4 162.328125 18.328125 148 36 148 C 53.671875 148 68 162.328125 68 180 "/>
<path fill-rule="nonzero" fill="rgb(84.705882%, 74.901961%, 84.705882%)" fill-opacity="1" d="M 140 180 C 140 197.671875 125.671875 212 108 212 C 90.328125 212 76 197.671875 76 180 C 76 162.328125 90.328125 148 108 148 C 125.671875 148 140 162.328125 140 180 "/>
<path fill-rule="nonzero" fill="rgb(75.294118%, 75.294118%, 75.294118%)" fill-opacity="1" d="M 212 180 C 212 197.671875 197.671875 212 180 212 C 162.328125 212 148 197.671875 148 180 C 148 162.328125 162.328125 148 180 148 C 197.671875 148 212 162.328125 212 180 "/>
<path fill-rule="nonzero" fill="rgb(66.27451%, 66.27451%, 66.27451%)" fill-opacity="1" d="M 284 180 C 284 197.671875 269.671875 212 252 212 C 234.328125 212 220 197.671875 220 180 C 220 162.328125 234.328125 148 252 148 C 269.671875 148 284 162.328125 284 180 "/>
<path fill-rule="nonzero" fill="rgb(50.196078%, 50.196078%, 50.196078%)" fill-opacity="1" d="M 356 180 C 356 197.671875 341.671875 212 324 212 C 306.328125 212 292 197.671875 292 180 C 292 162.328125 306.328125 148 324 148 C 341.671875 148 356 162.328125 356 180 "/>
<path fill-rule="nonzero" fill="rgb(41.176471%, 41.176471%, 41.176471%)" fill-opacity="1" d="M 428 180 C 428 197.671875 413.671875 212 396 212 C 378.328125 212 364 197.671875 364 180 C 364 162.328125 378.328125 148 396 148 C 413.671875 148 428 162.328125 428 180 "/>
<path fill-rule="nonzero" fill="rgb(0%, 0%, 0%)" fill-opacity="1" d="M 500 180 C 500 197.671875 485.671875 212 468 212 C 450.328125 212 436 197.671875 436 180 C 436 162.328125 450.328125 148 468 148 C 485.671875 148 500 162.328125 500 180 "/>
<path fill-rule="nonzero" fill="rgb(100%, 85.490196%, 72.54902%)" fill-opacity="1" d="M 572 180 C 572 197.671875 557.671875 212 540 212 C 522.328125 212 508 197.671875 508 180 C 508 162.328125 522.328125 148 540 148 C 557.671875 148 572 162.328125 572 180 "/>
<path fill-rule="nonzero" fill="rgb(100%, 62.745098%, 47.843137%)" fill-opacity="1" d="M 644 180 C 644 197.671875 629.671875 212 612 212 C 594.328125 212 580 197.671875 580 180 C 580 162.328125 594.328125 148 612 148 C 629.671875 148 644 162.328125 644 180 "/>
<path fill-rule="nonzero" fill="rgb(95.686275%, 64.313725%, 37.647059%)" fill-opacity="1" d="M 716 180 C 716 197.671875 701.671875 212 684 212 C 666.328125 212 652 197.671875 652 180 C 652 162.328125 666.328125 148 684 148 C 701.671875 148 716 162.328125 716 180 "/>
<path fill-rule="nonzero" fill="rgb(91.372549%, 58.823529%, 47.843137%)" fill-opacity="1" d="M 788 180 C 788 197.671875 773.671875 212 756 212 C 738.328125 212 724 197.671875 724 180 C 724 162.328125 738.328125 148 756 148 C 773.671875 148 788 162.328125 788 180 "/>
<path fill-rule="nonzero" fill="rgb(100%, 49.803922%, 31.372549%)" fill-opacity="1" d="M 68 252 C 68 269.671875 53.671875 284 36 284 C 18.328125 284 4 269.671875 4 252 C 4 234.328125 18.328125 220 36 220 C 53.671875 220 68 234.328125 68 252 "/>
<path fill-rule="nonzero" fill="rgb(98.039216%, 50.196078%, 44.705882%)" fill-opacity="1" d="M 140 252 C 140 269.671875 125.671875 284 108 284 C 90.328125 284 76 269.671875 76 252 C 76 234.328125 90.328125 220 108 220 C 125.671875 220 140 234.328125 140 252 "/>
<path fill-rule="nonzero" fill="rgb(94.117647%, 50.196078%, 50.196078%)" fill-opacity="1" d="M 212 252 C 212 269.671875 197.671875 284 180 284 C 162.328125 284 148 269.671875 148 252 C 148 234.328125 162.328125 220 180 220 C 197.671875 220 212 234.328125 212 252 "/>
<path fill-rule="nonzero" fill="rgb(73.72549%, 56.078431%, 56.078431%)" fill-opacity="1" d="M 284 252 C 284 269.671875 269.671875 284 252 284 C 234.328125 284 220 269.671875 220 252 C 220 234.328125 234.328125 220 252 220 C 269.671875 220 284 234.328125 284 252 "/>
<path fill-rule="nonzero" fill="rgb(100%, 38.823529%, 27.843137%)" fill-opacity="1" d="M 356 252 C 356 269.671875 341.671875 284 324 284 C 306.328125 284 292 269.671875 292 252 C 292 234.328125 306.328125 220 324 220 C 341.671875 220 356 234.328125 356 252 "/>
<path fill-rule="nonzero" fill="rgb(80.392157%, 52.156863%, 24.705882%)" fill-opacity="1" d="M 428 252 C 428 269.671875 413.671875 284 396 284 C 378.328125 284 364 269.671875 364 252 C 364 234.328125 378.328125 220 396 220 C 413.671875 220 428 234.328125 428 252 "/>
<path fill-rule="nonzero" fill="rgb(100%, 27.058824%, 0%)" fill-opacity="1" d="M 500 252 C 500 269.671875 485.671875 284 468 284 C 450.328125 284 436 269.671875 436 252 C 436 234.328125 450.328125 220 468 220 C 485.671875 220 500 234.328125 500 252 "/>
<path fill-rule="nonzero" fill="rgb(82.352941%, 41.176471%, 11.764706%)" fill-opacity="1" d="M 572 252 C 572 269.671875 557.671875 284 540 284 C 522.328125 284 508 269.671875 508 252 C 508 234.328125 522.328125 220 540 220 C 557.671875 220 572 234.328125 572 252 "/>
<path fill-rule="nonzero" fill="rgb(80.392157%, 36.078431%, 36.078431%)" fill-opacity="1" d="M 644 252 C 644 269.671875 629.671875 284 612 284 C 594.328125 284 580 269.671875 580 252 C 580 234.328125 594.328125 220 612 220 C 629.671875 220 644 234.328125 644 252 "/>
<path fill-rule="nonzero" fill="rgb(100%, 0%, 0%)" fill-opacity="1" d="M 716 252 C 716 269.671875 701.671875 284 684 284 C 666.328125 284 652 269.671875 652 252 C 652 234.328125 666.328125 220 684 220 C 701.671875 220 716 234.328125 716 252 "/>
<path fill-rule="nonzero" fill="rgb(62.745098%, 32.156863%, 17.647059%)" fill-opacity="1" d="M 788 252 C 788 269.671875 773.671875 284 756 284 C 738.328125 284 724 269.671875 724 252 C 724 234.328125 738.328125 220 756 220 C 773.671875 220 788 234.328125 788 252 "/>
<path fill-rule="nonzero" fill="rgb(69.803922%, 13.333333%, 13.333333%)" fill-opacity="1" d="M 68 324 C 68 341.671875 53.671875 356 36 356 C 18.328125 356 4 341.671875 4 324 C 4 306.328125 18.328125 292 36 292 C 53.671875 292 68 306.328125 68 324 "/>
<path fill-rule="nonzero" fill="rgb(64.705882%, 16.470588%, 16.470588%)" fill-opacity="1" d="M 140 324 C 140 341.671875 125.671875 356 108 356 C 90.328125 356 76 341.671875 76 324 C 76 306.328125 90.328125 292 108 292 C 125.671875 292 140 306.328125 140 324 "/>
<path fill-rule="nonzero" fill="rgb(54.509804%, 27.058824%, 7.45098%)" fill-opacity="1" d="M 212 324 C 212 341.671875 197.671875 356 180 356 C 162.328125 356 148 341.671875 148 324 C 148 306.328125 162.328125 292 180 292 C 197.671875 292 212 306.328125 212 324 "/>
<path fill-rule="nonzero" fill="rgb(54.509804%, 0%, 0%)" fill-opacity="1" d="M 284 324 C 284 341.671875 269.671875 356 252 356 C 234.328125 356 220 341.671875 220 324 C 220 306.328125 234.328125 292 252 292 C 269.671875 292 284 306.328125 284 324 "/>
<path fill-rule="nonzero" fill="rgb(50.196078%, 0%, 0%)" fill-opacity="1" d="M 356 324 C 356 341.671875 341.671875 356 324 356 C 306.328125 356 292 341.671875 292 324 C 292 306.328125 306.328125 292 324 292 C 341.671875 292 356 306.328125 356 324 "/>
<path fill-rule="nonzero" fill="rgb(100%, 98.039216%, 80.392157%)" fill-opacity="1" d="M 428 324 C 428 341.671875 413.671875 356 396 356 C 378.328125 356 364 341.671875 364 324 C 364 306.328125 378.328125 292 396 292 C 413.671875 292 428 306.328125 428 324 "/>
<path fill-rule="nonzero" fill="rgb(100%, 93.72549%, 83.529412%)" fill-opacity="1" d="M 500 324 C 500 341.671875 485.671875 356 468 356 C 450.328125 356 436 341.671875 436 324 C 436 306.328125 450.328125 292 468 292 C 485.671875 292 500 306.328125 500 324 "/>
<path fill-rule="nonzero" fill="rgb(100%, 92.156863%, 80.392157%)" fill-opacity="1" d="M 572 324 C 572 341.671875 557.671875 356 540 356 C 522.328125 356 508 341.671875 508 324 C 508 306.328125 522.328125 292 540 292 C 557.671875 292 572 306.328125 572 324 "/>
<path fill-rule="nonzero" fill="rgb(100%, 89.411765%, 76.862745%)" fill-opacity="1" d="M 644 324 C 644 341.671875 629.671875 356 612 356 C 594.328125 356 580 341.671875 580 324 C 580 306.328125 594.328125 292 612 292 C 629.671875 292 644 306.328125 644 324 "/>
<path fill-rule="nonzero" fill="rgb(100%, 89.411765%, 70.980392%)" fill-opacity="1" d="M 716 324 C 716 341.671875 701.671875 356 684 356 C 666.328125 356 652 341.671875 652 324 C 652 306.328125 666.328125 292 684 292 C 701.671875 292 716 306.328125 716 324 "/>
<path fill-rule="nonzero" fill="rgb(93.333333%, 90.980392%, 66.666667%)" fill-opacity="1" d="M 788 324 C 788 341.671875 773.671875 356 756 356 C 738.328125 356 724 341.671875 724 324 C 724 306.328125 738.328125 292 756 292 C 773.671875 292 788 306.328125 788 324 "/>
<path fill-rule="nonzero" fill="rgb(94.117647%, 90.196078%, 54.901961%)" fill-opacity="1" d="M 68 396 C 68 413.671875 53.671875 428 36 428 C 18.328125 428 4 413.671875 4 396 C 4 378.328125 18.328125 364 36 364 C 53.671875 364 68 378.328125 68 396 "/>
<path fill-rule="nonzero" fill="rgb(100%, 87.058824%, 67.843137%)" fill-opacity="1" d="M 140 396 C 140 413.671875 125.671875 428 108 428 C 90.328125 428 76 413.671875 76 396 C 76 378.328125 90.328125 364 108 364 C 125.671875 364 140 378.328125 140 396 "/>
<path fill-rule="nonzero" fill="rgb(96.078431%, 87.058824%, 70.196078%)" fill-opacity="1" d="M 212 396 C 212 413.671875 197.671875 428 180 428 C 162.328125 428 148 413.671875 148 396 C 148 378.328125 162.328125 364 180 364 C 197.671875 364 212 378.328125 212 396 "/>
<path fill-rule="nonzero" fill="rgb(100%, 84.313725%, 0%)" fill-opacity="1" d="M 284 396 C 284 413.671875 269.671875 428 252 428 C 234.328125 428 220 413.671875 220 396 C 220 378.328125 234.328125 364 252 364 C 269.671875 364 284 378.328125 284 396 "/>
<path fill-rule="nonzero" fill="rgb(87.058824%, 72.156863%, 52.941176%)" fill-opacity="1" d="M 356 396 C 356 413.671875 341.671875 428 324 428 C 306.328125 428 292 413.671875 292 396 C 292 378.328125 306.328125 364 324 364 C 341.671875 364 356 378.328125 356 396 "/>
<path fill-rule="nonzero" fill="rgb(82.352941%, 70.588235%, 54.901961%)" fill-opacity="1" d="M 428 396 C 428 413.671875 413.671875 428 396 428 C 378.328125 428 364 413.671875 364 396 C 364 378.328125 378.328125 364 396 364 C 413.671875 364 428 378.328125 428 396 "/>
<path fill-rule="nonzero" fill="rgb(100%, 64.705882%, 0%)" fill-opacity="1" d="M 500 396 C 500 413.671875 485.671875 428 468 428 C 450.328125 428 436 413.671875 436 396 C 436 378.328125 450.328125 364 468 364 C 485.671875 364 500 378.328125 500 396 "/>
<path fill-rule="nonzero" fill="rgb(74.117647%, 71.764706%, 41.960784%)" fill-opacity="1" d="M 572 396 C 572 413.671875 557.671875 428 540 428 C 522.328125 428 508 413.671875 508 396 C 508 378.328125 522.328125 364 540 364 C 557.671875 364 572 378.328125 572 396 "/>
<path fill-rule="nonzero" fill="rgb(85.490196%, 64.705882%, 12.54902%)" fill-opacity="1" d="M 644 396 C 644 413.671875 629.671875 428 612 428 C 594.328125 428 580 413.671875 580 396 C 580 378.328125 594.328125 364 612 364 C 629.671875 364 644 378.328125 644 396 "/>
<path fill-rule="nonzero" fill="rgb(100%, 54.901961%, 0%)" fill-opacity="1" d="M 716 396 C 716 413.671875 701.671875 428 684 428 C 666.328125 428 652 413.671875 652 396 C 652 378.328125 666.328125 364 684 364 C 701.671875 364 716 378.328125 716 396 "/>
<path fill-rule="nonzero" fill="rgb(98.039216%, 98.039216%, 82.352941%)" fill-opacity="1" d="M 788 396 C 788 413.671875 773.671875 428 756 428 C 738.328125 428 724 413.671875 724 396 C 724 378.328125 738.328125 364 756 364 C 773.671875 364 788 378.328125 788 396 "/>
<path fill-rule="nonzero" fill="rgb(100%, 100%, 0%)" fill-opacity="1" d="M 68 468 C 68 485.671875 53.671875 500 36 500 C 18.328125 500 4 485.671875 4 468 C 4 450.328125 18.328125 436 36 436 C 53.671875 436 68 450.328125 68 468 "/>
<path fill-rule="nonzero" fill="rgb(67.843137%, 100%, 18.431373%)" fill-opacity="1" d="M 140 468 C 140 485.671875 125.671875 500 108 500 C 90.328125 500 76 485.671875 76 468 C 76 450.328125 90.328125 436 108 436 C 125.671875 436 140 450.328125 140 468 "/>
<path fill-rule="nonzero" fill="rgb(60.392157%, 80.392157%, 19.607843%)" fill-opacity="1" d="M 212 468 C 212 485.671875 197.671875 500 180 500 C 162.328125 500 148 485.671875 148 468 C 148 450.328125 162.328125 436 180 436 C 197.671875 436 212 450.328125 212 468 "/>
<path fill-rule="nonzero" fill="rgb(41.960784%, 55.686275%, 13.72549%)" fill-opacity="1" d="M 284 468 C 284 485.671875 269.671875 500 252 500 C 234.328125 500 220 485.671875 220 468 C 220 450.328125 234.328125 436 252 436 C 269.671875 436 284 450.328125 284 468 "/>
<path fill-rule="nonzero" fill="rgb(50.196078%, 50.196078%, 0%)" fill-opacity="1" d="M 356 468 C 356 485.671875 341.671875 500 324 500 C 306.328125 500 292 485.671875 292 468 C 292 450.328125 306.328125 436 324 436 C 341.671875 436 356 450.328125 356 468 "/>
<path fill-rule="nonzero" fill="rgb(33.333333%, 41.960784%, 18.431373%)" fill-opacity="1" d="M 428 468 C 428 485.671875 413.671875 500 396 500 C 378.328125 500 364 485.671875 364 468 C 364 450.328125 378.328125 436 396 436 C 413.671875 436 428 450.328125 428 468 "/>
<path fill-rule="nonzero" fill="rgb(49.803922%, 100%, 0%)" fill-opacity="1" d="M 500 468 C 500 485.671875 485.671875 500 468 500 C 450.328125 500 436 485.671875 436 468 C 436 450.328125 450.328125 436 468 436 C 485.671875 436 500 450.328125 500 468 "/>
<path fill-rule="nonzero" fill="rgb(48.627451%, 98.823529%, 0%)" fill-opacity="1" d="M 572 468 C 572 485.671875 557.671875 500 540 500 C 522.328125 500 508 485.671875 508 468 C 508 450.328125 522.328125 436 540 436 C 557.671875 436 572 450.328125 572 468 "/>
<path fill-rule="nonzero" fill="rgb(59.607843%, 98.431373%, 59.607843%)" fill-opacity="1" d="M 644 468 C 644 485.671875 629.671875 500 612 500 C 594.328125 500 580 485.671875 580 468 C 580 450.328125 594.328125 436 612 436 C 629.671875 436 644 450.328125 644 468 "/>
<path fill-rule="nonzero" fill="rgb(0%, 100%, 49.803922%)" fill-opacity="1" d="M 716 468 C 716 485.671875 701.671875 500 684 500 C 666.328125 500 652 485.671875 652 468 C 652 450.328125 666.328125 436 684 436 C 701.671875 436 716 450.328125 716 468 "/>
<path fill-rule="nonzero" fill="rgb(0%, 100%, 0%)" fill-opacity="1" d="M 788 468 C 788 485.671875 773.671875 500 756 500 C 738.328125 500 724 485.671875 724 468 C 724 450.328125 738.328125 436 756 436 C 773.671875 436 788 450.328125 788 468 "/>
<path fill-rule="nonzero" fill="rgb(56.470588%, 93.333333%, 56.470588%)" fill-opacity="1" d="M 68 540 C 68 557.671875 53.671875 572 36 572 C 18.328125 572 4 557.671875 4 540 C 4 522.328125 18.328125 508 36 508 C 53.671875 508 68 522.328125 68 540 "/>
<path fill-rule="nonzero" fill="rgb(19.607843%, 80.392157%, 19.607843%)" fill-opacity="1" d="M 140 540 C 140 557.671875 125.671875 572 108 572 C 90.328125 572 76 557.671875 76 540 C 76 522.328125 90.328125 508 108 508 C 125.671875 508 140 522.328125 140 540 "/>
<path fill-rule="nonzero" fill="rgb(56.078431%, 73.72549%, 56.078431%)" fill-opacity="1" d="M 212 540 C 212 557.671875 197.671875 572 180 572 C 162.328125 572 148 557.671875 148 540 C 148 522.328125 162.328125 508 180 508 C 197.671875 508 212 522.328125 212 540 "/>
<path fill-rule="nonzero" fill="rgb(23.529412%, 70.196078%, 44.313725%)" fill-opacity="1" d="M 284 540 C 284 557.671875 269.671875 572 252 572 C 234.328125 572 220 557.671875 220 540 C 220 522.328125 234.328125 508 252 508 C 269.671875 508 284 522.328125 284 540 "/>
<path fill-rule="nonzero" fill="rgb(18.039216%, 54.509804%, 34.117647%)" fill-opacity="1" d="M 356 540 C 356 557.671875 341.671875 572 324 572 C 306.328125 572 292 557.671875 292 540 C 292 522.328125 306.328125 508 324 508 C 341.671875 508 356 522.328125 356 540 "/>
<path fill-rule="nonzero" fill="rgb(13.333333%, 54.509804%, 13.333333%)" fill-opacity="1" d="M 428 540 C 428 557.671875 413.671875 572 396 572 C 378.328125 572 364 557.671875 364 540 C 364 522.328125 378.328125 508 396 508 C 413.671875 508 428 522.328125 428 540 "/>
<path fill-rule="nonzero" fill="rgb(0%, 50.196078%, 0%)" fill-opacity="1" d="M 500 540 C 500 557.671875 485.671875 572 468 572 C 450.328125 572 436 557.671875 436 540 C 436 522.328125 450.328125 508 468 508 C 485.671875 508 500 522.328125 500 540 "/>
<path fill-rule="nonzero" fill="rgb(0%, 39.215686%, 0%)" fill-opacity="1" d="M 572 540 C 572 557.671875 557.671875 572 540 572 C 522.328125 572 508 557.671875 508 540 C 508 522.328125 522.328125 508 540 508 C 557.671875 508 572 522.328125 572 540 "/>
<path fill-rule="nonzero" fill="rgb(49.803922%, 100%, 83.137255%)" fill-opacity="1" d="M 644 540 C 644 557.671875 629.671875 572 612 572 C 594.328125 572 580 557.671875 580 540 C 580 522.328125 594.328125 508 612 508 C 629.671875 508 644 522.328125 644 540 "/>
<path fill-rule="nonzero" fill="rgb(0%, 98.039216%, 60.392157%)" fill-opacity="1" d="M 716 540 C 716 557.671875 701.671875 572 684 572 C 666.328125 572 652 557.671875 652 540 C 652 522.328125 666.328125 508 684 508 C 701.671875 508 716 522.328125 716 540 "/>
<path fill-rule="nonzero" fill="rgb(25.098039%, 87.843137%, 81.568627%)" fill-opacity="1" d="M 788 540 C 788 557.671875 773.671875 572 756 572 C 738.328125 572 724 557.671875 724 540 C 724 522.328125 738.328125 508 756 508 C 773.671875 508 788 522.328125 788 540 "/>
<path fill-rule="nonzero" fill="rgb(28.235294%, 81.960784%, 80%)" fill-opacity="1" d="M 68 612 C 68 629.671875 53.671875 644 36 644 C 18.328125 644 4 629.671875 4 612 C 4 594.328125 18.328125 580 36 580 C 53.671875 580 68 594.328125 68 612 "/>
<path fill-rule="nonzero" fill="rgb(40%, 80.392157%, 66.666667%)" fill-opacity="1" d="M 140 612 C 140 629.671875 125.671875 644 108 644 C 90.328125 644 76 629.671875 76 612 C 76 594.328125 90.328125 580 108 580 C 125.671875 580 140 594.328125 140 612 "/>
<path fill-rule="nonzero" fill="rgb(12.54902%, 69.803922%, 66.666667%)" fill-opacity="1" d="M 212 612 C 212 629.671875 197.671875 644 180 644 C 162.328125 644 148 629.671875 148 612 C 148 594.328125 162.328125 580 180 580 C 197.671875 580 212 594.328125 212 612 "/>
<path fill-rule="nonzero" fill="rgb(0%, 100%, 100%)" fill-opacity="1" d="M 284 612 C 284 629.671875 269.671875 644 252 644 C 234.328125 644 220 629.671875 220 612 C 220 594.328125 234.328125 580 252 580 C 269.671875 580 284 594.328125 284 612 "/>
<path fill-rule="nonzero" fill="rgb(68.627451%, 93.333333%, 93.333333%)" fill-opacity="1" d="M 356 612 C 356 629.671875 341.671875 644 324 644 C 306.328125 644 292 629.671875 292 612 C 292 594.328125 306.328125 580 324 580 C 341.671875 580 356 594.328125 356 612 "/>
<path fill-rule="nonzero" fill="rgb(69.019608%, 87.843137%, 90.196078%)" fill-opacity="1" d="M 428 612 C 428 629.671875 413.671875 644 396 644 C 378.328125 644 364 629.671875 364 612 C 364 594.328125 378.328125 580 396 580 C 413.671875 580 428 594.328125 428 612 "/>
<path fill-rule="nonzero" fill="rgb(67.843137%, 84.705882%, 90.196078%)" fill-opacity="1" d="M 500 612 C 500 629.671875 485.671875 644 468 644 C 450.328125 644 436 629.671875 436 612 C 436 594.328125 450.328125 580 468 580 C 485.671875 580 500 594.328125 500 612 "/>
<path fill-rule="nonzero" fill="rgb(52.941176%, 80.784314%, 98.039216%)" fill-opacity="1" d="M 572 612 C 572 629.671875 557.671875 644 540 644 C 522.328125 644 508 629.671875 508 612 C 508 594.328125 522.328125 580 540 580 C 557.671875 580 572 594.328125 572 612 "/>
<path fill-rule="nonzero" fill="rgb(52.941176%, 80.784314%, 92.156863%)" fill-opacity="1" d="M 644 612 C 644 629.671875 629.671875 644 612 644 C 594.328125 644 580 629.671875 580 612 C 580 594.328125 594.328125 580 612 580 C 629.671875 580 644 594.328125 644 612 "/>
<path fill-rule="nonzero" fill="rgb(0%, 80.784314%, 81.960784%)" fill-opacity="1" d="M 716 612 C 716 629.671875 701.671875 644 684 644 C 666.328125 644 652 629.671875 652 612 C 652 594.328125 666.328125 580 684 580 C 701.671875 580 716 594.328125 716 612 "/>
<path fill-rule="nonzero" fill="rgb(0%, 74.901961%, 100%)" fill-opacity="1" d="M 788 612 C 788 629.671875 773.671875 644 756 644 C 738.328125 644 724 629.671875 724 612 C 724 594.328125 738.328125 580 756 580 C 773.671875 580 788 594.328125 788 612 "/>
<path fill-rule="nonzero" fill="rgb(37.254902%, 61.960784%, 62.745098%)" fill-opacity="1" d="M 68 684 C 68 701.671875 53.671875 716 36 716 C 18.328125 716 4 701.671875 4 684 C 4 666.328125 18.328125 652 36 652 C 53.671875 652 68 666.328125 68 684 "/>
<path fill-rule="nonzero" fill="rgb(11.764706%, 56.470588%, 100%)" fill-opacity="1" d="M 140 684 C 140 701.671875 125.671875 716 108 716 C 90.328125 716 76 701.671875 76 684 C 76 666.328125 90.328125 652 108 652 C 125.671875 652 140 666.328125 140 684 "/>
<path fill-rule="nonzero" fill="rgb(27.45098%, 50.980392%, 70.588235%)" fill-opacity="1" d="M 212 684 C 212 701.671875 197.671875 716 180 716 C 162.328125 716 148 701.671875 148 684 C 148 666.328125 162.328125 652 180 652 C 197.671875 652 212 666.328125 212 684 "/>
<path fill-rule="nonzero" fill="rgb(0%, 54.509804%, 54.509804%)" fill-opacity="1" d="M 284 684 C 284 701.671875 269.671875 716 252 716 C 234.328125 716 220 701.671875 220 684 C 220 666.328125 234.328125 652 252 652 C 269.671875 652 284 666.328125 284 684 "/>
<path fill-rule="nonzero" fill="rgb(0%, 50.196078%, 50.196078%)" fill-opacity="1" d="M 356 684 C 356 701.671875 341.671875 716 324 716 C 306.328125 716 292 701.671875 292 684 C 292 666.328125 306.328125 652 324 652 C 341.671875 652 356 666.328125 356 684 "/>
<path fill-rule="nonzero" fill="rgb(18.431373%, 30.980392%, 30.980392%)" fill-opacity="1" d="M 428 684 C 428 701.671875 413.671875 716 396 716 C 378.328125 716 364 701.671875 364 684 C 364 666.328125 378.328125 652 396 652 C 413.671875 652 428 666.328125 428 684 "/>
<path fill-rule="nonzero" fill="rgb(69.019608%, 76.862745%, 87.058824%)" fill-opacity="1" d="M 500 684 C 500 701.671875 485.671875 716 468 716 C 450.328125 716 436 701.671875 436 684 C 436 666.328125 450.328125 652 468 652 C 485.671875 652 500 666.328125 500 684 "/>
<path fill-rule="nonzero" fill="rgb(39.215686%, 58.431373%, 92.941176%)" fill-opacity="1" d="M 572 684 C 572 701.671875 557.671875 716 540 716 C 522.328125 716 508 701.671875 508 684 C 508 666.328125 522.328125 652 540 652 C 557.671875 652 572 666.328125 572 684 "/>
<path fill-rule="nonzero" fill="rgb(46.666667%, 53.333333%, 60%)" fill-opacity="1" d="M 644 684 C 644 701.671875 629.671875 716 612 716 C 594.328125 716 580 701.671875 580 684 C 580 666.328125 594.328125 652 612 652 C 629.671875 652 644 666.328125 644 684 "/>
<path fill-rule="nonzero" fill="rgb(43.921569%, 50.196078%, 56.470588%)" fill-opacity="1" d="M 716 684 C 716 701.671875 701.671875 716 684 716 C 666.328125 716 652 701.671875 652 684 C 652 666.328125 666.328125 652 684 652 C 701.671875 652 716 666.328125 716 684 "/>
<path fill-rule="nonzero" fill="rgb(25.490196%, 41.176471%, 88.235294%)" fill-opacity="1" d="M 788 684 C 788 701.671875 773.671875 716 756 716 C 738.328125 716 724 701.671875 724 684 C 724 666.328125 738.328125 652 756 652 C 773.671875 652 788 666.328125 788 684 "/>
<path fill-rule="nonzero" fill="rgb(57.647059%, 43.921569%, 85.882353%)" fill-opacity="1" d="M 68 756 C 68 773.671875 53.671875 788 36 788 C 18.328125 788 4 773.671875 4 756 C 4 738.328125 18.328125 724 36 724 C 53.671875 724 68 738.328125 68 756 "/>
<path fill-rule="nonzero" fill="rgb(48.235294%, 40.784314%, 93.333333%)" fill-opacity="1" d="M 140 756 C 140 773.671875 125.671875 788 108 788 C 90.328125 788 76 773.671875 76 756 C 76 738.328125 90.328125 724 108 724 C 125.671875 724 140 738.328125 140 756 "/>
<path fill-rule="nonzero" fill="rgb(41.568627%, 35.294118%, 80.392157%)" fill-opacity="1" d="M 212 756 C 212 773.671875 197.671875 788 180 788 C 162.328125 788 148 773.671875 148 756 C 148 738.328125 162.328125 724 180 724 C 197.671875 724 212 738.328125 212 756 "/>
<path fill-rule="nonzero" fill="rgb(0%, 0%, 100%)" fill-opacity="1" d="M 284 756 C 284 773.671875 269.671875 788 252 788 C 234.328125 788 220 773.671875 220 756 C 220 738.328125 234.328125 724 252 724 C 269.671875 724 284 738.328125 284 756 "/>
<path fill-rule="nonzero" fill="rgb(28.235294%, 23.921569%, 54.509804%)" fill-opacity="1" d="M 356 756 C 356 773.671875 341.671875 788 324 788 C 306.328125 788 292 773.671875 292 756 C 292 738.328125 306.328125 724 324 724 C 341.671875 724 356 738.328125 356 756 "/>
<path fill-rule="nonzero" fill="rgb(0%, 0%, 80.392157%)" fill-opacity="1" d="M 428 756 C 428 773.671875 413.671875 788 396 788 C 378.328125 788 364 773.671875 364 756 C 364 738.328125 378.328125 724 396 724 C 413.671875 724 428 738.328125 428 756 "/>
<path fill-rule="nonzero" fill="rgb(9.803922%, 9.803922%, 43.921569%)" fill-opacity="1" d="M 500 756 C 500 773.671875 485.671875 788 468 788 C 450.328125 788 436 773.671875 436 756 C 436 738.328125 450.328125 724 468 724 C 485.671875 724 500 738.328125 500 756 "/>
<path fill-rule="nonzero" fill="rgb(0%, 0%, 54.509804%)" fill-opacity="1" d="M 572 756 C 572 773.671875 557.671875 788 540 788 C 522.328125 788 508 773.671875 508 756 C 508 738.328125 522.328125 724 540 724 C 557.671875 724 572 738.328125 572 756 "/>
<path fill-rule="nonzero" fill="rgb(0%, 0%, 50.196078%)" fill-opacity="1" d="M 644 756 C 644 773.671875 629.671875 788 612 788 C 594.328125 788 580 773.671875 580 756 C 580 738.328125 594.328125 724 612 724 C 629.671875 724 644 738.328125 644 756 "/>
<path fill-rule="nonzero" fill="rgb(72.941176%, 33.333333%, 82.745098%)" fill-opacity="1" d="M 716 756 C 716 773.671875 701.671875 788 684 788 C 666.328125 788 652 773.671875 652 756 C 652 738.328125 666.328125 724 684 724 C 701.671875 724 716 738.328125 716 756 "/>
<path fill-rule="nonzero" fill="rgb(60%, 19.607843%, 80%)" fill-opacity="1" d="M 788 756 C 788 773.671875 773.671875 788 756 788 C 738.328125 788 724 773.671875 724 756 C 724 738.328125 738.328125 724 756 724 C 773.671875 724 788 738.328125 788 756 "/>
<path fill-rule="nonzero" fill="rgb(54.117647%, 16.862745%, 88.627451%)" fill-opacity="1" d="M 68 828 C 68 845.671875 53.671875 860 36 860 C 18.328125 860 4 845.671875 4 828 C 4 810.328125 18.328125 796 36 796 C 53.671875 796 68 810.328125 68 828 "/>
<path fill-rule="nonzero" fill="rgb(58.039216%, 0%, 82.745098%)" fill-opacity="1" d="M 140 828 C 140 845.671875 125.671875 860 108 860 C 90.328125 860 76 845.671875 76 828 C 76 810.328125 90.328125 796 108 796 C 125.671875 796 140 810.328125 140 828 "/>
<path fill-rule="nonzero" fill="rgb(29.411765%, 0%, 50.980392%)" fill-opacity="1" d="M 212 828 C 212 845.671875 197.671875 860 180 860 C 162.328125 860 148 845.671875 148 828 C 148 810.328125 162.328125 796 180 796 C 197.671875 796 212 810.328125 212 828 "/>
<path fill-rule="nonzero" fill="rgb(86.666667%, 62.745098%, 86.666667%)" fill-opacity="1" d="M 284 828 C 284 845.671875 269.671875 860 252 860 C 234.328125 860 220 845.671875 220 828 C 220 810.328125 234.328125 796 252 796 C 269.671875 796 284 810.328125 284 828 "/>
<path fill-rule="nonzero" fill="rgb(93.333333%, 50.980392%, 93.333333%)" fill-opacity="1" d="M 356 828 C 356 845.671875 341.671875 860 324 860 C 306.328125 860 292 845.671875 292 828 C 292 810.328125 306.328125 796 324 796 C 341.671875 796 356 810.328125 356 828 "/>
<path fill-rule="nonzero" fill="rgb(85.490196%, 43.921569%, 83.921569%)" fill-opacity="1" d="M 428 828 C 428 845.671875 413.671875 860 396 860 C 378.328125 860 364 845.671875 364 828 C 364 810.328125 378.328125 796 396 796 C 413.671875 796 428 810.328125 428 828 "/>
<path fill-rule="nonzero" fill="rgb(100%, 0%, 100%)" fill-opacity="1" d="M 500 828 C 500 845.671875 485.671875 860 468 860 C 450.328125 860 436 845.671875 436 828 C 436 810.328125 450.328125 796 468 796 C 485.671875 796 500 810.328125 500 828 "/>
<path fill-rule="nonzero" fill="rgb(100%, 7.843137%, 57.647059%)" fill-opacity="1" d="M 572 828 C 572 845.671875 557.671875 860 540 860 C 522.328125 860 508 845.671875 508 828 C 508 810.328125 522.328125 796 540 796 C 557.671875 796 572 810.328125 572 828 "/>
<path fill-rule="nonzero" fill="rgb(78.039216%, 8.235294%, 52.156863%)" fill-opacity="1" d="M 644 828 C 644 845.671875 629.671875 860 612 860 C 594.328125 860 580 845.671875 580 828 C 580 810.328125 594.328125 796 612 796 C 629.671875 796 644 810.328125 644 828 "/>
<path fill-rule="nonzero" fill="rgb(54.509804%, 0%, 54.509804%)" fill-opacity="1" d="M 716 828 C 716 845.671875 701.671875 860 684 860 C 666.328125 860 652 845.671875 652 828 C 652 810.328125 666.328125 796 684 796 C 701.671875 796 716 810.328125 716 828 "/>
<path fill-rule="nonzero" fill="rgb(50.196078%, 0%, 50.196078%)" fill-opacity="1" d="M 788 828 C 788 845.671875 773.671875 860 756 860 C 738.328125 860 724 845.671875 724 828 C 724 810.328125 738.328125 796 756 796 C 773.671875 796 788 810.328125 788 828 "/>
<path fill-rule="nonzero" fill="rgb(100%, 75.294118%, 79.607843%)" fill-opacity="1" d="M 68 900 C 68 917.671875 53.671875 932 36 932 C 18.328125 932 4 917.671875 4 900 C 4 882.328125 18.328125 868 36 868 C 53.671875 868 68 882.328125 68 900 "/>
<path fill-rule="nonzero" fill="rgb(100%, 71.372549%, 75.686275%)" fill-opacity="1" d="M 140 900 C 140 917.671875 125.671875 932 108 932 C 90.328125 932 76 917.671875 76 900 C 76 882.328125 90.328125 868 108 868 C 125.671875 868 140 882.328125 140 900 "/>
<path fill-rule="nonzero" fill="rgb(100%, 41.176471%, 70.588235%)" fill-opacity="1" d="M 212 900 C 212 917.671875 197.671875 932 180 932 C 162.328125 932 148 917.671875 148 900 C 148 882.328125 162.328125 868 180 868 C 197.671875 868 212 882.328125 212 900 "/>
<path fill-rule="nonzero" fill="rgb(85.882353%, 43.921569%, 57.647059%)" fill-opacity="1" d="M 284 900 C 284 917.671875 269.671875 932 252 932 C 234.328125 932 220 917.671875 220 900 C 220 882.328125 234.328125 868 252 868 C 269.671875 868 284 882.328125 284 900 "/>
<path fill-rule="nonzero" fill="rgb(86.27451%, 7.843137%, 23.529412%)" fill-opacity="1" d="M 356 900 C 356 917.671875 341.671875 932 324 932 C 306.328125 932 292 917.671875 292 900 C 292 882.328125 306.328125 868 324 868 C 341.671875 868 356 882.328125 356 900 "/>
</g>
</defs>
<use xlink:href="#source-5"/>
</svg>
