<?xml version="1.0" encoding="UTF-8"?>
<svg xmlns="http://www.w3.org/2000/svg" xmlns:xlink="http://www.w3.org/1999/xlink" width="800" height="944" viewBox="0 0 800 944">
<defs>
<clipPath id="clip-0">
<rect x="0" y="0" width="800" height="944"/>
</clipPath>
<g id="source-5" clip-path="url(#clip-0)">
<path fill-rule="nonzero" fill="rgb(100%, 100%, 100%)" fill-opacity="1" d="M 8 8 L 72 8 L 72 72 L 8 72 Z M 8 8 "/>
<path fill-rule="nonzero" fill="rgb(100%, 100%, 94.117647%)" fill-opacity="1" d="M 80 8 L 144 8 L 144 72 L 80 72 Z M 80 8 "/>
<path fill-rule="nonzero" fill="rgb(100%, 100%, 87.843137%)" fill-opacity="1" d="M 152 8 L 216 8 L 216 72 L 152 72 Z M 152 8 "/>
<path fill-rule="nonzero" fill="rgb(96.078431%, 100%, 98.039216%)" fill-opacity="1" d="M 224 8 L 288 8 L 288 72 L 224 72 Z M 224 8 "/>
<path fill-rule="nonzero" fill="rgb(94.117647%, 100%, 100%)" fill-opacity="1" d="M 296 8 L 360 8 L 360 72 L 296 72 Z M 296 8 "/>
<path fill-rule="nonzero" fill="rgb(100%, 98.039216%, 98.039216%)" fill-opacity="1" d="M 368 8 L 432 8 L 432 72 L 368 72 Z M 368 8 "/>
<path fill-rule="nonzero" fill="rgb(94.117647%, 100%, 94.117647%)" fill-opacity="1" d="M 440 8 L 504 8 L 504 72 L 440 72 Z M 440 8 "/>
<path fill-rule="nonzero" fill="rgb(100%, 98.039216%, 94.117647%)" fill-opacity="1" d="M 512 8 L 576 8 L 576 72 L 512 72 Z M 512 8 "/>
<path fill-rule="nonzero" fill="rgb(87.843137%, 100%, 100%)" fill-opacity="1" d="M 584 8 L 648 8 L 648 72 L 584 72 Z M 584 8 "/>
<path fill-rule="nonzero" fill="rgb(97.254902%, 97.254902%, 100%)" fill-opacity="1" d="M 656 8 L 720 8 L 720 72 L 656 72 Z M 656 8 "/>
<path fill-rule="nonzero" fill="rgb(100%, 97.254902%, 86.27451%)" fill-opacity="1" d="M 728 8 L 792 8 L 792 72 L 728 72 Z M 728 8 "/>
<path fill-rule="nonzero" fill="rgb(94.117647%, 97.254902%, 100%)" fill-opacity="1" d="M 8 80 L 72 80 L 72 144 L 8 144 Z M 8 80 "/>
<path fill-rule="nonzero" fill="rgb(100%, 96.078431%, 93.333333%)" fill-opacity="1" d="M 80 80 L 144 80 L 144 144 L 80 144 Z M 80 80 "/>
<path fill-rule="nonzero" fill="rgb(99.215686%, 96.078431%, 90.196078%)" fill-opacity="1" d="M 152 80 L 216 80 L 216 144 L 152 144 Z M 152 80 "/>
<path fill-rule="nonzero" fill="rgb(96.078431%, 96.078431%, 96.078431%)" fill-opacity="1" d="M 224 80 L 288 80 L 288 144 L 224 144 Z M 224 80 "/>
<path fill-rule="nonzero" fill="rgb(100%, 94.117647%, 96.078431%)" fill-opacity="1" d="M 296 80 L 360 80 L 360 144 L 296 144 Z M 296 80 "/>
<path fill-rule="nonzero" fill="rgb(96.078431%, 96.078431%, 86.27451%)" fill-opacity="1" d="M 368 80 L 432 80 L 432 144 L 368 144 Z M 368 80 "/>
<path fill-rule="nonzero" fill="rgb(98.039216%, 94.117647%, 90.196078%)" fill-opacity="1" d="M 440 80 L 504 80 L 504 144 L 440 144 Z M 440 80 "/>
<path fill-rule="nonzero" fill="rgb(98.039216%, 92.156863%, 84.313725%)" fill-opacity="1" d="M 512 80 L 576 80 L 576 144 L 512 144 Z M 512 80 "/>
<path fill-rule="nonzero" fill="rgb(100%, 89.411765%, 88.235294%)" fill-opacity="1" d="M 584 80 L 648 80 L 648 144 L 584 144 Z M 584 80 "/>
<path fill-rule="nonzero" fill="rgb(90.196078%, 90.196078%, 98.039216%)" fill-opacity="1" d="M 656 80 L 720 80 L 720 144 L 656 144 Z M 656 80 "/>
<path fill-rule="nonzero" fill="rgb(86.27451%, 86.27451%, 86.27451%)" fill-opacity="1" d="M 728 80 L 792 80 L 792 144 L 728 144 Z M 728 80 "/>
<path fill-rule="nonzero" fill="rgb(82.745098%, 82.745098%, 82.745098%)" fill-opacity="1" d="M 8 152 L 72 152 L 72 216 L 8 216 Z M 8 152 "/>
<path fill-rule="nonzero" fill="rgb(84.705882%, 74.901961%, 84.705882%)" fill-opacity="1" d="M 80 152 L 144 152 L 144 216 L 80 216 Z M 80 152 "/>
<path fill-rule="nonzero" fill="rgb(75.294118%, 75.294118%, 75.294118%)" fill-opacity="1" d="M 152 152 L 216 152 L 216 216 L 152 216 Z M 152 152 "/>
<path fill-rule="nonzero" fill="rgb(66.27451%, 66.27451%, 66.27451%)" fill-opacity="1" d="M 224 152 L 288 152 L 288 216 L 224 216 Z M 224 152 "/>
<path fill-rule="nonzero" fill="rgb(50.196078%, 50.196078%, 50.196078%)" fill-opacity="1" d="M 296 152 L 360 152 L 360 216 L 296 216 Z M 296 152 "/>
<path fill-rule="nonzero" fill="rgb(41.176471%, 41.176471%, 41.176471%)" fill-opacity="1" d="M 368 152 L 432 152 L 432 216 L 368 216 Z M 368 152 "/>
<path fill-rule="nonzero" fill="rgb(0%, 0%, 0%)" fill-opacity="1" d="M 440 152 L 504 152 L 504 216 L 440 216 Z M 440 152 "/>
<path fill-rule="nonzero" fill="rgb(100%, 85.490196%, 72.54902%)" fill-opacity="1" d="M 512 152 L 576 152 L 576 216 L 512 216 Z M 512 152 "/>
<path fill-rule="nonzero" fill="rgb(100%, 62.745098%, 47.843137%)" fill-opacity="1" d="M 584 152 L 648 152 L 648 216 L 584 216 Z M 584 152 "/>
<path fill-rule="nonzero" fill="rgb(95.686275%, 64.313725%, 37.647059%)" fill-opacity="1" d="M 656 152 L 720 152 L 720 216 L 656 216 Z M 656 152 "/>
<path fill-rule="nonzero" fill="rgb(91.372549%, 58.823529%, 47.843137%)" fill-opacity="1" d="M 728 152 L 792 152 L 792 216 L 728 216 Z M 728 152 "/>
<path fill-rule="nonzero" fill="rgb(100%, 49.803922%, 31.372549%)" fill-opacity="1" d="M 8 224 L 72 224 L 72 288 L 8 288 Z M 8 224 "/>
<path fill-rule="nonzero" fill="rgb(98.039216%, 50.196078%, 44.705882%)" fill-opacity="1" d="M 80 224 L 144 224 L 144 288 L 80 288 Z M 80 224 "/>
<path fill-rule="nonzero" fill="rgb(94.117647%, 50.196078%, 50.196078%)" fill-opacity="1" d="M 152 224 L 216 224 L 216 288 L 152 288 Z M 152 224 "/>
<path fill-rule="nonzero" fill="rgb(73.72549%, 56.078431%, 56.078431%)" fill-opacity="1" d="M 224 224 L 288 224 L 288 288 L 224 288 Z M 224 224 "/>
<path fill-rule="nonzero" fill="rgb(100%, 38.823529%, 27.843137%)" fill-opacity="1" d="M 296 224 L 360 224 L 360 288 L 296 288 Z M 296 224 "/>
<path fill-rule="nonzero" fill="rgb(80.392157%, 52.156863%, 24.705882%)" fill-opacity="1" d="M 368 224 L 432 224 L 432 288 L 368 288 Z M 368 224 "/>
<path fill-rule="nonzero" fill="rgb(100%, 27.058824%, 0%)" fill-opacity="1" d="M 440 224 L 504 224 L 504 288 L 440 288 Z M 440 224 "/>
<path fill-rule="nonzero" fill="rgb(82.352941%, 41.176471%, 11.764706%)" fill-opacity="1" d="M 512 224 L 576 224 L 576 288 L 512 288 Z M 512 224 "/>
<path fill-rule="nonzero" fill="rgb(80.392157%, 36.078431%, 36.078431%)" fill-opacity="1" d="M 584 224 L 648 224 L 648 288 L 584 288 Z M 584 224 "/>
<path fill-rule="nonzero" fill="rgb(100%, 0%, 0%)" fill-opacity="1" d="M 656 224 L 720 224 L 720 288 L 656 288 Z M 656 224 "/>
<path fill-rule="nonzero" fill="rgb(62.745098%, 32.156863%, 17.647059%)" fill-opacity="1" d="M 728 224 L 792 224 L 792 288 L 728 288 Z M 728 224 "/>
<path fill-rule="nonzero" fill="rgb(69.803922%, 13.333333%, 13.333333%)" fill-opacity="1" d="M 8 296 L 72 296 L 72 360 L 8 360 Z M 8 296 "/>
<path fill-rule="nonzero" fill="rgb(64.705882%, 16.470588%, 16.470588%)" fill-opacity="1" d="M 80 296 L 144 296 L 144 360 L 80 360 Z M 80 296 "/>
<path fill-rule="nonzero" fill="rgb(54.509804%, 27.058824%, 7.45098%)" fill-opacity="1" d="M 152 296 L 216 296 L 216 360 L 152 360 Z M 152 296 "/>
<path fill-rule="nonzero" fill="rgb(54.509804%, 0%, 0%)" fill-opacity="1" d="M 224 296 L 288 296 L 288 360 L 224 360 Z M 224 296 "/>
<path fill-rule="nonzero" fill="rgb(50.196078%, 0%, 0%)" fill-opacity="1" d="M 296 296 L 360 296 L 360 360 L 296 360 Z M 296 296 "/>
<path fill-rule="nonzero" fill="rgb(100%, 98.039216%, 80.392157%)" fill-opacity="1" d="M 368 296 L 432 296 L 432 360 L 368 360 Z M 368 296 "/>
<path fill-rule="nonzero" fill="rgb(100%, 93.72549%, 83.529412%)" fill-opacity="1" d="M 440 296 L 504 296 L 504 360 L 440 360 Z M 440 296 "/>
<path fill-rule="nonzero" fill="rgb(100%, 92.156863%, 80.392157%)" fill-opacity="1" d="M 512 296 L 576 296 L 576 360 L 512 360 Z M 512 296 "/>
<path fill-rule="nonzero" fill="rgb(100%, 89.411765%, 76.862745%)" fill-opacity="1" d="M 584 296 L 648 296 L 648 360 L 584 360 Z M 584 296 "/>
<path fill-rule="nonzero" fill="rgb(100%, 89.411765%, 70.980392%)" fill-opacity="1" d="M 656 296 L 720 296 L 720 360 L 656 360 Z M 656 296 "/>
<path fill-rule="nonzero" fill="rgb(93.333333%, 90.980392%, 66.666667%)" fill-opacity="1" d="M 728 296 L 792 296 L 792 360 L 728 360 Z M 728 296 "/>
<path fill-rule="nonzero" fill="rgb(94.117647%, 90.196078%, 54.901961%)" fill-opacity="1" d="M 8 368 L 72 368 L 72 432 L 8 432 Z M 8 368 "/>
<path fill-rule="nonzero" fill="rgb(100%, 87.058824%, 67.843137%)" fill-opacity="1" d="M 80 368 L 144 368 L 144 432 L 80 432 Z M 80 368 "/>
<path fill-rule="nonzero" fill="rgb(96.078431%, 87.058824%, 70.196078%)" fill-opacity="1" d="M 152 368 L 216 368 L 216 432 L 152 432 Z M 152 368 "/>
<path fill-rule="nonzero" fill="rgb(100%, 84.313725%, 0%)" fill-opacity="1" d="M 224 368 L 288 368 L 288 432 L 224 432 Z M 224 368 "/>
<path fill-rule="nonzero" fill="rgb(87.058824%, 72.156863%, 52.941176%)" fill-opacity="1" d="M 296 368 L 360 368 L 360 432 L 296 432 Z M 296 368 "/>
<path fill-rule="nonzero" fill="rgb(82.352941%, 70.588235%, 54.901961%)" fill-opacity="1" d="M 368 368 L 432 368 L 432 432 L 368 432 Z M 368 368 "/>
<path fill-rule="nonzero" fill="rgb(100%, 64.705882%, 0%)" fill-opacity="1" d="M 440 368 L 504 368 L 504 432 L 440 432 Z M 440 368 "/>
<path fill-rule="nonzero" fill="rgb(74.117647%, 71.764706%, 41.960784%)" fill-opacity="1" d="M 512 368 L 576 368 L 576 432 L 512 432 Z M 512 368 "/>
<path fill-rule="nonzero" fill="rgb(85.490196%, 64.705882%, 12.54902%)" fill-opacity="1" d="M 584 368 L 648 368 L 648 432 L 584 432 Z M 584 368 "/>
<path fill-rule="nonzero" fill="rgb(100%, 54.901961%, 0%)" fill-opacity="1" d="M 656 368 L 720 368 L 720 432 L 656 432 Z M 656 368 "/>
<path fill-rule="nonzero" fill="rgb(98.039216%, 98.039216%, 82.352941%)" fill-opacity="1" d="M 728 368 L 792 368 L 792 432 L 728 432 Z M 728 368 "/>
<path fill-rule="nonzero" fill="rgb(100%, 100%, 0%)" fill-opacity="1" d="M 8 440 L 72 440 L 72 504 L 8 504 Z M 8 440 "/>
<path fill-rule="nonzero" fill="rgb(67.843137%, 100%, 18.431373%)" fill-opacity="1" d="M 80 440 L 144 440 L 144 504 L 80 504 Z M 80 440 "/>
<path fill-rule="nonzero" fill="rgb(60.392157%, 80.392157%, 19.607843%)" fill-opacity="1" d="M 152 440 L 216 440 L 216 504 L 152 504 Z M 152 440 "/>
<path fill-rule="nonzero" fill="rgb(41.960784%, 55.686275%, 13.72549%)" fill-opacity="1" d="M 224 440 L 288 440 L 288 504 L 224 504 Z M 224 440 "/>
<path fill-rule="nonzero" fill="rgb(50.196078%, 50.196078%, 0%)" fill-opacity="1" d="M 296 440 L 360 440 L 360 504 L 296 504 Z M 296 440 "/>
<path fill-rule="nonzero" fill="rgb(33.333333%, 41.960784%, 18.431373%)" fill-opacity="1" d="M 368 440 L 432 440 L 432 504 L 368 504 Z M 368 440 "/>
<path fill-rule="nonzero" fill="rgb(49.803922%, 100%, 0%)" fill-opacity="1" d="M 440 440 L 504 440 L 504 504 L 440 504 Z M 440 440 "/>
<path fill-rule="nonzero" fill="rgb(48.627451%, 98.823529%, 0%)" fill-opacity="1" d="M 512 440 L 576 440 L 576 504 L 512 504 Z M 512 440 "/>
<path fill-rule="nonzero" fill="rgb(59.607843%, 98.431373%, 59.607843%)" fill-opacity="1" d="M 584 440 L 648 440 L 648 504 L 584 504 Z M 584 440 "/>
<path fill-rule="nonzero" fill="rgb(0%, 100%, 49.803922%)" fill-opacity="1" d="M 656 440 L 720 440 L 720 504 L 656 504 Z M 656 440 "/>
<path fill-rule="nonzero" fill="rgb(0%, 100%, 0%)" fill-opacity="1" d="M 728 440 L 792 440 L 792 504 L 728 504 Z M 728 440 "/>
<path fill-rule="nonzero" fill="rgb(56.470588%, 93.333333%, 56.470588%)" fill-opacity="1" d="M 8 512 L 72 512 L 72 576 L 8 576 Z M 8 512 "/>
<path fill-rule="nonzero" fill="rgb(19.607843%, 80.392157%, 19.607843%)" fill-opacity="1" d="M 80 512 L 144 512 L 144 576 L 80 576 Z M 80 512 "/>
<path fill-rule="nonzero" fill="rgb(56.078431%, 73.72549%, 56.078431%)" fill-opacity="1" d="M 152 512 L 216 512 L 216 576 L 152 576 Z M 152 512 "/>
<path fill-rule="nonzero" fill="rgb(23.529412%, 70.196078%, 44.313725%)" fill-opacity="1" d="M 224 512 L 288 512 L 288 576 L 224 576 Z M 224 512 "/>
<path fill-rule="nonzero" fill="rgb(18.039216%, 54.509804%, 34.117647%)" fill-opacity="1" d="M 296 512 L 360 512 L 360 576 L 296 576 Z M 296 512 "/>
<path fill-rule="nonzero" fill="rgb(13.333333%, 54.509804%, 13.333333%)" fill-opacity="1" d="M 368 512 L 432 512 L 432 576 L 368 576 Z M 368 512 "/>
<path fill-rule="nonzero" fill="rgb(0%, 50.196078%, 0%)" fill-opacity="1" d="M 440 512 L 504 512 L 504 576 L 440 576 Z M 440 512 "/>
<path fill-rule="nonzero" fill="rgb(0%, 39.215686%, 0%)" fill-opacity="1" d="M 512 512 L 576 512 L 576 576 L 512 576 Z M 512 512 "/>
<path fill-rule="nonzero" fill="rgb(49.803922%, 100%, 83.137255%)" fill-opacity="1" d="M 584 512 L 648 512 L 648 576 L 584 576 Z M 584 512 "/>
<path fill-rule="nonzero" fill="rgb(0%, 98.039216%, 60.392157%)" fill-opacity="1" d="M 656 512 L 720 512 L 720 576 L 656 576 Z M 656 512 "/>
<path fill-rule="nonzero" fill="rgb(25.098039%, 87.843137%, 81.568627%)" fill-opacity="1" d="M 728 512 L 792 512 L 792 576 L 728 576 Z M 728 512 "/>
<path fill-rule="nonzero" fill="rgb(28.235294%, 81.960784%, 80%)" fill-opacity="1" d="M 8 584 L 72 584 L 72 648 L 8 648 Z M 8 584 "/>
<path fill-rule="nonzero" fill="rgb(40%, 80.392157%, 66.666667%)" fill-opacity="1" d="M 80 584 L 144 584 L 144 648 L 80 648 Z M 80 584 "/>
<path fill-rule="nonzero" fill="rgb(12.54902%, 69.803922%, 66.666667%)" fill-opacity="1" d="M 152 584 L 216 584 L 216 648 L 152 648 Z M 152 584 "/>
<path fill-rule="nonzero" fill="rgb(0%, 100%, 100%)" fill-opacity="1" d="M 224 584 L 288 584 L 288 648 L 224 648 Z M 224 584 "/>
<path fill-rule="nonzero" fill="rgb(68.627451%, 93.333333%, 93.333333%)" fill-opacity="1" d="M 296 584 L 360 584 L 360 648 L 296 648 Z M 296 584 "/>
<path fill-rule="nonzero" fill="rgb(69.019608%, 87.843137%, 90.196078%)" fill-opacity="1" d="M 368 584 L 432 584 L 432 648 L 368 648 Z M 368 584 "/>
<path fill-rule="nonzero" fill="rgb(67.843137%, 84.705882%, 90.196078%)" fill-opacity="1" d="M 440 584 L 504 584 L 504 648 L 440 648 Z M 440 584 "/>
<path fill-rule="nonzero" fill="rgb(52.941176%, 80.784314%, 98.039216%)" fill-opacity="1" d="M 512 584 L 576 584 L 576 648 L 512 648 Z M 512 584 "/>
<path fill-rule="nonzero" fill="rgb(52.941176%, 80.784314%, 92.156863%)" fill-opacity="1" d="M 584 584 L 648 584 L 648 648 L 584 648 Z M 584 584 "/>
<path fill-rule="nonzero" fill="rgb(0%, 80.784314%, 81.960784%)" fill-opacity="1" d="M 656 584 L 720 584 L 720 648 L 656 648 Z M 656 584 "/>
<path fill-rule="nonzero" fill="rgb(0%, 74.901961%, 100%)" fill-opacity="1" d="M 728 584 L 792 584 L 792 648 L 728 648 Z M 728 584 "/>
<path fill-rule="nonzero" fill="rgb(37.254902%, 61.960784%, 62.745098%)" fill-opacity="1" d="M 8 656 L 72 656 L 72 720 L 8 720 Z M 8 656 "/>
<path fill-rule="nonzero" fill="rgb(11.764706%, 56.470588%, 100%)" fill-opacity="1" d="M 80 656 L 144 656 L 144 720 L 80 720 Z M 80 656 "/>
<path fill-rule="nonzero" fill="rgb(27.45098%, 50.980392%, 70.588235%)" fill-opacity="1" d="M 152 656 L 216 656 L 216 720 L 152 720 Z M 152 656 "/>
<path fill-rule="nonzero" fill="rgb(0%, 54.509804%, 54.509804%)" fill-opacity="1" d="M 224 656 L 288 656 L 288 720 L 224 720 Z M 224 656 "/>
<path fill-rule="nonzero" fill="rgb(0%, 50.196078%, 50.196078%)" fill-opacity="1" d="M 296 656 L 360 656 L 360 720 L 296 720 Z M 296 656 "/>
<path fill-rule="nonzero" fill="rgb(18.431373%, 30.980392%, 30.980392%)" fill-opacity="1" d="M 368 656 L 432 656 L 432 720 L 368 720 Z M 368 656 "/>
<path fill-rule="nonzero" fill="rgb(69.019608%, 76.862745%, 87.058824%)" fill-opacity="1" d="M 440 656 L 504 656 L 504 720 L 440 720 Z M 440 656 "/>
<path fill-rule="nonzero" fill="rgb(39.215686%, 58.431373%, 92.941176%)" fill-opacity="1" d="M 512 656 L 576 656 L 576 720 L 512 720 Z M 512 656 "/>
<path fill-rule="nonzero" fill="rgb(46.666667%, 53.333333%, 60%)" fill-opacity="1" d="M 584 656 L 648 656 L 648 720 L 584 720 Z M 584 656 "/>
<path fill-rule="nonzero" fill="rgb(43.921569%, 50.196078%, 56.470588%)" fill-opacity="1" d="M 656 656 L 720 656 L 720 720 L 656 720 Z M 656 656 "/>
<path fill-rule="nonzero" fill="rgb(25.490196%, 41.176471%, 88.235294%)" fill-opacity="1" d="M 728 656 L 792 656 L 792 720 L 728 720 Z M 728 656 "/>
<path fill-rule="nonzero" fill="rgb(57.647059%, 43.921569%, 85.882353%)" fill-opacity="1" d="M 8 728 L 72 728 L 72 792 L 8 792 Z M 8 728 "/>
<path fill-rule="nonzero" fill="rgb(48.235294%, 40.784314%, 93.333333%)" fill-opacity="1" d="M 80 728 L 144 728 L 144 792 L 80 792 Z M 80 728 "/>
<path fill-rule="nonzero" fill="rgb(41.568627%, 35.294118%, 80.392157%)" fill-opacity="1" d="M 152 728 L 216 728 L 216 792 L 152 792 Z M 152 728 "/>
<path fill-rule="nonzero" fill="rgb(0%, 0%, 100%)" fill-opacity="1" d="M 224 728 L 288 728 L 288 792 L 224 792 Z M 224 728 "/>
<path fill-rule="nonzero" fill="rgb(28.235294%, 23.921569%, 54.509804%)" fill-opacity="1" d="M 296 728 L 360 728 L 360 792 L 296 792 Z M 296 728 "/>
<path fill-rule="nonzero" fill="rgb(0%, 0%, 80.392157%)" fill-opacity="1" d="M 368 728 L 432 728 L 432 792 L 368 792 Z M 368 728 "/>
<path fill-rule="nonzero" fill="rgb(9.803922%, 9.803922%, 43.921569%)" fill-opacity="1" d="M 440 728 L 504 728 L 504 792 L 440 792 Z M 440 728 "/>
<path fill-rule="nonzero" fill="rgb(0%, 0%, 54.509804%)" fill-opacity="1" d="M 512 728 L 576 728 L 576 792 L 512 792 Z M 512 728 "/>
<path fill-rule="nonzero" fill="rgb(0%, 0%, 50.196078%)" fill-opacity="1" d="M 584 728 L 648 728 L 648 792 L 584 792 Z M 584 728 "/>
<path fill-rule="nonzero" fill="rgb(72.941176%, 33.333333%, 82.745098%)" fill-opacity="1" d="M 656 728 L 720 728 L 720 792 L 656 792 Z M 656 728 "/>
<path fill-rule="nonzero" fill="rgb(60%, 19.607843%, 80%)" fill-opacity="1" d="M 728 728 L 792 728 L 792 792 L 728 792 Z M 728 728 "/>
<path fill-rule="nonzero" fill="rgb(54.117647%, 16.862745%, 88.627451%)" fill-opacity="1" d="M 8 800 L 72 800 L 72 864 L 8 864 Z M 8 800 "/>
<path fill-rule="nonzero" fill="rgb(58.039216%, 0%, 82.745098%)" fill-opacity="1" d="M 80 800 L 144 800 L 144 864 L 80 864 Z M 80 800 "/>
<path fill-rule="nonzero" fill="rgb(29.411765%, 0%, 50.980392%)" fill-opacity="1" d="M 152 800 L 216 800 L 216 864 L 152 864 Z M 152 800 "/>
<path fill-rule="nonzero" fill="rgb(86.666667%, 62.745098%, 86.666667%)" fill-opacity="1" d="M 224 800 L 288 800 L 288 864 L 224 864 Z M 224 800 "/>
<path fill-rule="nonzero" fill="rgb(93.333333%, 50.980392%, 93.333333%)" fill-opacity="1" d="M 296 800 L 360 800 L 360 864 L 296 864 Z M 296 800 "/>
<path fill-rule="nonzero" fill="rgb(85.490196%, 43.921569%, 83.921569%)" fill-opacity="1" d="M 368 800 L 432 800 L 432 864 L 368 864 Z M 368 800 "/>
<path fill-rule="nonzero" fill="rgb(100%, 0%, 100%)" fill-opacity="1" d="M 440 800 L 504 800 L 504 864 L 440 864 Z M 440 800 "/>
<path fill-rule="nonzero" fill="rgb(100%, 7.843137%, 57.647059%)" fill-opacity="1" d="M 512 800 L 576 800 L 576 864 L 512 864 Z M 512 800 "/>
<path fill-rule="nonzero" fill="rgb(78.039216%, 8.235294%, 52.156863%)" fill-opacity="1" d="M 584 800 L 648 800 L 648 864 L 584 864 Z M 584 800 "/>
<path fill-rule="nonzero" fill="rgb(54.509804%, 0%, 54.509804%)" fill-opacity="1" d="M 656 800 L 720 800 L 720 864 L 656 864 Z M 656 800 "/>
<path fill-rule="nonzero" fill="rgb(50.196078%, 0%, 50.196078%)" fill-opacity="1" d="M 728 800 L 792 800 L 792 864 L 728 864 Z M 728 800 "/>
<path fill-rule="nonzero" fill="rgb(100%, 75.294118%, 79.607843%)" fill-opacity="1" d="M 8 872 L 72 872 L 72 936 L 8 936 Z M 8 872 "/>
<path fill-rule="nonzero" fill="rgb(100%, 71.372549%, 75.686275%)" fill-opacity="1" d="M 80 872 L 144 872 L 144 936 L 80 936 Z M 80 872 "/>
<path fill-rule="nonzero" fill="rgb(100%, 41.176471%, 70.588235%)" fill-opacity="1" d="M 152 872 L 216 872 L 216 936 L 152 936 Z M 152 872 "/>
<path fill-rule="nonzero" fill="rgb(85.882353%, 43.921569%, 57.647059%)" fill-opacity="1" d="M 224 872 L 288 872 L 288 936 L 224 936 Z M 224 872 "/>
<path fill-rule="nonzero" fill="rgb(86.27451%, 7.843137%, 23.529412%)" fill-opacity="1" d="M 296 872 L 360 872 L 360 936 L 296 936 Z M 296 872 "/>
</g>
</defs>
<use xlink:href="#source-5"/>
</svg>
