<?xml version="1.0" encoding="UTF-8"?>
<svg xmlns="http://www.w3.org/2000/svg" xmlns:xlink="http://www.w3.org/1999/xlink" width="864" height="1024" viewBox="0 0 864 1024">
<defs>
<g id="source-7">
<rect x="-190.08" y="-225.28" width="1244.16" height="1474.56" fill="rgb(0%, 0%, 0%)" fill-opacity="1"/>
<path fill-rule="nonzero" fill="rgb(100%, 100%, 100%)" fill-opacity="1" d="M 8 8 L 72 8 L 72 72 L 8 72 Z M 8 8 "/>
<path fill-rule="nonzero" fill="rgb(100%, 100%, 94.117647%)" fill-opacity="1" d="M 88 8 L 152 8 L 152 72 L 88 72 Z M 88 8 "/>
<path fill-rule="nonzero" fill="rgb(100%, 100%, 87.843137%)" fill-opacity="1" d="M 168 8 L 232 8 L 232 72 L 168 72 Z M 168 8 "/>
<path fill-rule="nonzero" fill="rgb(96.078431%, 100%, 98.039216%)" fill-opacity="1" d="M 248 8 L 312 8 L 312 72 L 248 72 Z M 248 8 "/>
<path fill-rule="nonzero" fill="rgb(94.117647%, 100%, 100%)" fill-opacity="1" d="M 328 8 L 392 8 L 392 72 L 328 72 Z M 328 8 "/>
<path fill-rule="nonzero" fill="rgb(100%, 98.039216%, 98.039216%)" fill-opacity="1" d="M 408 8 L 472 8 L 472 72 L 408 72 Z M 408 8 "/>
<path fill-rule="nonzero" fill="rgb(94.117647%, 100%, 94.117647%)" fill-opacity="1" d="M 488 8 L 552 8 L 552 72 L 488 72 Z M 488 8 "/>
<path fill-rule="nonzero" fill="rgb(100%, 98.039216%, 94.117647%)" fill-opacity="1" d="M 568 8 L 632 8 L 632 72 L 568 72 Z M 568 8 "/>
<path fill-rule="nonzero" fill="rgb(87.843137%, 100%, 100%)" fill-opacity="1" d="M 648 8 L 712 8 L 712 72 L 648 72 Z M 648 8 "/>
<path fill-rule="nonzero" fill="rgb(97.254902%, 97.254902%, 100%)" fill-opacity="1" d="M 728 8 L 792 8 L 792 72 L 728 72 Z M 728 8 "/>
<path fill-rule="nonzero" fill="rgb(100%, 97.254902%, 86.27451%)" fill-opacity="1" d="M 808 8 L 872 8 L 872 72 L 808 72 Z M 808 8 "/>
<path fill-rule="nonzero" fill="rgb(94.117647%, 97.254902%, 100%)" fill-opacity="1" d="M 8 88 L 72 88 L 72 152 L 8 152 Z M 8 88 "/>
<path fill-rule="nonzero" fill="rgb(100%, 96.078431%, 93.333333%)" fill-opacity="1" d="M 88 88 L 152 88 L 152 152 L 88 152 Z M 88 88 "/>
<path fill-rule="nonzero" fill="rgb(99.215686%, 96.078431%, 90.196078%)" fill-opacity="1" d="M 168 88 L 232 88 L 232 152 L 168 152 Z M 168 88 "/>
<path fill-rule="nonzero" fill="rgb(96.078431%, 96.078431%, 96.078431%)" fill-opacity="1" d="M 248 88 L 312 88 L 312 152 L 248 152 Z M 248 88 "/>
<path fill-rule="nonzero" fill="rgb(100%, 94.117647%, 96.078431%)" fill-opacity="1" d="M 328 88 L 392 88 L 392 152 L 328 152 Z M 328 88 "/>
<path fill-rule="nonzero" fill="rgb(96.078431%, 96.078431%, 86.27451%)" fill-opacity="1" d="M 408 88 L 472 88 L 472 152 L 408 152 Z M 408 88 "/>
<path fill-rule="nonzero" fill="rgb(98.039216%, 94.117647%, 90.196078%)" fill-opacity="1" d="M 488 88 L 552 88 L 552 152 L 488 152 Z M 488 88 "/>
<path fill-rule="nonzero" fill="rgb(98.039216%, 92.156863%, 84.313725%)" fill-opacity="1" d="M 568 88 L 632 88 L 632 152 L 568 152 Z M 568 88 "/>
<path fill-rule="nonzero" fill="rgb(100%, 89.411765%, 88.235294%)" fill-opacity="1" d="M 648 88 L 712 88 L 712 152 L 648 152 Z M 648 88 "/>
<path fill-rule="nonzero" fill="rgb(90.196078%, 90.196078%, 98.039216%)" fill-opacity="1" d="M 728 88 L 792 88 L 792 152 L 728 152 Z M 728 88 "/>
<path fill-rule="nonzero" fill="rgb(86.27451%, 86.27451%, 86.27451%)" fill-opacity="1" d="M 808 88 L 872 88 L 872 152 L 808 152 Z M 808 88 "/>
<path fill-rule="nonzero" fill="rgb(82.745098%, 82.745098%, 82.745098%)" fill-opacity="1" d="M 8 168 L 72 168 L 72 232 L 8 232 Z M 8 168 "/>
<path fill-rule="nonzero" fill="rgb(84.705882%, 74.901961%, 84.705882%)" fill-opacity="1" d="M 88 168 L 152 168 L 152 232 L 88 232 Z M 88 168 "/>
<path fill-rule="nonzero" fill="rgb(75.294118%, 75.294118%, 75.294118%)" fill-opacity="1" d="M 168 168 L 232 168 L 232 232 L 168 232 Z M 168 168 "/>
<path fill-rule="nonzero" fill="rgb(66.27451%, 66.27451%, 66.27451%)" fill-opacity="1" d="M 248 168 L 312 168 L 312 232 L 248 232 Z M 248 168 "/>
<path fill-rule="nonzero" fill="rgb(50.196078%, 50.196078%, 50.196078%)" fill-opacity="1" d="M 328 168 L 392 168 L 392 232 L 328 232 Z M 328 168 "/>
<path fill-rule="nonzero" fill="rgb(41.176471%, 41.176471%, 41.176471%)" fill-opacity="1" d="M 408 168 L 472 168 L 472 232 L 408 232 Z M 408 168 "/>
<path fill-rule="nonzero" fill="rgb(0%, 0%, 0%)" fill-opacity="1" d="M 488 168 L 552 168 L 552 232 L 488 232 Z M 488 168 "/>
<path fill-rule="nonzero" fill="rgb(100%, 85.490196%, 72.54902%)" fill-opacity="1" d="M 568 168 L 632 168 L 632 232 L 568 232 Z M 568 168 "/>
<path fill-rule="nonzero" fill="rgb(100%, 62.745098%, 47.843137%)" fill-opacity="1" d="M 648 168 L 712 168 L 712 232 L 648 232 Z M 648 168 "/>
<path fill-rule="nonzero" fill="rgb(95.686275%, 64.313725%, 37.647059%)" fill-opacity="1" d="M 728 168 L 792 168 L 792 232 L 728 232 Z M 728 168 "/>
<path fill-rule="nonzero" fill="rgb(91.372549%, 58.823529%, 47.843137%)" fill-opacity="1" d="M 808 168 L 872 168 L 872 232 L 808 232 Z M 808 168 "/>
<path fill-rule="nonzero" fill="rgb(100%, 49.803922%, 31.372549%)" fill-opacity="1" d="M 8 248 L 72 248 L 72 312 L 8 312 Z M 8 248 "/>
<path fill-rule="nonzero" fill="rgb(98.039216%, 50.196078%, 44.705882%)" fill-opacity="1" d="M 88 248 L 152 248 L 152 312 L 88 312 Z M 88 248 "/>
<path fill-rule="nonzero" fill="rgb(94.117647%, 50.196078%, 50.196078%)" fill-opacity="1" d="M 168 248 L 232 248 L 232 312 L 168 312 Z M 168 248 "/>
<path fill-rule="nonzero" fill="rgb(73.72549%, 56.078431%, 56.078431%)" fill-opacity="1" d="M 248 248 L 312 248 L 312 312 L 248 312 Z M 248 248 "/>
<path fill-rule="nonzero" fill="rgb(100%, 38.823529%, 27.843137%)" fill-opacity="1" d="M 328 248 L 392 248 L 392 312 L 328 312 Z M 328 248 "/>
<path fill-rule="nonzero" fill="rgb(80.392157%, 52.156863%, 24.705882%)" fill-opacity="1" d="M 408 248 L 472 248 L 472 312 L 408 312 Z M 408 248 "/>
<path fill-rule="nonzero" fill="rgb(100%, 27.058824%, 0%)" fill-opacity="1" d="M 488 248 L 552 248 L 552 312 L 488 312 Z M 488 248 "/>
<path fill-rule="nonzero" fill="rgb(82.352941%, 41.176471%, 11.764706%)" fill-opacity="1" d="M 568 248 L 632 248 L 632 312 L 568 312 Z M 568 248 "/>
<path fill-rule="nonzero" fill="rgb(80.392157%, 36.078431%, 36.078431%)" fill-opacity="1" d="M 648 248 L 712 248 L 712 312 L 648 312 Z M 648 248 "/>
<path fill-rule="nonzero" fill="rgb(100%, 0%, 0%)" fill-opacity="1" d="M 728 248 L 792 248 L 792 312 L 728 312 Z M 728 248 "/>
<path fill-rule="nonzero" fill="rgb(62.745098%, 32.156863%, 17.647059%)" fill-opacity="1" d="M 808 248 L 872 248 L 872 312 L 808 312 Z M 808 248 "/>
<path fill-rule="nonzero" fill="rgb(69.803922%, 13.333333%, 13.333333%)" fill-opacity="1" d="M 8 328 L 72 328 L 72 392 L 8 392 Z M 8 328 "/>
<path fill-rule="nonzero" fill="rgb(64.705882%, 16.470588%, 16.470588%)" fill-opacity="1" d="M 88 328 L 152 328 L 152 392 L 88 392 Z M 88 328 "/>
<path fill-rule="nonzero" fill="rgb(54.509804%, 27.058824%, 7.45098%)" fill-opacity="1" d="M 168 328 L 232 328 L 232 392 L 168 392 Z M 168 328 "/>
<path fill-rule="nonzero" fill="rgb(54.509804%, 0%, 0%)" fill-opacity="1" d="M 248 328 L 312 328 L 312 392 L 248 392 Z M 248 328 "/>
<path fill-rule="nonzero" fill="rgb(50.196078%, 0%, 0%)" fill-opacity="1" d="M 328 328 L 392 328 L 392 392 L 328 392 Z M 328 328 "/>
<path fill-rule="nonzero" fill="rgb(100%, 98.039216%, 80.392157%)" fill-opacity="1" d="M 408 328 L 472 328 L 472 392 L 408 392 Z M 408 328 "/>
<path fill-rule="nonzero" fill="rgb(100%, 93.72549%, 83.529412%)" fill-opacity="1" d="M 488 328 L 552 328 L 552 392 L 488 392 Z M 488 328 "/>
<path fill-rule="nonzero" fill="rgb(100%, 92.156863%, 80.392157%)" fill-opacity="1" d="M 568 328 L 632 328 L 632 392 L 568 392 Z M 568 328 "/>
<path fill-rule="nonzero" fill="rgb(100%, 89.411765%, 76.862745%)" fill-opacity="1" d="M 648 328 L 712 328 L 712 392 L 648 392 Z M 648 328 "/>
<path fill-rule="nonzero" fill="rgb(100%, 89.411765%, 70.980392%)" fill-opacity="1" d="M 728 328 L 792 328 L 792 392 L 728 392 Z M 728 328 "/>
<path fill-rule="nonzero" fill="rgb(93.333333%, 90.980392%, 66.666667%)" fill-opacity="1" d="M 808 328 L 872 328 L 872 392 L 808 392 Z M 808 328 "/>
<path fill-rule="nonzero" fill="rgb(94.117647%, 90.196078%, 54.901961%)" fill-opacity="1" d="M 8 408 L 72 408 L 72 472 L 8 472 Z M 8 408 "/>
<path fill-rule="nonzero" fill="rgb(100%, 87.058824%, 67.843137%)" fill-opacity="1" d="M 88 408 L 152 408 L 152 472 L 88 472 Z M 88 408 "/>
<path fill-rule="nonzero" fill="rgb(96.078431%, 87.058824%, 70.196078%)" fill-opacity="1" d="M 168 408 L 232 408 L 232 472 L 168 472 Z M 168 408 "/>
<path fill-rule="nonzero" fill="rgb(100%, 84.313725%, 0%)" fill-opacity="1" d="M 248 408 L 312 408 L 312 472 L 248 472 Z M 248 408 "/>
<path fill-rule="nonzero" fill="rgb(87.058824%, 72.156863%, 52.941176%)" fill-opacity="1" d="M 328 408 L 392 408 L 392 472 L 328 472 Z M 328 408 "/>
<path fill-rule="nonzero" fill="rgb(82.352941%, 70.588235%, 54.901961%)" fill-opacity="1" d="M 408 408 L 472 408 L 472 472 L 408 472 Z M 408 408 "/>
<path fill-rule="nonzero" fill="rgb(100%, 64.705882%, 0%)" fill-opacity="1" d="M 488 408 L 552 408 L 552 472 L 488 472 Z M 488 408 "/>
<path fill-rule="nonzero" fill="rgb(74.117647%, 71.764706%, 41.960784%)" fill-opacity="1" d="M 568 408 L 632 408 L 632 472 L 568 472 Z M 568 408 "/>
<path fill-rule="nonzero" fill="rgb(85.490196%, 64.705882%, 12.54902%)" fill-opacity="1" d="M 648 408 L 712 408 L 712 472 L 648 472 Z M 648 408 "/>
<path fill-rule="nonzero" fill="rgb(100%, 54.901961%, 0%)" fill-opacity="1" d="M 728 408 L 792 408 L 792 472 L 728 472 Z M 728 408 "/>
<path fill-rule="nonzero" fill="rgb(98.039216%, 98.039216%, 82.352941%)" fill-opacity="1" d="M 808 408 L 872 408 L 872 472 L 808 472 Z M 808 408 "/>
<path fill-rule="nonzero" fill="rgb(100%, 100%, 0%)" fill-opacity="1" d="M 8 488 L 72 488 L 72 552 L 8 552 Z M 8 488 "/>
<path fill-rule="nonzero" fill="rgb(67.843137%, 100%, 18.431373%)" fill-opacity="1" d="M 88 488 L 152 488 L 152 552 L 88 552 Z M 88 488 "/>
<path fill-rule="nonzero" fill="rgb(60.392157%, 80.392157%, 19.607843%)" fill-opacity="1" d="M 168 488 L 232 488 L 232 552 L 168 552 Z M 168 488 "/>
<path fill-rule="nonzero" fill="rgb(41.960784%, 55.686275%, 13.72549%)" fill-opacity="1" d="M 248 488 L 312 488 L 312 552 L 248 552 Z M 248 488 "/>
<path fill-rule="nonzero" fill="rgb(50.196078%, 50.196078%, 0%)" fill-opacity="1" d="M 328 488 L 392 488 L 392 552 L 328 552 Z M 328 488 "/>
<path fill-rule="nonzero" fill="rgb(33.333333%, 41.960784%, 18.431373%)" fill-opacity="1" d="M 408 488 L 472 488 L 472 552 L 408 552 Z M 408 488 "/>
<path fill-rule="nonzero" fill="rgb(49.803922%, 100%, 0%)" fill-opacity="1" d="M 488 488 L 552 488 L 552 552 L 488 552 Z M 488 488 "/>
<path fill-rule="nonzero" fill="rgb(48.627451%, 98.823529%, 0%)" fill-opacity="1" d="M 568 488 L 632 488 L 632 552 L 568 552 Z M 568 488 "/>
<path fill-rule="nonzero" fill="rgb(59.607843%, 98.431373%, 59.607843%)" fill-opacity="1" d="M 648 488 L 712 488 L 712 552 L 648 552 Z M 648 488 "/>
<path fill-rule="nonzero" fill="rgb(0%, 100%, 49.803922%)" fill-opacity="1" d="M 728 488 L 792 488 L 792 552 L 728 552 Z M 728 488 "/>
<path fill-rule="nonzero" fill="rgb(0%, 100%, 0%)" fill-opacity="1" d="M 808 488 L 872 488 L 872 552 L 808 552 Z M 808 488 "/>
<path fill-rule="nonzero" fill="rgb(56.470588%, 93.333333%, 56.470588%)" fill-opacity="1" d="M 8 568 L 72 568 L 72 632 L 8 632 Z M 8 568 "/>
<path fill-rule="nonzero" fill="rgb(19.607843%, 80.392157%, 19.607843%)" fill-opacity="1" d="M 88 568 L 152 568 L 152 632 L 88 632 Z M 88 568 "/>
<path fill-rule="nonzero" fill="rgb(56.078431%, 73.72549%, 56.078431%)" fill-opacity="1" d="M 168 568 L 232 568 L 232 632 L 168 632 Z M 168 568 "/>
<path fill-rule="nonzero" fill="rgb(23.529412%, 70.196078%, 44.313725%)" fill-opacity="1" d="M 248 568 L 312 568 L 312 632 L 248 632 Z M 248 568 "/>
<path fill-rule="nonzero" fill="rgb(18.039216%, 54.509804%, 34.117647%)" fill-opacity="1" d="M 328 568 L 392 568 L 392 632 L 328 632 Z M 328 568 "/>
<path fill-rule="nonzero" fill="rgb(13.333333%, 54.509804%, 13.333333%)" fill-opacity="1" d="M 408 568 L 472 568 L 472 632 L 408 632 Z M 408 568 "/>
<path fill-rule="nonzero" fill="rgb(0%, 50.196078%, 0%)" fill-opacity="1" d="M 488 568 L 552 568 L 552 632 L 488 632 Z M 488 568 "/>
<path fill-rule="nonzero" fill="rgb(0%, 39.215686%, 0%)" fill-opacity="1" d="M 568 568 L 632 568 L 632 632 L 568 632 Z M 568 568 "/>
<path fill-rule="nonzero" fill="rgb(49.803922%, 100%, 83.137255%)" fill-opacity="1" d="M 648 568 L 712 568 L 712 632 L 648 632 Z M 648 568 "/>
<path fill-rule="nonzero" fill="rgb(0%, 98.039216%, 60.392157%)" fill-opacity="1" d="M 728 568 L 792 568 L 792 632 L 728 632 Z M 728 568 "/>
<path fill-rule="nonzero" fill="rgb(25.098039%, 87.843137%, 81.568627%)" fill-opacity="1" d="M 808 568 L 872 568 L 872 632 L 808 632 Z M 808 568 "/>
<path fill-rule="nonzero" fill="rgb(28.235294%, 81.960784%, 80%)" fill-opacity="1" d="M 8 648 L 72 648 L 72 712 L 8 712 Z M 8 648 "/>
<path fill-rule="nonzero" fill="rgb(40%, 80.392157%, 66.666667%)" fill-opacity="1" d="M 88 648 L 152 648 L 152 712 L 88 712 Z M 88 648 "/>
<path fill-rule="nonzero" fill="rgb(12.54902%, 69.803922%, 66.666667%)" fill-opacity="1" d="M 168 648 L 232 648 L 232 712 L 168 712 Z M 168 648 "/>
<path fill-rule="nonzero" fill="rgb(0%, 100%, 100%)" fill-opacity="1" d="M 248 648 L 312 648 L 312 712 L 248 712 Z M 248 648 "/>
<path fill-rule="nonzero" fill="rgb(68.627451%, 93.333333%, 93.333333%)" fill-opacity="1" d="M 328 648 L 392 648 L 392 712 L 328 712 Z M 328 648 "/>
<path fill-rule="nonzero" fill="rgb(69.019608%, 87.843137%, 90.196078%)" fill-opacity="1" d="M 408 648 L 472 648 L 472 712 L 408 712 Z M 408 648 "/>
<path fill-rule="nonzero" fill="rgb(67.843137%, 84.705882%, 90.196078%)" fill-opacity="1" d="M 488 648 L 552 648 L 552 712 L 488 712 Z M 488 648 "/>
<path fill-rule="nonzero" fill="rgb(52.941176%, 80.784314%, 98.039216%)" fill-opacity="1" d="M 568 648 L 632 648 L 632 712 L 568 712 Z M 568 648 "/>
<path fill-rule="nonzero" fill="rgb(52.941176%, 80.784314%, 92.156863%)" fill-opacity="1" d="M 648 648 L 712 648 L 712 712 L 648 712 Z M 648 648 "/>
<path fill-rule="nonzero" fill="rgb(0%, 80.784314%, 81.960784%)" fill-opacity="1" d="M 728 648 L 792 648 L 792 712 L 728 712 Z M 728 648 "/>
<path fill-rule="nonzero" fill="rgb(0%, 74.901961%, 100%)" fill-opacity="1" d="M 808 648 L 872 648 L 872 712 L 808 712 Z M 808 648 "/>
<path fill-rule="nonzero" fill="rgb(37.254902%, 61.960784%, 62.745098%)" fill-opacity="1" d="M 8 728 L 72 728 L 72 792 L 8 792 Z M 8 728 "/>
<path fill-rule="nonzero" fill="rgb(11.764706%, 56.470588%, 100%)" fill-opacity="1" d="M 88 728 L 152 728 L 152 792 L 88 792 Z M 88 728 "/>
<path fill-rule="nonzero" fill="rgb(27.45098%, 50.980392%, 70.588235%)" fill-opacity="1" d="M 168 728 L 232 728 L 232 792 L 168 792 Z M 168 728 "/>
<path fill-rule="nonzero" fill="rgb(0%, 54.509804%, 54.509804%)" fill-opacity="1" d="M 248 728 L 312 728 L 312 792 L 248 792 Z M 248 728 "/>
<path fill-rule="nonzero" fill="rgb(0%, 50.196078%, 50.196078%)" fill-opacity="1" d="M 328 728 L 392 728 L 392 792 L 328 792 Z M 328 728 "/>
<path fill-rule="nonzero" fill="rgb(18.431373%, 30.980392%, 30.980392%)" fill-opacity="1" d="M 408 728 L 472 728 L 472 792 L 408 792 Z M 408 728 "/>
<path fill-rule="nonzero" fill="rgb(69.019608%, 76.862745%, 87.058824%)" fill-opacity="1" d="M 488 728 L 552 728 L 552 792 L 488 792 Z M 488 728 "/>
<path fill-rule="nonzero" fill="rgb(39.215686%, 58.431373%, 92.941176%)" fill-opacity="1" d="M 568 728 L 632 728 L 632 792 L 568 792 Z M 568 728 "/>
<path fill-rule="nonzero" fill="rgb(46.666667%, 53.333333%, 60%)" fill-opacity="1" d="M 648 728 L 712 728 L 712 792 L 648 792 Z M 648 728 "/>
<path fill-rule="nonzero" fill="rgb(43.921569%, 50.196078%, 56.470588%)" fill-opacity="1" d="M 728 728 L 792 728 L 792 792 L 728 792 Z M 728 728 "/>
<path fill-rule="nonzero" fill="rgb(25.490196%, 41.176471%, 88.235294%)" fill-opacity="1" d="M 808 728 L 872 728 L 872 792 L 808 792 Z M 808 728 "/>
<path fill-rule="nonzero" fill="rgb(57.647059%, 43.921569%, 85.882353%)" fill-opacity="1" d="M 8 808 L 72 808 L 72 872 L 8 872 Z M 8 808 "/>
<path fill-rule="nonzero" fill="rgb(48.235294%, 40.784314%, 93.333333%)" fill-opacity="1" d="M 88 808 L 152 808 L 152 872 L 88 872 Z M 88 808 "/>
<path fill-rule="nonzero" fill="rgb(41.568627%, 35.294118%, 80.392157%)" fill-opacity="1" d="M 168 808 L 232 808 L 232 872 L 168 872 Z M 168 808 "/>
<path fill-rule="nonzero" fill="rgb(0%, 0%, 100%)" fill-opacity="1" d="M 248 808 L 312 808 L 312 872 L 248 872 Z M 248 808 "/>
<path fill-rule="nonzero" fill="rgb(28.235294%, 23.921569%, 54.509804%)" fill-opacity="1" d="M 328 808 L 392 808 L 392 872 L 328 872 Z M 328 808 "/>
<path fill-rule="nonzero" fill="rgb(0%, 0%, 80.392157%)" fill-opacity="1" d="M 408 808 L 472 808 L 472 872 L 408 872 Z M 408 808 "/>
<path fill-rule="nonzero" fill="rgb(9.803922%, 9.803922%, 43.921569%)" fill-opacity="1" d="M 488 808 L 552 808 L 552 872 L 488 872 Z M 488 808 "/>
<path fill-rule="nonzero" fill="rgb(0%, 0%, 54.509804%)" fill-opacity="1" d="M 568 808 L 632 808 L 632 872 L 568 872 Z M 568 808 "/>
<path fill-rule="nonzero" fill="rgb(0%, 0%, 50.196078%)" fill-opacity="1" d="M 648 808 L 712 808 L 712 872 L 648 872 Z M 648 808 "/>
<path fill-rule="nonzero" fill="rgb(72.941176%, 33.333333%, 82.745098%)" fill-opacity="1" d="M 728 808 L 792 808 L 792 872 L 728 872 Z M 728 808 "/>
<path fill-rule="nonzero" fill="rgb(60%, 19.607843%, 80%)" fill-opacity="1" d="M 808 808 L 872 808 L 872 872 L 808 872 Z M 808 808 "/>
<path fill-rule="nonzero" fill="rgb(54.117647%, 16.862745%, 88.627451%)" fill-opacity="1" d="M 8 888 L 72 888 L 72 952 L 8 952 Z M 8 888 "/>
<path fill-rule="nonzero" fill="rgb(58.039216%, 0%, 82.745098%)" fill-opacity="1" d="M 88 888 L 152 888 L 152 952 L 88 952 Z M 88 888 "/>
<path fill-rule="nonzero" fill="rgb(29.411765%, 0%, 50.980392%)" fill-opacity="1" d="M 168 888 L 232 888 L 232 952 L 168 952 Z M 168 888 "/>
<path fill-rule="nonzero" fill="rgb(86.666667%, 62.745098%, 86.666667%)" fill-opacity="1" d="M 248 888 L 312 888 L 312 952 L 248 952 Z M 248 888 "/>
<path fill-rule="nonzero" fill="rgb(93.333333%, 50.980392%, 93.333333%)" fill-opacity="1" d="M 328 888 L 392 888 L 392 952 L 328 952 Z M 328 888 "/>
<path fill-rule="nonzero" fill="rgb(85.490196%, 43.921569%, 83.921569%)" fill-opacity="1" d="M 408 888 L 472 888 L 472 952 L 408 952 Z M 408 888 "/>
<path fill-rule="nonzero" fill="rgb(100%, 0%, 100%)" fill-opacity="1" d="M 488 888 L 552 888 L 552 952 L 488 952 Z M 488 888 "/>
<path fill-rule="nonzero" fill="rgb(100%, 7.843137%, 57.647059%)" fill-opacity="1" d="M 568 888 L 632 888 L 632 952 L 568 952 Z M 568 888 "/>
<path fill-rule="nonzero" fill="rgb(78.039216%, 8.235294%, 52.156863%)" fill-opacity="1" d="M 648 888 L 712 888 L 712 952 L 648 952 Z M 648 888 "/>
<path fill-rule="nonzero" fill="rgb(54.509804%, 0%, 54.509804%)" fill-opacity="1" d="M 728 888 L 792 888 L 792 952 L 728 952 Z M 728 888 "/>
<path fill-rule="nonzero" fill="rgb(50.196078%, 0%, 50.196078%)" fill-opacity="1" d="M 808 888 L 872 888 L 872 952 L 808 952 Z M 808 888 "/>
<path fill-rule="nonzero" fill="rgb(100%, 75.294118%, 79.607843%)" fill-opacity="1" d="M 8 968 L 72 968 L 72 1032 L 8 1032 Z M 8 968 "/>
<path fill-rule="nonzero" fill="rgb(100%, 71.372549%, 75.686275%)" fill-opacity="1" d="M 88 968 L 152 968 L 152 1032 L 88 1032 Z M 88 968 "/>
<path fill-rule="nonzero" fill="rgb(100%, 41.176471%, 70.588235%)" fill-opacity="1" d="M 168 968 L 232 968 L 232 1032 L 168 1032 Z M 168 968 "/>
<path fill-rule="nonzero" fill="rgb(85.882353%, 43.921569%, 57.647059%)" fill-opacity="1" d="M 248 968 L 312 968 L 312 1032 L 248 1032 Z M 248 968 "/>
<path fill-rule="nonzero" fill="rgb(86.27451%, 7.843137%, 23.529412%)" fill-opacity="1" d="M 328 968 L 392 968 L 392 1032 L 328 1032 Z M 328 968 "/>
</g>
</defs>
<use xlink:href="#source-7"/>
</svg>
