<svg viewBox="0 0 480.0 688" xmlns="http://www.w3.org/2000/svg"><g id="color-stacks"><g id="stack-0"><circle id="circle-696969" cx="32.0" cy="32.0" r="16.0" stroke="none" fill="#696969" /><circle id="circle-000000" cx="48.0" cy="32.0" r="16.0" stroke="none" fill="#000000" /></g><g id="stack-1"><circle id="circle-ffffff" cx="32.0" cy="80.0" r="16.0" stroke="none" fill="#ffffff" /><circle id="circle-fffff0" cx="48.0" cy="80.0" r="16.0" stroke="none" fill="#fffff0" /><circle id="circle-ffffe0" cx="64.0" cy="80.0" r="16.0" stroke="none" fill="#ffffe0" /><circle id="circle-f5fffa" cx="80.0" cy="80.0" r="16.0" stroke="none" fill="#f5fffa" /><circle id="circle-f0ffff" cx="96.0" cy="80.0" r="16.0" stroke="none" fill="#f0ffff" /><circle id="circle-fffafa" cx="112.0" cy="80.0" r="16.0" stroke="none" fill="#fffafa" /><circle id="circle-f0fff0" cx="128.0" cy="80.0" r="16.0" stroke="none" fill="#f0fff0" /><circle id="circle-fffaf0" cx="144.0" cy="80.0" r="16.0" stroke="none" fill="#fffaf0" /><circle id="circle-e0ffff" cx="160.0" cy="80.0" r="16.0" stroke="none" fill="#e0ffff" /><circle id="circle-f8f8ff" cx="176.0" cy="80.0" r="16.0" stroke="none" fill="#f8f8ff" /><circle id="circle-fff8dc" cx="192.0" cy="80.0" r="16.0" stroke="none" fill="#fff8dc" /><circle id="circle-f0f8ff" cx="208.0" cy="80.0" r="16.0" stroke="none" fill="#f0f8ff" /><circle id="circle-fff5ee" cx="224.0" cy="80.0" r="16.0" stroke="none" fill="#fff5ee" /><circle id="circle-fdf5e6" cx="240.0" cy="80.0" r="16.0" stroke="none" fill="#fdf5e6" /><circle id="circle-f5f5f5" cx="256.0" cy="80.0" r="16.0" stroke="none" fill="#f5f5f5" /><circle id="circle-fff0f5" cx="272.0" cy="80.0" r="16.0" stroke="none" fill="#fff0f5" /><circle id="circle-f5f5dc" cx="288.0" cy="80.0" r="16.0" stroke="none" fill="#f5f5dc" /><circle id="circle-faf0e6" cx="304.0" cy="80.0" r="16.0" stroke="none" fill="#faf0e6" /><circle id="circle-faebd7" cx="320.0" cy="80.0" r="16.0" stroke="none" fill="#faebd7" /><circle id="circle-ffe4e1" cx="336.0" cy="80.0" r="16.0" stroke="none" fill="#ffe4e1" /><circle id="circle-e6e6fa" cx="352.0" cy="80.0" r="16.0" stroke="none" fill="#e6e6fa" /><circle id="circle-dcdcdc" cx="368.0" cy="80.0" r="16.0" stroke="none" fill="#dcdcdc" /><circle id="circle-d3d3d3" cx="384.0" cy="80.0" r="16.0" stroke="none" fill="#d3d3d3" /><circle id="circle-d8bfd8" cx="400.0" cy="80.0" r="16.0" stroke="none" fill="#d8bfd8" /><circle id="circle-c0c0c0" cx="416.0" cy="80.0" r="16.0" stroke="none" fill="#c0c0c0" /><circle id="circle-a9a9a9" cx="432.0" cy="80.0" r="16.0" stroke="none" fill="#a9a9a9" /><circle id="circle-808080" cx="448.0" cy="80.0" r="16.0" stroke="none" fill="#808080" /></g><g id="stack-2"><circle id="circle-ffdab9" cx="32.0" cy="128.0" r="16.0" stroke="none" fill="#ffdab9" /><circle id="circle-ffa07a" cx="48.0" cy="128.0" r="16.0" stroke="none" fill="#ffa07a" /><circle id="circle-f4a460" cx="64.0" cy="128.0" r="16.0" stroke="none" fill="#f4a460" /><circle id="circle-e9967a" cx="80.0" cy="128.0" r="16.0" stroke="none" fill="#e9967a" /><circle id="circle-ff7f50" cx="96.0" cy="128.0" r="16.0" stroke="none" fill="#ff7f50" /><circle id="circle-fa8072" cx="112.0" cy="128.0" r="16.0" stroke="none" fill="#fa8072" /><circle id="circle-f08080" cx="128.0" cy="128.0" r="16.0" stroke="none" fill="#f08080" /><circle id="circle-bc8f8f" cx="144.0" cy="128.0" r="16.0" stroke="none" fill="#bc8f8f" /><circle id="circle-ff6347" cx="160.0" cy="128.0" r="16.0" stroke="none" fill="#ff6347" /><circle id="circle-cd853f" cx="176.0" cy="128.0" r="16.0" stroke="none" fill="#cd853f" /><circle id="circle-ff4500" cx="192.0" cy="128.0" r="16.0" stroke="none" fill="#ff4500" /><circle id="circle-d2691e" cx="208.0" cy="128.0" r="16.0" stroke="none" fill="#d2691e" /><circle id="circle-cd5c5c" cx="224.0" cy="128.0" r="16.0" stroke="none" fill="#cd5c5c" /><circle id="circle-ff0000" cx="240.0" cy="128.0" r="16.0" stroke="none" fill="#ff0000" /><circle id="circle-a0522d" cx="256.0" cy="128.0" r="16.0" stroke="none" fill="#a0522d" /><circle id="circle-b22222" cx="272.0" cy="128.0" r="16.0" stroke="none" fill="#b22222" /><circle id="circle-a52a2a" cx="288.0" cy="128.0" r="16.0" stroke="none" fill="#a52a2a" /><circle id="circle-8b4513" cx="304.0" cy="128.0" r="16.0" stroke="none" fill="#8b4513" /><circle id="circle-8b0000" cx="320.0" cy="128.0" r="16.0" stroke="none" fill="#8b0000" /><circle id="circle-800000" cx="336.0" cy="128.0" r="16.0" stroke="none" fill="#800000" /></g><g id="stack-3"><circle id="circle-fffacd" cx="32.0" cy="176.0" r="16.0" stroke="none" fill="#fffacd" /><circle id="circle-ffefd5" cx="48.0" cy="176.0" r="16.0" stroke="none" fill="#ffefd5" /><circle id="circle-ffebcd" cx="64.0" cy="176.0" r="16.0" stroke="none" fill="#ffebcd" /><circle id="circle-ffe4c4" cx="80.0" cy="176.0" r="16.0" stroke="none" fill="#ffe4c4" /><circle id="circle-ffe4b5" cx="96.0" cy="176.0" r="16.0" stroke="none" fill="#ffe4b5" /><circle id="circle-eee8aa" cx="112.0" cy="176.0" r="16.0" stroke="none" fill="#eee8aa" /><circle id="circle-f0e68c" cx="128.0" cy="176.0" r="16.0" stroke="none" fill="#f0e68c" /><circle id="circle-ffdead" cx="144.0" cy="176.0" r="16.0" stroke="none" fill="#ffdead" /><circle id="circle-f5deb3" cx="160.0" cy="176.0" r="16.0" stroke="none" fill="#f5deb3" /><circle id="circle-ffd700" cx="176.0" cy="176.0" r="16.0" stroke="none" fill="#ffd700" /><circle id="circle-deb887" cx="192.0" cy="176.0" r="16.0" stroke="none" fill="#deb887" /><circle id="circle-d2b48c" cx="208.0" cy="176.0" r="16.0" stroke="none" fill="#d2b48c" /><circle id="circle-ffa500" cx="224.0" cy="176.0" r="16.0" stroke="none" fill="#ffa500" /><circle id="circle-bdb76b" cx="240.0" cy="176.0" r="16.0" stroke="none" fill="#bdb76b" /><circle id="circle-daa520" cx="256.0" cy="176.0" r="16.0" stroke="none" fill="#daa520" /><circle id="circle-ff8c00" cx="272.0" cy="176.0" r="16.0" stroke="none" fill="#ff8c00" /></g><g id="stack-4"><circle id="circle-fafad2" cx="32.0" cy="224.0" r="16.0" stroke="none" fill="#fafad2" /><circle id="circle-ffff00" cx="48.0" cy="224.0" r="16.0" stroke="none" fill="#ffff00" /><circle id="circle-adff2f" cx="64.0" cy="224.0" r="16.0" stroke="none" fill="#adff2f" /><circle id="circle-9acd32" cx="80.0" cy="224.0" r="16.0" stroke="none" fill="#9acd32" /><circle id="circle-6b8e23" cx="96.0" cy="224.0" r="16.0" stroke="none" fill="#6b8e23" /><circle id="circle-808000" cx="112.0" cy="224.0" r="16.0" stroke="none" fill="#808000" /><circle id="circle-556b2f" cx="128.0" cy="224.0" r="16.0" stroke="none" fill="#556b2f" /></g><g id="stack-5"><circle id="circle-7fff00" cx="32.0" cy="272.0" r="16.0" stroke="none" fill="#7fff00" /><circle id="circle-7cfc00" cx="48.0" cy="272.0" r="16.0" stroke="none" fill="#7cfc00" /></g><g id="stack-6"><circle id="circle-98fb98" cx="32.0" cy="320.0" r="16.0" stroke="none" fill="#98fb98" /><circle id="circle-00ff7f" cx="48.0" cy="320.0" r="16.0" stroke="none" fill="#00ff7f" /><circle id="circle-00ff00" cx="64.0" cy="320.0" r="16.0" stroke="none" fill="#00ff00" /><circle id="circle-90ee90" cx="80.0" cy="320.0" r="16.0" stroke="none" fill="#90ee90" /><circle id="circle-32cd32" cx="96.0" cy="320.0" r="16.0" stroke="none" fill="#32cd32" /><circle id="circle-8fbc8f" cx="112.0" cy="320.0" r="16.0" stroke="none" fill="#8fbc8f" /><circle id="circle-3cb371" cx="128.0" cy="320.0" r="16.0" stroke="none" fill="#3cb371" /><circle id="circle-2e8b57" cx="144.0" cy="320.0" r="16.0" stroke="none" fill="#2e8b57" /><circle id="circle-228b22" cx="160.0" cy="320.0" r="16.0" stroke="none" fill="#228b22" /><circle id="circle-008000" cx="176.0" cy="320.0" r="16.0" stroke="none" fill="#008000" /><circle id="circle-006400" cx="192.0" cy="320.0" r="16.0" stroke="none" fill="#006400" /></g><g id="stack-7"><circle id="circle-7fffd4" cx="32.0" cy="368.0" r="16.0" stroke="none" fill="#7fffd4" /><circle id="circle-00fa9a" cx="48.0" cy="368.0" r="16.0" stroke="none" fill="#00fa9a" /><circle id="circle-40e0d0" cx="64.0" cy="368.0" r="16.0" stroke="none" fill="#40e0d0" /><circle id="circle-48d1cc" cx="80.0" cy="368.0" r="16.0" stroke="none" fill="#48d1cc" /><circle id="circle-66cdaa" cx="96.0" cy="368.0" r="16.0" stroke="none" fill="#66cdaa" /><circle id="circle-20b2aa" cx="112.0" cy="368.0" r="16.0" stroke="none" fill="#20b2aa" /></g><g id="stack-8"><circle id="circle-00ffff" cx="32.0" cy="416.0" r="16.0" stroke="none" fill="#00ffff" /><circle id="circle-afeeee" cx="48.0" cy="416.0" r="16.0" stroke="none" fill="#afeeee" /><circle id="circle-b0e0e6" cx="64.0" cy="416.0" r="16.0" stroke="none" fill="#b0e0e6" /><circle id="circle-add8e6" cx="80.0" cy="416.0" r="16.0" stroke="none" fill="#add8e6" /><circle id="circle-87cefa" cx="96.0" cy="416.0" r="16.0" stroke="none" fill="#87cefa" /><circle id="circle-87ceeb" cx="112.0" cy="416.0" r="16.0" stroke="none" fill="#87ceeb" /><circle id="circle-00ced1" cx="128.0" cy="416.0" r="16.0" stroke="none" fill="#00ced1" /><circle id="circle-00bfff" cx="144.0" cy="416.0" r="16.0" stroke="none" fill="#00bfff" /><circle id="circle-5f9ea0" cx="160.0" cy="416.0" r="16.0" stroke="none" fill="#5f9ea0" /><circle id="circle-1e90ff" cx="176.0" cy="416.0" r="16.0" stroke="none" fill="#1e90ff" /><circle id="circle-4682b4" cx="192.0" cy="416.0" r="16.0" stroke="none" fill="#4682b4" /><circle id="circle-008b8b" cx="208.0" cy="416.0" r="16.0" stroke="none" fill="#008b8b" /><circle id="circle-008080" cx="224.0" cy="416.0" r="16.0" stroke="none" fill="#008080" /><circle id="circle-2f4f4f" cx="240.0" cy="416.0" r="16.0" stroke="none" fill="#2f4f4f" /></g><g id="stack-9"><circle id="circle-b0c4de" cx="32.0" cy="464.0" r="16.0" stroke="none" fill="#b0c4de" /><circle id="circle-6495ed" cx="48.0" cy="464.0" r="16.0" stroke="none" fill="#6495ed" /><circle id="circle-778899" cx="64.0" cy="464.0" r="16.0" stroke="none" fill="#778899" /><circle id="circle-708090" cx="80.0" cy="464.0" r="16.0" stroke="none" fill="#708090" /><circle id="circle-4169e1" cx="96.0" cy="464.0" r="16.0" stroke="none" fill="#4169e1" /></g><g id="stack-10"><circle id="circle-9370db" cx="32.0" cy="512.0" r="16.0" stroke="none" fill="#9370db" /><circle id="circle-7b68ee" cx="48.0" cy="512.0" r="16.0" stroke="none" fill="#7b68ee" /><circle id="circle-6a5acd" cx="64.0" cy="512.0" r="16.0" stroke="none" fill="#6a5acd" /><circle id="circle-0000ff" cx="80.0" cy="512.0" r="16.0" stroke="none" fill="#0000ff" /><circle id="circle-483d8b" cx="96.0" cy="512.0" r="16.0" stroke="none" fill="#483d8b" /><circle id="circle-0000cd" cx="112.0" cy="512.0" r="16.0" stroke="none" fill="#0000cd" /><circle id="circle-191970" cx="128.0" cy="512.0" r="16.0" stroke="none" fill="#191970" /><circle id="circle-00008b" cx="144.0" cy="512.0" r="16.0" stroke="none" fill="#00008b" /><circle id="circle-000080" cx="160.0" cy="512.0" r="16.0" stroke="none" fill="#000080" /></g><g id="stack-11"><circle id="circle-ba55d3" cx="32.0" cy="560.0" r="16.0" stroke="none" fill="#ba55d3" /><circle id="circle-9932cc" cx="48.0" cy="560.0" r="16.0" stroke="none" fill="#9932cc" /><circle id="circle-8a2be2" cx="64.0" cy="560.0" r="16.0" stroke="none" fill="#8a2be2" /><circle id="circle-9400d3" cx="80.0" cy="560.0" r="16.0" stroke="none" fill="#9400d3" /><circle id="circle-4b0082" cx="96.0" cy="560.0" r="16.0" stroke="none" fill="#4b0082" /></g><g id="stack-12"><circle id="circle-dda0dd" cx="32.0" cy="608.0" r="16.0" stroke="none" fill="#dda0dd" /><circle id="circle-ee82ee" cx="48.0" cy="608.0" r="16.0" stroke="none" fill="#ee82ee" /><circle id="circle-da70d6" cx="64.0" cy="608.0" r="16.0" stroke="none" fill="#da70d6" /><circle id="circle-ff00ff" cx="80.0" cy="608.0" r="16.0" stroke="none" fill="#ff00ff" /><circle id="circle-ff1493" cx="96.0" cy="608.0" r="16.0" stroke="none" fill="#ff1493" /><circle id="circle-c71585" cx="112.0" cy="608.0" r="16.0" stroke="none" fill="#c71585" /><circle id="circle-8b008b" cx="128.0" cy="608.0" r="16.0" stroke="none" fill="#8b008b" /><circle id="circle-800080" cx="144.0" cy="608.0" r="16.0" stroke="none" fill="#800080" /></g><g id="stack-13"><circle id="circle-ffc0cb" cx="32.0" cy="656.0" r="16.0" stroke="none" fill="#ffc0cb" /><circle id="circle-ffb6c1" cx="48.0" cy="656.0" r="16.0" stroke="none" fill="#ffb6c1" /><circle id="circle-ff69b4" cx="64.0" cy="656.0" r="16.0" stroke="none" fill="#ff69b4" /><circle id="circle-db7093" cx="80.0" cy="656.0" r="16.0" stroke="none" fill="#db7093" /><circle id="circle-dc143c" cx="96.0" cy="656.0" r="16.0" stroke="none" fill="#dc143c" /></g></g></svg>