<svg viewBox="0 0 880 1040" xmlns="http://www.w3.org/2000/svg"><g id="square-grid"><rect id="square-ffffff" x="8.0" y="8.0" width="64" height="64" fill="#ffffff" /><rect id="square-fffff0" x="88.0" y="8.0" width="64" height="64" fill="#fffff0" /><rect id="square-ffffe0" x="168.0" y="8.0" width="64" height="64" fill="#ffffe0" /><rect id="square-f5fffa" x="248.0" y="8.0" width="64" height="64" fill="#f5fffa" /><rect id="square-f0ffff" x="328.0" y="8.0" width="64" height="64" fill="#f0ffff" /><rect id="square-fffafa" x="408.0" y="8.0" width="64" height="64" fill="#fffafa" /><rect id="square-f0fff0" x="488.0" y="8.0" width="64" height="64" fill="#f0fff0" /><rect id="square-fffaf0" x="568.0" y="8.0" width="64" height="64" fill="#fffaf0" /><rect id="square-e0ffff" x="648.0" y="8.0" width="64" height="64" fill="#e0ffff" /><rect id="square-f8f8ff" x="728.0" y="8.0" width="64" height="64" fill="#f8f8ff" /><rect id="square-fff8dc" x="808.0" y="8.0" width="64" height="64" fill="#fff8dc" /><rect id="square-f0f8ff" x="8.0" y="88.0" width="64" height="64" fill="#f0f8ff" /><rect id="square-fff5ee" x="88.0" y="88.0" width="64" height="64" fill="#fff5ee" /><rect id="square-fdf5e6" x="168.0" y="88.0" width="64" height="64" fill="#fdf5e6" /><rect id="square-f5f5f5" x="248.0" y="88.0" width="64" height="64" fill="#f5f5f5" /><rect id="square-fff0f5" x="328.0" y="88.0" width="64" height="64" fill="#fff0f5" /><rect id="square-f5f5dc" x="408.0" y="88.0" width="64" height="64" fill="#f5f5dc" /><rect id="square-faf0e6" x="488.0" y="88.0" width="64" height="64" fill="#faf0e6" /><rect id="square-faebd7" x="568.0" y="88.0" width="64" height="64" fill="#faebd7" /><rect id="square-ffe4e1" x="648.0" y="88.0" width="64" height="64" fill="#ffe4e1" /><rect id="square-e6e6fa" x="728.0" y="88.0" width="64" height="64" fill="#e6e6fa" /><rect id="square-dcdcdc" x="808.0" y="88.0" width="64" height="64" fill="#dcdcdc" /><rect id="square-d3d3d3" x="8.0" y="168.0" width="64" height="64" fill="#d3d3d3" /><rect id="square-d8bfd8" x="88.0" y="168.0" width="64" height="64" fill="#d8bfd8" /><rect id="square-c0c0c0" x="168.0" y="168.0" width="64" height="64" fill="#c0c0c0" /><rect id="square-a9a9a9" x="248.0" y="168.0" width="64" height="64" fill="#a9a9a9" /><rect id="square-808080" x="328.0" y="168.0" width="64" height="64" fill="#808080" /><rect id="square-696969" x="408.0" y="168.0" width="64" height="64" fill="#696969" /><rect id="square-000000" x="488.0" y="168.0" width="64" height="64" fill="#000000" /><rect id="square-ffdab9" x="568.0" y="168.0" width="64" height="64" fill="#ffdab9" /><rect id="square-ffa07a" x="648.0" y="168.0" width="64" height="64" fill="#ffa07a" /><rect id="square-f4a460" x="728.0" y="168.0" width="64" height="64" fill="#f4a460" /><rect id="square-e9967a" x="808.0" y="168.0" width="64" height="64" fill="#e9967a" /><rect id="square-ff7f50" x="8.0" y="248.0" width="64" height="64" fill="#ff7f50" /><rect id="square-fa8072" x="88.0" y="248.0" width="64" height="64" fill="#fa8072" /><rect id="square-f08080" x="168.0" y="248.0" width="64" height="64" fill="#f08080" /><rect id="square-bc8f8f" x="248.0" y="248.0" width="64" height="64" fill="#bc8f8f" /><rect id="square-ff6347" x="328.0" y="248.0" width="64" height="64" fill="#ff6347" /><rect id="square-cd853f" x="408.0" y="248.0" width="64" height="64" fill="#cd853f" /><rect id="square-ff4500" x="488.0" y="248.0" width="64" height="64" fill="#ff4500" /><rect id="square-d2691e" x="568.0" y="248.0" width="64" height="64" fill="#d2691e" /><rect id="square-cd5c5c" x="648.0" y="248.0" width="64" height="64" fill="#cd5c5c" /><rect id="square-ff0000" x="728.0" y="248.0" width="64" height="64" fill="#ff0000" /><rect id="square-a0522d" x="808.0" y="248.0" width="64" height="64" fill="#a0522d" /><rect id="square-b22222" x="8.0" y="328.0" width="64" height="64" fill="#b22222" /><rect id="square-a52a2a" x="88.0" y="328.0" width="64" height="64" fill="#a52a2a" /><rect id="square-8b4513" x="168.0" y="328.0" width="64" height="64" fill="#8b4513" /><rect id="square-8b0000" x="248.0" y="328.0" width="64" height="64" fill="#8b0000" /><rect id="square-800000" x="328.0" y="328.0" width="64" height="64" fill="#800000" /><rect id="square-fffacd" x="408.0" y="328.0" width="64" height="64" fill="#fffacd" /><rect id="square-ffefd5" x="488.0" y="328.0" width="64" height="64" fill="#ffefd5" /><rect id="square-ffebcd" x="568.0" y="328.0" width="64" height="64" fill="#ffebcd" /><rect id="square-ffe4c4" x="648.0" y="328.0" width="64" height="64" fill="#ffe4c4" /><rect id="square-ffe4b5" x="728.0" y="328.0" width="64" height="64" fill="#ffe4b5" /><rect id="square-eee8aa" x="808.0" y="328.0" width="64" height="64" fill="#eee8aa" /><rect id="square-f0e68c" x="8.0" y="408.0" width="64" height="64" fill="#f0e68c" /><rect id="square-ffdead" x="88.0" y="408.0" width="64" height="64" fill="#ffdead" /><rect id="square-f5deb3" x="168.0" y="408.0" width="64" height="64" fill="#f5deb3" /><rect id="square-ffd700" x="248.0" y="408.0" width="64" height="64" fill="#ffd700" /><rect id="square-deb887" x="328.0" y="408.0" width="64" height="64" fill="#deb887" /><rect id="square-d2b48c" x="408.0" y="408.0" width="64" height="64" fill="#d2b48c" /><rect id="square-ffa500" x="488.0" y="408.0" width="64" height="64" fill="#ffa500" /><rect id="square-bdb76b" x="568.0" y="408.0" width="64" height="64" fill="#bdb76b" /><rect id="square-daa520" x="648.0" y="408.0" width="64" height="64" fill="#daa520" /><rect id="square-ff8c00" x="728.0" y="408.0" width="64" height="64" fill="#ff8c00" /><rect id="square-fafad2" x="808.0" y="408.0" width="64" height="64" fill="#fafad2" /><rect id="square-ffff00" x="8.0" y="488.0" width="64" height="64" fill="#ffff00" /><rect id="square-adff2f" x="88.0" y="488.0" width="64" height="64" fill="#adff2f" /><rect id="square-9acd32" x="168.0" y="488.0" width="64" height="64" fill="#9acd32" /><rect id="square-6b8e23" x="248.0" y="488.0" width="64" height="64" fill="#6b8e23" /><rect id="square-808000" x="328.0" y="488.0" width="64" height="64" fill="#808000" /><rect id="square-556b2f" x="408.0" y="488.0" width="64" height="64" fill="#556b2f" /><rect id="square-7fff00" x="488.0" y="488.0" width="64" height="64" fill="#7fff00" /><rect id="square-7cfc00" x="568.0" y="488.0" width="64" height="64" fill="#7cfc00" /><rect id="square-98fb98" x="648.0" y="488.0" width="64" height="64" fill="#98fb98" /><rect id="square-00ff7f" x="728.0" y="488.0" width="64" height="64" fill="#00ff7f" /><rect id="square-00ff00" x="808.0" y="488.0" width="64" height="64" fill="#00ff00" /><rect id="square-90ee90" x="8.0" y="568.0" width="64" height="64" fill="#90ee90" /><rect id="square-32cd32" x="88.0" y="568.0" width="64" height="64" fill="#32cd32" /><rect id="square-8fbc8f" x="168.0" y="568.0" width="64" height="64" fill="#8fbc8f" /><rect id="square-3cb371" x="248.0" y="568.0" width="64" height="64" fill="#3cb371" /><rect id="square-2e8b57" x="328.0" y="568.0" width="64" height="64" fill="#2e8b57" /><rect id="square-228b22" x="408.0" y="568.0" width="64" height="64" fill="#228b22" /><rect id="square-008000" x="488.0" y="568.0" width="64" height="64" fill="#008000" /><rect id="square-006400" x="568.0" y="568.0" width="64" height="64" fill="#006400" /><rect id="square-7fffd4" x="648.0" y="568.0" width="64" height="64" fill="#7fffd4" /><rect id="square-00fa9a" x="728.0" y="568.0" width="64" height="64" fill="#00fa9a" /><rect id="square-40e0d0" x="808.0" y="568.0" width="64" height="64" fill="#40e0d0" /><rect id="square-48d1cc" x="8.0" y="648.0" width="64" height="64" fill="#48d1cc" /><rect id="square-66cdaa" x="88.0" y="648.0" width="64" height="64" fill="#66cdaa" /><rect id="square-20b2aa" x="168.0" y="648.0" width="64" height="64" fill="#20b2aa" /><rect id="square-00ffff" x="248.0" y="648.0" width="64" height="64" fill="#00ffff" /><rect id="square-afeeee" x="328.0" y="648.0" width="64" height="64" fill="#afeeee" /><rect id="square-b0e0e6" x="408.0" y="648.0" width="64" height="64" fill="#b0e0e6" /><rect id="square-add8e6" x="488.0" y="648.0" width="64" height="64" fill="#add8e6" /><rect id="square-87cefa" x="568.0" y="648.0" width="64" height="64" fill="#87cefa" /><rect id="square-87ceeb" x="648.0" y="648.0" width="64" height="64" fill="#87ceeb" /><rect id="square-00ced1" x="728.0" y="648.0" width="64" height="64" fill="#00ced1" /><rect id="square-00bfff" x="808.0" y="648.0" width="64" height="64" fill="#00bfff" /><rect id="square-5f9ea0" x="8.0" y="728.0" width="64" height="64" fill="#5f9ea0" /><rect id="square-1e90ff" x="88.0" y="728.0" width="64" height="64" fill="#1e90ff" /><rect id="square-4682b4" x="168.0" y="728.0" width="64" height="64" fill="#4682b4" /><rect id="square-008b8b" x="248.0" y="728.0" width="64" height="64" fill="#008b8b" /><rect id="square-008080" x="328.0" y="728.0" width="64" height="64" fill="#008080" /><rect id="square-2f4f4f" x="408.0" y="728.0" width="64" height="64" fill="#2f4f4f" /><rect id="square-b0c4de" x="488.0" y="728.0" width="64" height="64" fill="#b0c4de" /><rect id="square-6495ed" x="568.0" y="728.0" width="64" height="64" fill="#6495ed" /><rect id="square-778899" x="648.0" y="728.0" width="64" height="64" fill="#778899" /><rect id="square-708090" x="728.0" y="728.0" width="64" height="64" fill="#708090" /><rect id="square-4169e1" x="808.0" y="728.0" width="64" height="64" fill="#4169e1" /><rect id="square-9370db" x="8.0" y="808.0" width="64" height="64" fill="#9370db" /><rect id="square-7b68ee" x="88.0" y="808.0" width="64" height="64" fill="#7b68ee" /><rect id="square-6a5acd" x="168.0" y="808.0" width="64" height="64" fill="#6a5acd" /><rect id="square-0000ff" x="248.0" y="808.0" width="64" height="64" fill="#0000ff" /><rect id="square-483d8b" x="328.0" y="808.0" width="64" height="64" fill="#483d8b" /><rect id="square-0000cd" x="408.0" y="808.0" width="64" height="64" fill="#0000cd" /><rect id="square-191970" x="488.0" y="808.0" width="64" height="64" fill="#191970" /><rect id="square-00008b" x="568.0" y="808.0" width="64" height="64" fill="#00008b" /><rect id="square-000080" x="648.0" y="808.0" width="64" height="64" fill="#000080" /><rect id="square-ba55d3" x="728.0" y="808.0" width="64" height="64" fill="#ba55d3" /><rect id="square-9932cc" x="808.0" y="808.0" width="64" height="64" fill="#9932cc" /><rect id="square-8a2be2" x="8.0" y="888.0" width="64" height="64" fill="#8a2be2" /><rect id="square-9400d3" x="88.0" y="888.0" width="64" height="64" fill="#9400d3" /><rect id="square-4b0082" x="168.0" y="888.0" width="64" height="64" fill="#4b0082" /><rect id="square-dda0dd" x="248.0" y="888.0" width="64" height="64" fill="#dda0dd" /><rect id="square-ee82ee" x="328.0" y="888.0" width="64" height="64" fill="#ee82ee" /><rect id="square-da70d6" x="408.0" y="888.0" width="64" height="64" fill="#da70d6" /><rect id="square-ff00ff" x="488.0" y="888.0" width="64" height="64" fill="#ff00ff" /><rect id="square-ff1493" x="568.0" y="888.0" width="64" height="64" fill="#ff1493" /><rect id="square-c71585" x="648.0" y="888.0" width="64" height="64" fill="#c71585" /><rect id="square-8b008b" x="728.0" y="888.0" width="64" height="64" fill="#8b008b" /><rect id="square-800080" x="808.0" y="888.0" width="64" height="64" fill="#800080" /><rect id="square-ffc0cb" x="8.0" y="968.0" width="64" height="64" fill="#ffc0cb" /><rect id="square-ffb6c1" x="88.0" y="968.0" width="64" height="64" fill="#ffb6c1" /><rect id="square-ff69b4" x="168.0" y="968.0" width="64" height="64" fill="#ff69b4" /><rect id="square-db7093" x="248.0" y="968.0" width="64" height="64" fill="#db7093" /><rect id="square-dc143c" x="328.0" y="968.0" width="64" height="64" fill="#dc143c" /></g></svg>