<?xml version="1.0" encoding="UTF-8"?>
<svg xmlns="http://www.w3.org/2000/svg" xmlns:xlink="http://www.w3.org/1999/xlink" width="480" height="688" viewBox="0 0 480 688">
<defs>
<clipPath id="clip-0">
<rect x="0" y="0" width="480" height="688"/>
</clipPath>
<g id="source-5" clip-path="url(#clip-0)">
<path fill-rule="nonzero" fill="rgb(41.176471%, 41.176471%, 41.176471%)" fill-opacity="1" d="M 48 32 C 48 40.835938 40.835938 48 32 48 C 23.164062 48 16 40.835938 16 32 C 16 23.164062 23.164062 16 32 16 C 40.835938 16 48 23.164062 48 32 "/>
<path fill-rule="nonzero" fill="rgb(0%, 0%, 0%)" fill-opacity="1" d="M 64 32 C 64 40.835938 56.835938 48 48 48 C 39.164062 48 32 40.835938 32 32 C 32 23.164062 39.164062 16 48 16 C 56.835938 16 64 23.164062 64 32 "/>
<path fill-rule="nonzero" fill="rgb(100%, 100%, 100%)" fill-opacity="1" d="M 48 80 C 48 88.835938 40.835938 96 32 96 C 23.164062 96 16 88.835938 16 80 C 16 71.164062 23.164062 64 32 64 C 40.835938 64 48 71.164062 48 80 "/>
<path fill-rule="nonzero" fill="rgb(100%, 100%, 94.117647%)" fill-opacity="1" d="M 64 80 C 64 88.835938 56.835938 96 48 96 C 39.164062 96 32 88.835938 32 80 C 32 71.164062 39.164062 64 48 64 C 56.835938 64 64 71.164062 64 80 "/>
<path fill-rule="nonzero" fill="rgb(100%, 100%, 87.843137%)" fill-opacity="1" d="M 80 80 C 80 88.835938 72.835938 96 64 96 C 55.164062 96 48 88.835938 48 80 C 48 71.164062 55.164062 64 64 64 C 72.835938 64 80 71.164062 80 80 "/>
<path fill-rule="nonzero" fill="rgb(96.078431%, 100%, 98.039216%)" fill-opacity="1" d="M 96 80 C 96 88.835938 88.835938 96 80 96 C 71.164062 96 64 88.835938 64 80 C 64 71.164062 71.164062 64 80 64 C 88.835938 64 96 71.164062 96 80 "/>
<path fill-rule="nonzero" fill="rgb(94.117647%, 100%, 100%)" fill-opacity="1" d="M 112 80 C 112 88.835938 104.835938 96 96 96 C 87.164062 96 80 88.835938 80 80 C 80 71.164062 87.164062 64 96 64 C 104.835938 64 112 71.164062 112 80 "/>
<path fill-rule="nonzero" fill="rgb(100%, 98.039216%, 98.039216%)" fill-opacity="1" d="M 128 80 C 128 88.835938 120.835938 96 112 96 C 103.164062 96 96 88.835938 96 80 C 96 71.164062 103.164062 64 112 64 C 120.835938 64 128 71.164062 128 80 "/>
<path fill-rule="nonzero" fill="rgb(94.117647%, 100%, 94.117647%)" fill-opacity="1" d="M 144 80 C 144 88.835938 136.835938 96 128 96 C 119.164062 96 112 88.835938 112 80 C 112 71.164062 119.164062 64 128 64 C 136.835938 64 144 71.164062 144 80 "/>
<path fill-rule="nonzero" fill="rgb(100%, 98.039216%, 94.117647%)" fill-opacity="1" d="M 160 80 C 160 88.835938 152.835938 96 144 96 C 135.164062 96 128 88.835938 128 80 C 128 71.164062 135.164062 64 144 64 C 152.835938 64 160 71.164062 160 80 "/>
<path fill-rule="nonzero" fill="rgb(87.843137%, 100%, 100%)" fill-opacity="1" d="M 176 80 C 176 88.835938 168.835938 96 160 96 C 151.164062 96 144 88.835938 144 80 C 144 71.164062 151.164062 64 160 64 C 168.835938 64 176 71.164062 176 80 "/>
<path fill-rule="nonzero" fill="rgb(97.254902%, 97.254902%, 100%)" fill-opacity="1" d="M 192 80 C 192 88.835938 184.835938 96 176 96 C 167.164062 96 160 88.835938 160 80 C 160 71.164062 167.164062 64 176 64 C 184.835938 64 192 71.164062 192 80 "/>
<path fill-rule="nonzero" fill="rgb(100%, 97.254902%, 86.27451%)" fill-opacity="1" d="M 208 80 C 208 88.835938 200.835938 96 192 96 C 183.164062 96 176 88.835938 176 80 C 176 71.164062 183.164062 64 192 64 C 200.835938 64 208 71.164062 208 80 "/>
<path fill-rule="nonzero" fill="rgb(94.117647%, 97.254902%, 100%)" fill-opacity="1" d="M 224 80 C 224 88.835938 216.835938 96 208 96 C 199.164062 96 192 88.835938 192 80 C 192 71.164062 199.164062 64 208 64 C 216.835938 64 224 71.164062 224 80 "/>
<path fill-rule="nonzero" fill="rgb(100%, 96.078431%, 93.333333%)" fill-opacity="1" d="M 240 80 C 240 88.835938 232.835938 96 224 96 C 215.164062 96 208 88.835938 208 80 C 208 71.164062 215.164062 64 224 64 C 232.835938 64 240 71.164062 240 80 "/>
<path fill-rule="nonzero" fill="rgb(99.215686%, 96.078431%, 90.196078%)" fill-opacity="1" d="M 256 80 C 256 88.835938 248.835938 96 240 96 C 231.164062 96 224 88.835938 224 80 C 224 71.164062 231.164062 64 240 64 C 248.835938 64 256 71.164062 256 80 "/>
<path fill-rule="nonzero" fill="rgb(96.078431%, 96.078431%, 96.078431%)" fill-opacity="1" d="M 272 80 C 272 88.835938 264.835938 96 256 96 C 247.164062 96 240 88.835938 240 80 C 240 71.164062 247.164062 64 256 64 C 264.835938 64 272 71.164062 272 80 "/>
<path fill-rule="nonzero" fill="rgb(100%, 94.117647%, 96.078431%)" fill-opacity="1" d="M 288 80 C 288 88.835938 280.835938 96 272 96 C 263.164062 96 256 88.835938 256 80 C 256 71.164062 263.164062 64 272 64 C 280.835938 64 288 71.164062 288 80 "/>
<path fill-rule="nonzero" fill="rgb(96.078431%, 96.078431%, 86.27451%)" fill-opacity="1" d="M 304 80 C 304 88.835938 296.835938 96 288 96 C 279.164062 96 272 88.835938 272 80 C 272 71.164062 279.164062 64 288 64 C 296.835938 64 304 71.164062 304 80 "/>
<path fill-rule="nonzero" fill="rgb(98.039216%, 94.117647%, 90.196078%)" fill-opacity="1" d="M 320 80 C 320 88.835938 312.835938 96 304 96 C 295.164062 96 288 88.835938 288 80 C 288 71.164062 295.164062 64 304 64 C 312.835938 64 320 71.164062 320 80 "/>
<path fill-rule="nonzero" fill="rgb(98.039216%, 92.156863%, 84.313725%)" fill-opacity="1" d="M 336 80 C 336 88.835938 328.835938 96 320 96 C 311.164062 96 304 88.835938 304 80 C 304 71.164062 311.164062 64 320 64 C 328.835938 64 336 71.164062 336 80 "/>
<path fill-rule="nonzero" fill="rgb(100%, 89.411765%, 88.235294%)" fill-opacity="1" d="M 352 80 C 352 88.835938 344.835938 96 336 96 C 327.164062 96 320 88.835938 320 80 C 320 71.164062 327.164062 64 336 64 C 344.835938 64 352 71.164062 352 80 "/>
<path fill-rule="nonzero" fill="rgb(90.196078%, 90.196078%, 98.039216%)" fill-opacity="1" d="M 368 80 C 368 88.835938 360.835938 96 352 96 C 343.164062 96 336 88.835938 336 80 C 336 71.164062 343.164062 64 352 64 C 360.835938 64 368 71.164062 368 80 "/>
<path fill-rule="nonzero" fill="rgb(86.27451%, 86.27451%, 86.27451%)" fill-opacity="1" d="M 384 80 C 384 88.835938 376.835938 96 368 96 C 359.164062 96 352 88.835938 352 80 C 352 71.164062 359.164062 64 368 64 C 376.835938 64 384 71.164062 384 80 "/>
<path fill-rule="nonzero" fill="rgb(82.745098%, 82.745098%, 82.745098%)" fill-opacity="1" d="M 400 80 C 400 88.835938 392.835938 96 384 96 C 375.164062 96 368 88.835938 368 80 C 368 71.164062 375.164062 64 384 64 C 392.835938 64 400 71.164062 400 80 "/>
<path fill-rule="nonzero" fill="rgb(84.705882%, 74.901961%, 84.705882%)" fill-opacity="1" d="M 416 80 C 416 88.835938 408.835938 96 400 96 C 391.164062 96 384 88.835938 384 80 C 384 71.164062 391.164062 64 400 64 C 408.835938 64 416 71.164062 416 80 "/>
<path fill-rule="nonzero" fill="rgb(75.294118%, 75.294118%, 75.294118%)" fill-opacity="1" d="M 432 80 C 432 88.835938 424.835938 96 416 96 C 407.164062 96 400 88.835938 400 80 C 400 71.164062 407.164062 64 416 64 C 424.835938 64 432 71.164062 432 80 "/>
<path fill-rule="nonzero" fill="rgb(66.27451%, 66.27451%, 66.27451%)" fill-opacity="1" d="M 448 80 C 448 88.835938 440.835938 96 432 96 C 423.164062 96 416 88.835938 416 80 C 416 71.164062 423.164062 64 432 64 C 440.835938 64 448 71.164062 448 80 "/>
<path fill-rule="nonzero" fill="rgb(50.196078%, 50.196078%, 50.196078%)" fill-opacity="1" d="M 464 80 C 464 88.835938 456.835938 96 448 96 C 439.164062 96 432 88.835938 432 80 C 432 71.164062 439.164062 64 448 64 C 456.835938 64 464 71.164062 464 80 "/>
<path fill-rule="nonzero" fill="rgb(100%, 85.490196%, 72.54902%)" fill-opacity="1" d="M 48 128 C 48 136.835938 40.835938 144 32 144 C 23.164062 144 16 136.835938 16 128 C 16 119.164062 23.164062 112 32 112 C 40.835938 112 48 119.164062 48 128 "/>
<path fill-rule="nonzero" fill="rgb(100%, 62.745098%, 47.843137%)" fill-opacity="1" d="M 64 128 C 64 136.835938 56.835938 144 48 144 C 39.164062 144 32 136.835938 32 128 C 32 119.164062 39.164062 112 48 112 C 56.835938 112 64 119.164062 64 128 "/>
<path fill-rule="nonzero" fill="rgb(95.686275%, 64.313725%, 37.647059%)" fill-opacity="1" d="M 80 128 C 80 136.835938 72.835938 144 64 144 C 55.164062 144 48 136.835938 48 128 C 48 119.164062 55.164062 112 64 112 C 72.835938 112 80 119.164062 80 128 "/>
<path fill-rule="nonzero" fill="rgb(91.372549%, 58.823529%, 47.843137%)" fill-opacity="1" d="M 96 128 C 96 136.835938 88.835938 144 80 144 C 71.164062 144 64 136.835938 64 128 C 64 119.164062 71.164062 112 80 112 C 88.835938 112 96 119.164062 96 128 "/>
<path fill-rule="nonzero" fill="rgb(100%, 49.803922%, 31.372549%)" fill-opacity="1" d="M 112 128 C 112 136.835938 104.835938 144 96 144 C 87.164062 144 80 136.835938 80 128 C 80 119.164062 87.164062 112 96 112 C 104.835938 112 112 119.164062 112 128 "/>
<path fill-rule="nonzero" fill="rgb(98.039216%, 50.196078%, 44.705882%)" fill-opacity="1" d="M 128 128 C 128 136.835938 120.835938 144 112 144 C 103.164062 144 96 136.835938 96 128 C 96 119.164062 103.164062 112 112 112 C 120.835938 112 128 119.164062 128 128 "/>
<path fill-rule="nonzero" fill="rgb(94.117647%, 50.196078%, 50.196078%)" fill-opacity="1" d="M 144 128 C 144 136.835938 136.835938 144 128 144 C 119.164062 144 112 136.835938 112 128 C 112 119.164062 119.164062 112 128 112 C 136.835938 112 144 119.164062 144 128 "/>
<path fill-rule="nonzero" fill="rgb(73.72549%, 56.078431%, 56.078431%)" fill-opacity="1" d="M 160 128 C 160 136.835938 152.835938 144 144 144 C 135.164062 144 128 136.835938 128 128 C 128 119.164062 135.164062 112 144 112 C 152.835938 112 160 119.164062 160 128 "/>
<path fill-rule="nonzero" fill="rgb(100%, 38.823529%, 27.843137%)" fill-opacity="1" d="M 176 128 C 176 136.835938 168.835938 144 160 144 C 151.164062 144 144 136.835938 144 128 C 144 119.164062 151.164062 112 160 112 C 168.835938 112 176 119.164062 176 128 "/>
<path fill-rule="nonzero" fill="rgb(80.392157%, 52.156863%, 24.705882%)" fill-opacity="1" d="M 192 128 C 192 136.835938 184.835938 144 176 144 C 167.164062 144 160 136.835938 160 128 C 160 119.164062 167.164062 112 176 112 C 184.835938 112 192 119.164062 192 128 "/>
<path fill-rule="nonzero" fill="rgb(100%, 27.058824%, 0%)" fill-opacity="1" d="M 208 128 C 208 136.835938 200.835938 144 192 144 C 183.164062 144 176 136.835938 176 128 C 176 119.164062 183.164062 112 192 112 C 200.835938 112 208 119.164062 208 128 "/>
<path fill-rule="nonzero" fill="rgb(82.352941%, 41.176471%, 11.764706%)" fill-opacity="1" d="M 224 128 C 224 136.835938 216.835938 144 208 144 C 199.164062 144 192 136.835938 192 128 C 192 119.164062 199.164062 112 208 112 C 216.835938 112 224 119.164062 224 128 "/>
<path fill-rule="nonzero" fill="rgb(80.392157%, 36.078431%, 36.078431%)" fill-opacity="1" d="M 240 128 C 240 136.835938 232.835938 144 224 144 C 215.164062 144 208 136.835938 208 128 C 208 119.164062 215.164062 112 224 112 C 232.835938 112 240 119.164062 240 128 "/>
<path fill-rule="nonzero" fill="rgb(100%, 0%, 0%)" fill-opacity="1" d="M 256 128 C 256 136.835938 248.835938 144 240 144 C 231.164062 144 224 136.835938 224 128 C 224 119.164062 231.164062 112 240 112 C 248.835938 112 256 119.164062 256 128 "/>
<path fill-rule="nonzero" fill="rgb(62.745098%, 32.156863%, 17.647059%)" fill-opacity="1" d="M 272 128 C 272 136.835938 264.835938 144 256 144 C 247.164062 144 240 136.835938 240 128 C 240 119.164062 247.164062 112 256 112 C 264.835938 112 272 119.164062 272 128 "/>
<path fill-rule="nonzero" fill="rgb(69.803922%, 13.333333%, 13.333333%)" fill-opacity="1" d="M 288 128 C 288 136.835938 280.835938 144 272 144 C 263.164062 144 256 136.835938 256 128 C 256 119.164062 263.164062 112 272 112 C 280.835938 112 288 119.164062 288 128 "/>
<path fill-rule="nonzero" fill="rgb(64.705882%, 16.470588%, 16.470588%)" fill-opacity="1" d="M 304 128 C 304 136.835938 296.835938 144 288 144 C 279.164062 144 272 136.835938 272 128 C 272 119.164062 279.164062 112 288 112 C 296.835938 112 304 119.164062 304 128 "/>
<path fill-rule="nonzero" fill="rgb(54.509804%, 27.058824%, 7.45098%)" fill-opacity="1" d="M 320 128 C 320 136.835938 312.835938 144 304 144 C 295.164062 144 288 136.835938 288 128 C 288 119.164062 295.164062 112 304 112 C 312.835938 112 320 119.164062 320 128 "/>
<path fill-rule="nonzero" fill="rgb(54.509804%, 0%, 0%)" fill-opacity="1" d="M 336 128 C 336 136.835938 328.835938 144 320 144 C 311.164062 144 304 136.835938 304 128 C 304 119.164062 311.164062 112 320 112 C 328.835938 112 336 119.164062 336 128 "/>
<path fill-rule="nonzero" fill="rgb(50.196078%, 0%, 0%)" fill-opacity="1" d="M 352 128 C 352 136.835938 344.835938 144 336 144 C 327.164062 144 320 136.835938 320 128 C 320 119.164062 327.164062 112 336 112 C 344.835938 112 352 119.164062 352 128 "/>
<path fill-rule="nonzero" fill="rgb(100%, 98.039216%, 80.392157%)" fill-opacity="1" d="M 48 176 C 48 184.835938 40.835938 192 32 192 C 23.164062 192 16 184.835938 16 176 C 16 167.164062 23.164062 160 32 160 C 40.835938 160 48 167.164062 48 176 "/>
<path fill-rule="nonzero" fill="rgb(100%, 93.72549%, 83.529412%)" fill-opacity="1" d="M 64 176 C 64 184.835938 56.835938 192 48 192 C 39.164062 192 32 184.835938 32 176 C 32 167.164062 39.164062 160 48 160 C 56.835938 160 64 167.164062 64 176 "/>
<path fill-rule="nonzero" fill="rgb(100%, 92.156863%, 80.392157%)" fill-opacity="1" d="M 80 176 C 80 184.835938 72.835938 192 64 192 C 55.164062 192 48 184.835938 48 176 C 48 167.164062 55.164062 160 64 160 C 72.835938 160 80 167.164062 80 176 "/>
<path fill-rule="nonzero" fill="rgb(100%, 89.411765%, 76.862745%)" fill-opacity="1" d="M 96 176 C 96 184.835938 88.835938 192 80 192 C 71.164062 192 64 184.835938 64 176 C 64 167.164062 71.164062 160 80 160 C 88.835938 160 96 167.164062 96 176 "/>
<path fill-rule="nonzero" fill="rgb(100%, 89.411765%, 70.980392%)" fill-opacity="1" d="M 112 176 C 112 184.835938 104.835938 192 96 192 C 87.164062 192 80 184.835938 80 176 C 80 167.164062 87.164062 160 96 160 C 104.835938 160 112 167.164062 112 176 "/>
<path fill-rule="nonzero" fill="rgb(93.333333%, 90.980392%, 66.666667%)" fill-opacity="1" d="M 128 176 C 128 184.835938 120.835938 192 112 192 C 103.164062 192 96 184.835938 96 176 C 96 167.164062 103.164062 160 112 160 C 120.835938 160 128 167.164062 128 176 "/>
<path fill-rule="nonzero" fill="rgb(94.117647%, 90.196078%, 54.901961%)" fill-opacity="1" d="M 144 176 C 144 184.835938 136.835938 192 128 192 C 119.164062 192 112 184.835938 112 176 C 112 167.164062 119.164062 160 128 160 C 136.835938 160 144 167.164062 144 176 "/>
<path fill-rule="nonzero" fill="rgb(100%, 87.058824%, 67.843137%)" fill-opacity="1" d="M 160 176 C 160 184.835938 152.835938 192 144 192 C 135.164062 192 128 184.835938 128 176 C 128 167.164062 135.164062 160 144 160 C 152.835938 160 160 167.164062 160 176 "/>
<path fill-rule="nonzero" fill="rgb(96.078431%, 87.058824%, 70.196078%)" fill-opacity="1" d="M 176 176 C 176 184.835938 168.835938 192 160 192 C 151.164062 192 144 184.835938 144 176 C 144 167.164062 151.164062 160 160 160 C 168.835938 160 176 167.164062 176 176 "/>
<path fill-rule="nonzero" fill="rgb(100%, 84.313725%, 0%)" fill-opacity="1" d="M 192 176 C 192 184.835938 184.835938 192 176 192 C 167.164062 192 160 184.835938 160 176 C 160 167.164062 167.164062 160 176 160 C 184.835938 160 192 167.164062 192 176 "/>
<path fill-rule="nonzero" fill="rgb(87.058824%, 72.156863%, 52.941176%)" fill-opacity="1" d="M 208 176 C 208 184.835938 200.835938 192 192 192 C 183.164062 192 176 184.835938 176 176 C 176 167.164062 183.164062 160 192 160 C 200.835938 160 208 167.164062 208 176 "/>
<path fill-rule="nonzero" fill="rgb(82.352941%, 70.588235%, 54.901961%)" fill-opacity="1" d="M 224 176 C 224 184.835938 216.835938 192 208 192 C 199.164062 192 192 184.835938 192 176 C 192 167.164062 199.164062 160 208 160 C 216.835938 160 224 167.164062 224 176 "/>
<path fill-rule="nonzero" fill="rgb(100%, 64.705882%, 0%)" fill-opacity="1" d="M 240 176 C 240 184.835938 232.835938 192 224 192 C 215.164062 192 208 184.835938 208 176 C 208 167.164062 215.164062 160 224 160 C 232.835938 160 240 167.164062 240 176 "/>
<path fill-rule="nonzero" fill="rgb(74.117647%, 71.764706%, 41.960784%)" fill-opacity="1" d="M 256 176 C 256 184.835938 248.835938 192 240 192 C 231.164062 192 224 184.835938 224 176 C 224 167.164062 231.164062 160 240 160 C 248.835938 160 256 167.164062 256 176 "/>
<path fill-rule="nonzero" fill="rgb(85.490196%, 64.705882%, 12.54902%)" fill-opacity="1" d="M 272 176 C 272 184.835938 264.835938 192 256 192 C 247.164062 192 240 184.835938 240 176 C 240 167.164062 247.164062 160 256 160 C 264.835938 160 272 167.164062 272 176 "/>
<path fill-rule="nonzero" fill="rgb(100%, 54.901961%, 0%)" fill-opacity="1" d="M 288 176 C 288 184.835938 280.835938 192 272 192 C 263.164062 192 256 184.835938 256 176 C 256 167.164062 263.164062 160 272 160 C 280.835938 160 288 167.164062 288 176 "/>
<path fill-rule="nonzero" fill="rgb(98.039216%, 98.039216%, 82.352941%)" fill-opacity="1" d="M 48 224 C 48 232.835938 40.835938 240 32 240 C 23.164062 240 16 232.835938 16 224 C 16 215.164062 23.164062 208 32 208 C 40.835938 208 48 215.164062 48 224 "/>
<path fill-rule="nonzero" fill="rgb(100%, 100%, 0%)" fill-opacity="1" d="M 64 224 C 64 232.835938 56.835938 240 48 240 C 39.164062 240 32 232.835938 32 224 C 32 215.164062 39.164062 208 48 208 C 56.835938 208 64 215.164062 64 224 "/>
<path fill-rule="nonzero" fill="rgb(67.843137%, 100%, 18.431373%)" fill-opacity="1" d="M 80 224 C 80 232.835938 72.835938 240 64 240 C 55.164062 240 48 232.835938 48 224 C 48 215.164062 55.164062 208 64 208 C 72.835938 208 80 215.164062 80 224 "/>
<path fill-rule="nonzero" fill="rgb(60.392157%, 80.392157%, 19.607843%)" fill-opacity="1" d="M 96 224 C 96 232.835938 88.835938 240 80 240 C 71.164062 240 64 232.835938 64 224 C 64 215.164062 71.164062 208 80 208 C 88.835938 208 96 215.164062 96 224 "/>
<path fill-rule="nonzero" fill="rgb(41.960784%, 55.686275%, 13.72549%)" fill-opacity="1" d="M 112 224 C 112 232.835938 104.835938 240 96 240 C 87.164062 240 80 232.835938 80 224 C 80 215.164062 87.164062 208 96 208 C 104.835938 208 112 215.164062 112 224 "/>
<path fill-rule="nonzero" fill="rgb(50.196078%, 50.196078%, 0%)" fill-opacity="1" d="M 128 224 C 128 232.835938 120.835938 240 112 240 C 103.164062 240 96 232.835938 96 224 C 96 215.164062 103.164062 208 112 208 C 120.835938 208 128 215.164062 128 224 "/>
<path fill-rule="nonzero" fill="rgb(33.333333%, 41.960784%, 18.431373%)" fill-opacity="1" d="M 144 224 C 144 232.835938 136.835938 240 128 240 C 119.164062 240 112 232.835938 112 224 C 112 215.164062 119.164062 208 128 208 C 136.835938 208 144 215.164062 144 224 "/>
<path fill-rule="nonzero" fill="rgb(49.803922%, 100%, 0%)" fill-opacity="1" d="M 48 272 C 48 280.835938 40.835938 288 32 288 C 23.164062 288 16 280.835938 16 272 C 16 263.164062 23.164062 256 32 256 C 40.835938 256 48 263.164062 48 272 "/>
<path fill-rule="nonzero" fill="rgb(48.627451%, 98.823529%, 0%)" fill-opacity="1" d="M 64 272 C 64 280.835938 56.835938 288 48 288 C 39.164062 288 32 280.835938 32 272 C 32 263.164062 39.164062 256 48 256 C 56.835938 256 64 263.164062 64 272 "/>
<path fill-rule="nonzero" fill="rgb(59.607843%, 98.431373%, 59.607843%)" fill-opacity="1" d="M 48 320 C 48 328.835938 40.835938 336 32 336 C 23.164062 336 16 328.835938 16 320 C 16 311.164062 23.164062 304 32 304 C 40.835938 304 48 311.164062 48 320 "/>
<path fill-rule="nonzero" fill="rgb(0%, 100%, 49.803922%)" fill-opacity="1" d="M 64 320 C 64 328.835938 56.835938 336 48 336 C 39.164062 336 32 328.835938 32 320 C 32 311.164062 39.164062 304 48 304 C 56.835938 304 64 311.164062 64 320 "/>
<path fill-rule="nonzero" fill="rgb(0%, 100%, 0%)" fill-opacity="1" d="M 80 320 C 80 328.835938 72.835938 336 64 336 C 55.164062 336 48 328.835938 48 320 C 48 311.164062 55.164062 304 64 304 C 72.835938 304 80 311.164062 80 320 "/>
<path fill-rule="nonzero" fill="rgb(56.470588%, 93.333333%, 56.470588%)" fill-opacity="1" d="M 96 320 C 96 328.835938 88.835938 336 80 336 C 71.164062 336 64 328.835938 64 320 C 64 311.164062 71.164062 304 80 304 C 88.835938 304 96 311.164062 96 320 "/>
<path fill-rule="nonzero" fill="rgb(19.607843%, 80.392157%, 19.607843%)" fill-opacity="1" d="M 112 320 C 112 328.835938 104.835938 336 96 336 C 87.164062 336 80 328.835938 80 320 C 80 311.164062 87.164062 304 96 304 C 104.835938 304 112 311.164062 112 320 "/>
<path fill-rule="nonzero" fill="rgb(56.078431%, 73.72549%, 56.078431%)" fill-opacity="1" d="M 128 320 C 128 328.835938 120.835938 336 112 336 C 103.164062 336 96 328.835938 96 320 C 96 311.164062 103.164062 304 112 304 C 120.835938 304 128 311.164062 128 320 "/>
<path fill-rule="nonzero" fill="rgb(23.529412%, 70.196078%, 44.313725%)" fill-opacity="1" d="M 144 320 C 144 328.835938 136.835938 336 128 336 C 119.164062 336 112 328.835938 112 320 C 112 311.164062 119.164062 304 128 304 C 136.835938 304 144 311.164062 144 320 "/>
<path fill-rule="nonzero" fill="rgb(18.039216%, 54.509804%, 34.117647%)" fill-opacity="1" d="M 160 320 C 160 328.835938 152.835938 336 144 336 C 135.164062 336 128 328.835938 128 320 C 128 311.164062 135.164062 304 144 304 C 152.835938 304 160 311.164062 160 320 "/>
<path fill-rule="nonzero" fill="rgb(13.333333%, 54.509804%, 13.333333%)" fill-opacity="1" d="M 176 320 C 176 328.835938 168.835938 336 160 336 C 151.164062 336 144 328.835938 144 320 C 144 311.164062 151.164062 304 160 304 C 168.835938 304 176 311.164062 176 320 "/>
<path fill-rule="nonzero" fill="rgb(0%, 50.196078%, 0%)" fill-opacity="1" d="M 192 320 C 192 328.835938 184.835938 336 176 336 C 167.164062 336 160 328.835938 160 320 C 160 311.164062 167.164062 304 176 304 C 184.835938 304 192 311.164062 192 320 "/>
<path fill-rule="nonzero" fill="rgb(0%, 39.215686%, 0%)" fill-opacity="1" d="M 208 320 C 208 328.835938 200.835938 336 192 336 C 183.164062 336 176 328.835938 176 320 C 176 311.164062 183.164062 304 192 304 C 200.835938 304 208 311.164062 208 320 "/>
<path fill-rule="nonzero" fill="rgb(49.803922%, 100%, 83.137255%)" fill-opacity="1" d="M 48 368 C 48 376.835938 40.835938 384 32 384 C 23.164062 384 16 376.835938 16 368 C 16 359.164062 23.164062 352 32 352 C 40.835938 352 48 359.164062 48 368 "/>
<path fill-rule="nonzero" fill="rgb(0%, 98.039216%, 60.392157%)" fill-opacity="1" d="M 64 368 C 64 376.835938 56.835938 384 48 384 C 39.164062 384 32 376.835938 32 368 C 32 359.164062 39.164062 352 48 352 C 56.835938 352 64 359.164062 64 368 "/>
<path fill-rule="nonzero" fill="rgb(25.098039%, 87.843137%, 81.568627%)" fill-opacity="1" d="M 80 368 C 80 376.835938 72.835938 384 64 384 C 55.164062 384 48 376.835938 48 368 C 48 359.164062 55.164062 352 64 352 C 72.835938 352 80 359.164062 80 368 "/>
<path fill-rule="nonzero" fill="rgb(28.235294%, 81.960784%, 80%)" fill-opacity="1" d="M 96 368 C 96 376.835938 88.835938 384 80 384 C 71.164062 384 64 376.835938 64 368 C 64 359.164062 71.164062 352 80 352 C 88.835938 352 96 359.164062 96 368 "/>
<path fill-rule="nonzero" fill="rgb(40%, 80.392157%, 66.666667%)" fill-opacity="1" d="M 112 368 C 112 376.835938 104.835938 384 96 384 C 87.164062 384 80 376.835938 80 368 C 80 359.164062 87.164062 352 96 352 C 104.835938 352 112 359.164062 112 368 "/>
<path fill-rule="nonzero" fill="rgb(12.54902%, 69.803922%, 66.666667%)" fill-opacity="1" d="M 128 368 C 128 376.835938 120.835938 384 112 384 C 103.164062 384 96 376.835938 96 368 C 96 359.164062 103.164062 352 112 352 C 120.835938 352 128 359.164062 128 368 "/>
<path fill-rule="nonzero" fill="rgb(0%, 100%, 100%)" fill-opacity="1" d="M 48 416 C 48 424.835938 40.835938 432 32 432 C 23.164062 432 16 424.835938 16 416 C 16 407.164062 23.164062 400 32 400 C 40.835938 400 48 407.164062 48 416 "/>
<path fill-rule="nonzero" fill="rgb(68.627451%, 93.333333%, 93.333333%)" fill-opacity="1" d="M 64 416 C 64 424.835938 56.835938 432 48 432 C 39.164062 432 32 424.835938 32 416 C 32 407.164062 39.164062 400 48 400 C 56.835938 400 64 407.164062 64 416 "/>
<path fill-rule="nonzero" fill="rgb(69.019608%, 87.843137%, 90.196078%)" fill-opacity="1" d="M 80 416 C 80 424.835938 72.835938 432 64 432 C 55.164062 432 48 424.835938 48 416 C 48 407.164062 55.164062 400 64 400 C 72.835938 400 80 407.164062 80 416 "/>
<path fill-rule="nonzero" fill="rgb(67.843137%, 84.705882%, 90.196078%)" fill-opacity="1" d="M 96 416 C 96 424.835938 88.835938 432 80 432 C 71.164062 432 64 424.835938 64 416 C 64 407.164062 71.164062 400 80 400 C 88.835938 400 96 407.164062 96 416 "/>
<path fill-rule="nonzero" fill="rgb(52.941176%, 80.784314%, 98.039216%)" fill-opacity="1" d="M 112 416 C 112 424.835938 104.835938 432 96 432 C 87.164062 432 80 424.835938 80 416 C 80 407.164062 87.164062 400 96 400 C 104.835938 400 112 407.164062 112 416 "/>
<path fill-rule="nonzero" fill="rgb(52.941176%, 80.784314%, 92.156863%)" fill-opacity="1" d="M 128 416 C 128 424.835938 120.835938 432 112 432 C 103.164062 432 96 424.835938 96 416 C 96 407.164062 103.164062 400 112 400 C 120.835938 400 128 407.164062 128 416 "/>
<path fill-rule="nonzero" fill="rgb(0%, 80.784314%, 81.960784%)" fill-opacity="1" d="M 144 416 C 144 424.835938 136.835938 432 128 432 C 119.164062 432 112 424.835938 112 416 C 112 407.164062 119.164062 400 128 400 C 136.835938 400 144 407.164062 144 416 "/>
<path fill-rule="nonzero" fill="rgb(0%, 74.901961%, 100%)" fill-opacity="1" d="M 160 416 C 160 424.835938 152.835938 432 144 432 C 135.164062 432 128 424.835938 128 416 C 128 407.164062 135.164062 400 144 400 C 152.835938 400 160 407.164062 160 416 "/>
<path fill-rule="nonzero" fill="rgb(37.254902%, 61.960784%, 62.745098%)" fill-opacity="1" d="M 176 416 C 176 424.835938 168.835938 432 160 432 C 151.164062 432 144 424.835938 144 416 C 144 407.164062 151.164062 400 160 400 C 168.835938 400 176 407.164062 176 416 "/>
<path fill-rule="nonzero" fill="rgb(11.764706%, 56.470588%, 100%)" fill-opacity="1" d="M 192 416 C 192 424.835938 184.835938 432 176 432 C 167.164062 432 160 424.835938 160 416 C 160 407.164062 167.164062 400 176 400 C 184.835938 400 192 407.164062 192 416 "/>
<path fill-rule="nonzero" fill="rgb(27.45098%, 50.980392%, 70.588235%)" fill-opacity="1" d="M 208 416 C 208 424.835938 200.835938 432 192 432 C 183.164062 432 176 424.835938 176 416 C 176 407.164062 183.164062 400 192 400 C 200.835938 400 208 407.164062 208 416 "/>
<path fill-rule="nonzero" fill="rgb(0%, 54.509804%, 54.509804%)" fill-opacity="1" d="M 224 416 C 224 424.835938 216.835938 432 208 432 C 199.164062 432 192 424.835938 192 416 C 192 407.164062 199.164062 400 208 400 C 216.835938 400 224 407.164062 224 416 "/>
<path fill-rule="nonzero" fill="rgb(0%, 50.196078%, 50.196078%)" fill-opacity="1" d="M 240 416 C 240 424.835938 232.835938 432 224 432 C 215.164062 432 208 424.835938 208 416 C 208 407.164062 215.164062 400 224 400 C 232.835938 400 240 407.164062 240 416 "/>
<path fill-rule="nonzero" fill="rgb(18.431373%, 30.980392%, 30.980392%)" fill-opacity="1" d="M 256 416 C 256 424.835938 248.835938 432 240 432 C 231.164062 432 224 424.835938 224 416 C 224 407.164062 231.164062 400 240 400 C 248.835938 400 256 407.164062 256 416 "/>
<path fill-rule="nonzero" fill="rgb(69.019608%, 76.862745%, 87.058824%)" fill-opacity="1" d="M 48 464 C 48 472.835938 40.835938 480 32 480 C 23.164062 480 16 472.835938 16 464 C 16 455.164062 23.164062 448 32 448 C 40.835938 448 48 455.164062 48 464 "/>
<path fill-rule="nonzero" fill="rgb(39.215686%, 58.431373%, 92.941176%)" fill-opacity="1" d="M 64 464 C 64 472.835938 56.835938 480 48 480 C 39.164062 480 32 472.835938 32 464 C 32 455.164062 39.164062 448 48 448 C 56.835938 448 64 455.164062 64 464 "/>
<path fill-rule="nonzero" fill="rgb(46.666667%, 53.333333%, 60%)" fill-opacity="1" d="M 80 464 C 80 472.835938 72.835938 480 64 480 C 55.164062 480 48 472.835938 48 464 C 48 455.164062 55.164062 448 64 448 C 72.835938 448 80 455.164062 80 464 "/>
<path fill-rule="nonzero" fill="rgb(43.921569%, 50.196078%, 56.470588%)" fill-opacity="1" d="M 96 464 C 96 472.835938 88.835938 480 80 480 C 71.164062 480 64 472.835938 64 464 C 64 455.164062 71.164062 448 80 448 C 88.835938 448 96 455.164062 96 464 "/>
<path fill-rule="nonzero" fill="rgb(25.490196%, 41.176471%, 88.235294%)" fill-opacity="1" d="M 112 464 C 112 472.835938 104.835938 480 96 480 C 87.164062 480 80 472.835938 80 464 C 80 455.164062 87.164062 448 96 448 C 104.835938 448 112 455.164062 112 464 "/>
<path fill-rule="nonzero" fill="rgb(57.647059%, 43.921569%, 85.882353%)" fill-opacity="1" d="M 48 512 C 48 520.835938 40.835938 528 32 528 C 23.164062 528 16 520.835938 16 512 C 16 503.164062 23.164062 496 32 496 C 40.835938 496 48 503.164062 48 512 "/>
<path fill-rule="nonzero" fill="rgb(48.235294%, 40.784314%, 93.333333%)" fill-opacity="1" d="M 64 512 C 64 520.835938 56.835938 528 48 528 C 39.164062 528 32 520.835938 32 512 C 32 503.164062 39.164062 496 48 496 C 56.835938 496 64 503.164062 64 512 "/>
<path fill-rule="nonzero" fill="rgb(41.568627%, 35.294118%, 80.392157%)" fill-opacity="1" d="M 80 512 C 80 520.835938 72.835938 528 64 528 C 55.164062 528 48 520.835938 48 512 C 48 503.164062 55.164062 496 64 496 C 72.835938 496 80 503.164062 80 512 "/>
<path fill-rule="nonzero" fill="rgb(0%, 0%, 100%)" fill-opacity="1" d="M 96 512 C 96 520.835938 88.835938 528 80 528 C 71.164062 528 64 520.835938 64 512 C 64 503.164062 71.164062 496 80 496 C 88.835938 496 96 503.164062 96 512 "/>
<path fill-rule="nonzero" fill="rgb(28.235294%, 23.921569%, 54.509804%)" fill-opacity="1" d="M 112 512 C 112 520.835938 104.835938 528 96 528 C 87.164062 528 80 520.835938 80 512 C 80 503.164062 87.164062 496 96 496 C 104.835938 496 112 503.164062 112 512 "/>
<path fill-rule="nonzero" fill="rgb(0%, 0%, 80.392157%)" fill-opacity="1" d="M 128 512 C 128 520.835938 120.835938 528 112 528 C 103.164062 528 96 520.835938 96 512 C 96 503.164062 103.164062 496 112 496 C 120.835938 496 128 503.164062 128 512 "/>
<path fill-rule="nonzero" fill="rgb(9.803922%, 9.803922%, 43.921569%)" fill-opacity="1" d="M 144 512 C 144 520.835938 136.835938 528 128 528 C 119.164062 528 112 520.835938 112 512 C 112 503.164062 119.164062 496 128 496 C 136.835938 496 144 503.164062 144 512 "/>
<path fill-rule="nonzero" fill="rgb(0%, 0%, 54.509804%)" fill-opacity="1" d="M 160 512 C 160 520.835938 152.835938 528 144 528 C 135.164062 528 128 520.835938 128 512 C 128 503.164062 135.164062 496 144 496 C 152.835938 496 160 503.164062 160 512 "/>
<path fill-rule="nonzero" fill="rgb(0%, 0%, 50.196078%)" fill-opacity="1" d="M 176 512 C 176 520.835938 168.835938 528 160 528 C 151.164062 528 144 520.835938 144 512 C 144 503.164062 151.164062 496 160 496 C 168.835938 496 176 503.164062 176 512 "/>
<path fill-rule="nonzero" fill="rgb(72.941176%, 33.333333%, 82.745098%)" fill-opacity="1" d="M 48 560 C 48 568.835938 40.835938 576 32 576 C 23.164062 576 16 568.835938 16 560 C 16 551.164062 23.164062 544 32 544 C 40.835938 544 48 551.164062 48 560 "/>
<path fill-rule="nonzero" fill="rgb(60%, 19.607843%, 80%)" fill-opacity="1" d="M 64 560 C 64 568.835938 56.835938 576 48 576 C 39.164062 576 32 568.835938 32 560 C 32 551.164062 39.164062 544 48 544 C 56.835938 544 64 551.164062 64 560 "/>
<path fill-rule="nonzero" fill="rgb(54.117647%, 16.862745%, 88.627451%)" fill-opacity="1" d="M 80 560 C 80 568.835938 72.835938 576 64 576 C 55.164062 576 48 568.835938 48 560 C 48 551.164062 55.164062 544 64 544 C 72.835938 544 80 551.164062 80 560 "/>
<path fill-rule="nonzero" fill="rgb(58.039216%, 0%, 82.745098%)" fill-opacity="1" d="M 96 560 C 96 568.835938 88.835938 576 80 576 C 71.164062 576 64 568.835938 64 560 C 64 551.164062 71.164062 544 80 544 C 88.835938 544 96 551.164062 96 560 "/>
<path fill-rule="nonzero" fill="rgb(29.411765%, 0%, 50.980392%)" fill-opacity="1" d="M 112 560 C 112 568.835938 104.835938 576 96 576 C 87.164062 576 80 568.835938 80 560 C 80 551.164062 87.164062 544 96 544 C 104.835938 544 112 551.164062 112 560 "/>
<path fill-rule="nonzero" fill="rgb(86.666667%, 62.745098%, 86.666667%)" fill-opacity="1" d="M 48 608 C 48 616.835938 40.835938 624 32 624 C 23.164062 624 16 616.835938 16 608 C 16 599.164062 23.164062 592 32 592 C 40.835938 592 48 599.164062 48 608 "/>
<path fill-rule="nonzero" fill="rgb(93.333333%, 50.980392%, 93.333333%)" fill-opacity="1" d="M 64 608 C 64 616.835938 56.835938 624 48 624 C 39.164062 624 32 616.835938 32 608 C 32 599.164062 39.164062 592 48 592 C 56.835938 592 64 599.164062 64 608 "/>
<path fill-rule="nonzero" fill="rgb(85.490196%, 43.921569%, 83.921569%)" fill-opacity="1" d="M 80 608 C 80 616.835938 72.835938 624 64 624 C 55.164062 624 48 616.835938 48 608 C 48 599.164062 55.164062 592 64 592 C 72.835938 592 80 599.164062 80 608 "/>
<path fill-rule="nonzero" fill="rgb(100%, 0%, 100%)" fill-opacity="1" d="M 96 608 C 96 616.835938 88.835938 624 80 624 C 71.164062 624 64 616.835938 64 608 C 64 599.164062 71.164062 592 80 592 C 88.835938 592 96 599.164062 96 608 "/>
<path fill-rule="nonzero" fill="rgb(100%, 7.843137%, 57.647059%)" fill-opacity="1" d="M 112 608 C 112 616.835938 104.835938 624 96 624 C 87.164062 624 80 616.835938 80 608 C 80 599.164062 87.164062 592 96 592 C 104.835938 592 112 599.164062 112 608 "/>
<path fill-rule="nonzero" fill="rgb(78.039216%, 8.235294%, 52.156863%)" fill-opacity="1" d="M 128 608 C 128 616.835938 120.835938 624 112 624 C 103.164062 624 96 616.835938 96 608 C 96 599.164062 103.164062 592 112 592 C 120.835938 592 128 599.164062 128 608 "/>
<path fill-rule="nonzero" fill="rgb(54.509804%, 0%, 54.509804%)" fill-opacity="1" d="M 144 608 C 144 616.835938 136.835938 624 128 624 C 119.164062 624 112 616.835938 112 608 C 112 599.164062 119.164062 592 128 592 C 136.835938 592 144 599.164062 144 608 "/>
<path fill-rule="nonzero" fill="rgb(50.196078%, 0%, 50.196078%)" fill-opacity="1" d="M 160 608 C 160 616.835938 152.835938 624 144 624 C 135.164062 624 128 616.835938 128 608 C 128 599.164062 135.164062 592 144 592 C 152.835938 592 160 599.164062 160 608 "/>
<path fill-rule="nonzero" fill="rgb(100%, 75.294118%, 79.607843%)" fill-opacity="1" d="M 48 656 C 48 664.835938 40.835938 672 32 672 C 23.164062 672 16 664.835938 16 656 C 16 647.164062 23.164062 640 32 640 C 40.835938 640 48 647.164062 48 656 "/>
<path fill-rule="nonzero" fill="rgb(100%, 71.372549%, 75.686275%)" fill-opacity="1" d="M 64 656 C 64 664.835938 56.835938 672 48 672 C 39.164062 672 32 664.835938 32 656 C 32 647.164062 39.164062 640 48 640 C 56.835938 640 64 647.164062 64 656 "/>
<path fill-rule="nonzero" fill="rgb(100%, 41.176471%, 70.588235%)" fill-opacity="1" d="M 80 656 C 80 664.835938 72.835938 672 64 672 C 55.164062 672 48 664.835938 48 656 C 48 647.164062 55.164062 640 64 640 C 72.835938 640 80 647.164062 80 656 "/>
<path fill-rule="nonzero" fill="rgb(85.882353%, 43.921569%, 57.647059%)" fill-opacity="1" d="M 96 656 C 96 664.835938 88.835938 672 80 672 C 71.164062 672 64 664.835938 64 656 C 64 647.164062 71.164062 640 80 640 C 88.835938 640 96 647.164062 96 656 "/>
<path fill-rule="nonzero" fill="rgb(86.27451%, 7.843137%, 23.529412%)" fill-opacity="1" d="M 112 656 C 112 664.835938 104.835938 672 96 672 C 87.164062 672 80 664.835938 80 656 C 80 647.164062 87.164062 640 96 640 C 104.835938 640 112 647.164062 112 656 "/>
</g>
</defs>
<use xlink:href="#source-5"/>
</svg>
