<svg viewBox="0 0 880 1040" xmlns="http://www.w3.org/2000/svg"><g id="circle-grid"><circle id="circle-ffffff" cx="40.0" cy="40.0" r="32.0" fill="#ffffff" /><circle id="circle-fffff0" cx="120.0" cy="40.0" r="32.0" fill="#fffff0" /><circle id="circle-ffffe0" cx="200.0" cy="40.0" r="32.0" fill="#ffffe0" /><circle id="circle-f5fffa" cx="280.0" cy="40.0" r="32.0" fill="#f5fffa" /><circle id="circle-f0ffff" cx="360.0" cy="40.0" r="32.0" fill="#f0ffff" /><circle id="circle-fffafa" cx="440.0" cy="40.0" r="32.0" fill="#fffafa" /><circle id="circle-f0fff0" cx="520.0" cy="40.0" r="32.0" fill="#f0fff0" /><circle id="circle-fffaf0" cx="600.0" cy="40.0" r="32.0" fill="#fffaf0" /><circle id="circle-e0ffff" cx="680.0" cy="40.0" r="32.0" fill="#e0ffff" /><circle id="circle-f8f8ff" cx="760.0" cy="40.0" r="32.0" fill="#f8f8ff" /><circle id="circle-fff8dc" cx="840.0" cy="40.0" r="32.0" fill="#fff8dc" /><circle id="circle-f0f8ff" cx="40.0" cy="120.0" r="32.0" fill="#f0f8ff" /><circle id="circle-fff5ee" cx="120.0" cy="120.0" r="32.0" fill="#fff5ee" /><circle id="circle-fdf5e6" cx="200.0" cy="120.0" r="32.0" fill="#fdf5e6" /><circle id="circle-f5f5f5" cx="280.0" cy="120.0" r="32.0" fill="#f5f5f5" /><circle id="circle-fff0f5" cx="360.0" cy="120.0" r="32.0" fill="#fff0f5" /><circle id="circle-f5f5dc" cx="440.0" cy="120.0" r="32.0" fill="#f5f5dc" /><circle id="circle-faf0e6" cx="520.0" cy="120.0" r="32.0" fill="#faf0e6" /><circle id="circle-faebd7" cx="600.0" cy="120.0" r="32.0" fill="#faebd7" /><circle id="circle-ffe4e1" cx="680.0" cy="120.0" r="32.0" fill="#ffe4e1" /><circle id="circle-e6e6fa" cx="760.0" cy="120.0" r="32.0" fill="#e6e6fa" /><circle id="circle-dcdcdc" cx="840.0" cy="120.0" r="32.0" fill="#dcdcdc" /><circle id="circle-d3d3d3" cx="40.0" cy="200.0" r="32.0" fill="#d3d3d3" /><circle id="circle-d8bfd8" cx="120.0" cy="200.0" r="32.0" fill="#d8bfd8" /><circle id="circle-c0c0c0" cx="200.0" cy="200.0" r="32.0" fill="#c0c0c0" /><circle id="circle-a9a9a9" cx="280.0" cy="200.0" r="32.0" fill="#a9a9a9" /><circle id="circle-808080" cx="360.0" cy="200.0" r="32.0" fill="#808080" /><circle id="circle-696969" cx="440.0" cy="200.0" r="32.0" fill="#696969" /><circle id="circle-000000" cx="520.0" cy="200.0" r="32.0" fill="#000000" /><circle id="circle-ffdab9" cx="600.0" cy="200.0" r="32.0" fill="#ffdab9" /><circle id="circle-ffa07a" cx="680.0" cy="200.0" r="32.0" fill="#ffa07a" /><circle id="circle-f4a460" cx="760.0" cy="200.0" r="32.0" fill="#f4a460" /><circle id="circle-e9967a" cx="840.0" cy="200.0" r="32.0" fill="#e9967a" /><circle id="circle-ff7f50" cx="40.0" cy="280.0" r="32.0" fill="#ff7f50" /><circle id="circle-fa8072" cx="120.0" cy="280.0" r="32.0" fill="#fa8072" /><circle id="circle-f08080" cx="200.0" cy="280.0" r="32.0" fill="#f08080" /><circle id="circle-bc8f8f" cx="280.0" cy="280.0" r="32.0" fill="#bc8f8f" /><circle id="circle-ff6347" cx="360.0" cy="280.0" r="32.0" fill="#ff6347" /><circle id="circle-cd853f" cx="440.0" cy="280.0" r="32.0" fill="#cd853f" /><circle id="circle-ff4500" cx="520.0" cy="280.0" r="32.0" fill="#ff4500" /><circle id="circle-d2691e" cx="600.0" cy="280.0" r="32.0" fill="#d2691e" /><circle id="circle-cd5c5c" cx="680.0" cy="280.0" r="32.0" fill="#cd5c5c" /><circle id="circle-ff0000" cx="760.0" cy="280.0" r="32.0" fill="#ff0000" /><circle id="circle-a0522d" cx="840.0" cy="280.0" r="32.0" fill="#a0522d" /><circle id="circle-b22222" cx="40.0" cy="360.0" r="32.0" fill="#b22222" /><circle id="circle-a52a2a" cx="120.0" cy="360.0" r="32.0" fill="#a52a2a" /><circle id="circle-8b4513" cx="200.0" cy="360.0" r="32.0" fill="#8b4513" /><circle id="circle-8b0000" cx="280.0" cy="360.0" r="32.0" fill="#8b0000" /><circle id="circle-800000" cx="360.0" cy="360.0" r="32.0" fill="#800000" /><circle id="circle-fffacd" cx="440.0" cy="360.0" r="32.0" fill="#fffacd" /><circle id="circle-ffefd5" cx="520.0" cy="360.0" r="32.0" fill="#ffefd5" /><circle id="circle-ffebcd" cx="600.0" cy="360.0" r="32.0" fill="#ffebcd" /><circle id="circle-ffe4c4" cx="680.0" cy="360.0" r="32.0" fill="#ffe4c4" /><circle id="circle-ffe4b5" cx="760.0" cy="360.0" r="32.0" fill="#ffe4b5" /><circle id="circle-eee8aa" cx="840.0" cy="360.0" r="32.0" fill="#eee8aa" /><circle id="circle-f0e68c" cx="40.0" cy="440.0" r="32.0" fill="#f0e68c" /><circle id="circle-ffdead" cx="120.0" cy="440.0" r="32.0" fill="#ffdead" /><circle id="circle-f5deb3" cx="200.0" cy="440.0" r="32.0" fill="#f5deb3" /><circle id="circle-ffd700" cx="280.0" cy="440.0" r="32.0" fill="#ffd700" /><circle id="circle-deb887" cx="360.0" cy="440.0" r="32.0" fill="#deb887" /><circle id="circle-d2b48c" cx="440.0" cy="440.0" r="32.0" fill="#d2b48c" /><circle id="circle-ffa500" cx="520.0" cy="440.0" r="32.0" fill="#ffa500" /><circle id="circle-bdb76b" cx="600.0" cy="440.0" r="32.0" fill="#bdb76b" /><circle id="circle-daa520" cx="680.0" cy="440.0" r="32.0" fill="#daa520" /><circle id="circle-ff8c00" cx="760.0" cy="440.0" r="32.0" fill="#ff8c00" /><circle id="circle-fafad2" cx="840.0" cy="440.0" r="32.0" fill="#fafad2" /><circle id="circle-ffff00" cx="40.0" cy="520.0" r="32.0" fill="#ffff00" /><circle id="circle-adff2f" cx="120.0" cy="520.0" r="32.0" fill="#adff2f" /><circle id="circle-9acd32" cx="200.0" cy="520.0" r="32.0" fill="#9acd32" /><circle id="circle-6b8e23" cx="280.0" cy="520.0" r="32.0" fill="#6b8e23" /><circle id="circle-808000" cx="360.0" cy="520.0" r="32.0" fill="#808000" /><circle id="circle-556b2f" cx="440.0" cy="520.0" r="32.0" fill="#556b2f" /><circle id="circle-7fff00" cx="520.0" cy="520.0" r="32.0" fill="#7fff00" /><circle id="circle-7cfc00" cx="600.0" cy="520.0" r="32.0" fill="#7cfc00" /><circle id="circle-98fb98" cx="680.0" cy="520.0" r="32.0" fill="#98fb98" /><circle id="circle-00ff7f" cx="760.0" cy="520.0" r="32.0" fill="#00ff7f" /><circle id="circle-00ff00" cx="840.0" cy="520.0" r="32.0" fill="#00ff00" /><circle id="circle-90ee90" cx="40.0" cy="600.0" r="32.0" fill="#90ee90" /><circle id="circle-32cd32" cx="120.0" cy="600.0" r="32.0" fill="#32cd32" /><circle id="circle-8fbc8f" cx="200.0" cy="600.0" r="32.0" fill="#8fbc8f" /><circle id="circle-3cb371" cx="280.0" cy="600.0" r="32.0" fill="#3cb371" /><circle id="circle-2e8b57" cx="360.0" cy="600.0" r="32.0" fill="#2e8b57" /><circle id="circle-228b22" cx="440.0" cy="600.0" r="32.0" fill="#228b22" /><circle id="circle-008000" cx="520.0" cy="600.0" r="32.0" fill="#008000" /><circle id="circle-006400" cx="600.0" cy="600.0" r="32.0" fill="#006400" /><circle id="circle-7fffd4" cx="680.0" cy="600.0" r="32.0" fill="#7fffd4" /><circle id="circle-00fa9a" cx="760.0" cy="600.0" r="32.0" fill="#00fa9a" /><circle id="circle-40e0d0" cx="840.0" cy="600.0" r="32.0" fill="#40e0d0" /><circle id="circle-48d1cc" cx="40.0" cy="680.0" r="32.0" fill="#48d1cc" /><circle id="circle-66cdaa" cx="120.0" cy="680.0" r="32.0" fill="#66cdaa" /><circle id="circle-20b2aa" cx="200.0" cy="680.0" r="32.0" fill="#20b2aa" /><circle id="circle-00ffff" cx="280.0" cy="680.0" r="32.0" fill="#00ffff" /><circle id="circle-afeeee" cx="360.0" cy="680.0" r="32.0" fill="#afeeee" /><circle id="circle-b0e0e6" cx="440.0" cy="680.0" r="32.0" fill="#b0e0e6" /><circle id="circle-add8e6" cx="520.0" cy="680.0" r="32.0" fill="#add8e6" /><circle id="circle-87cefa" cx="600.0" cy="680.0" r="32.0" fill="#87cefa" /><circle id="circle-87ceeb" cx="680.0" cy="680.0" r="32.0" fill="#87ceeb" /><circle id="circle-00ced1" cx="760.0" cy="680.0" r="32.0" fill="#00ced1" /><circle id="circle-00bfff" cx="840.0" cy="680.0" r="32.0" fill="#00bfff" /><circle id="circle-5f9ea0" cx="40.0" cy="760.0" r="32.0" fill="#5f9ea0" /><circle id="circle-1e90ff" cx="120.0" cy="760.0" r="32.0" fill="#1e90ff" /><circle id="circle-4682b4" cx="200.0" cy="760.0" r="32.0" fill="#4682b4" /><circle id="circle-008b8b" cx="280.0" cy="760.0" r="32.0" fill="#008b8b" /><circle id="circle-008080" cx="360.0" cy="760.0" r="32.0" fill="#008080" /><circle id="circle-2f4f4f" cx="440.0" cy="760.0" r="32.0" fill="#2f4f4f" /><circle id="circle-b0c4de" cx="520.0" cy="760.0" r="32.0" fill="#b0c4de" /><circle id="circle-6495ed" cx="600.0" cy="760.0" r="32.0" fill="#6495ed" /><circle id="circle-778899" cx="680.0" cy="760.0" r="32.0" fill="#778899" /><circle id="circle-708090" cx="760.0" cy="760.0" r="32.0" fill="#708090" /><circle id="circle-4169e1" cx="840.0" cy="760.0" r="32.0" fill="#4169e1" /><circle id="circle-9370db" cx="40.0" cy="840.0" r="32.0" fill="#9370db" /><circle id="circle-7b68ee" cx="120.0" cy="840.0" r="32.0" fill="#7b68ee" /><circle id="circle-6a5acd" cx="200.0" cy="840.0" r="32.0" fill="#6a5acd" /><circle id="circle-0000ff" cx="280.0" cy="840.0" r="32.0" fill="#0000ff" /><circle id="circle-483d8b" cx="360.0" cy="840.0" r="32.0" fill="#483d8b" /><circle id="circle-0000cd" cx="440.0" cy="840.0" r="32.0" fill="#0000cd" /><circle id="circle-191970" cx="520.0" cy="840.0" r="32.0" fill="#191970" /><circle id="circle-00008b" cx="600.0" cy="840.0" r="32.0" fill="#00008b" /><circle id="circle-000080" cx="680.0" cy="840.0" r="32.0" fill="#000080" /><circle id="circle-ba55d3" cx="760.0" cy="840.0" r="32.0" fill="#ba55d3" /><circle id="circle-9932cc" cx="840.0" cy="840.0" r="32.0" fill="#9932cc" /><circle id="circle-8a2be2" cx="40.0" cy="920.0" r="32.0" fill="#8a2be2" /><circle id="circle-9400d3" cx="120.0" cy="920.0" r="32.0" fill="#9400d3" /><circle id="circle-4b0082" cx="200.0" cy="920.0" r="32.0" fill="#4b0082" /><circle id="circle-dda0dd" cx="280.0" cy="920.0" r="32.0" fill="#dda0dd" /><circle id="circle-ee82ee" cx="360.0" cy="920.0" r="32.0" fill="#ee82ee" /><circle id="circle-da70d6" cx="440.0" cy="920.0" r="32.0" fill="#da70d6" /><circle id="circle-ff00ff" cx="520.0" cy="920.0" r="32.0" fill="#ff00ff" /><circle id="circle-ff1493" cx="600.0" cy="920.0" r="32.0" fill="#ff1493" /><circle id="circle-c71585" cx="680.0" cy="920.0" r="32.0" fill="#c71585" /><circle id="circle-8b008b" cx="760.0" cy="920.0" r="32.0" fill="#8b008b" /><circle id="circle-800080" cx="840.0" cy="920.0" r="32.0" fill="#800080" /><circle id="circle-ffc0cb" cx="40.0" cy="1000.0" r="32.0" fill="#ffc0cb" /><circle id="circle-ffb6c1" cx="120.0" cy="1000.0" r="32.0" fill="#ffb6c1" /><circle id="circle-ff69b4" cx="200.0" cy="1000.0" r="32.0" fill="#ff69b4" /><circle id="circle-db7093" cx="280.0" cy="1000.0" r="32.0" fill="#db7093" /><circle id="circle-dc143c" cx="360.0" cy="1000.0" r="32.0" fill="#dc143c" /></g></svg>