<?xml version="1.0" encoding="UTF-8"?>
<svg xmlns="http://www.w3.org/2000/svg" xmlns:xlink="http://www.w3.org/1999/xlink" width="864" height="1024" viewBox="0 0 864 1024">
<defs>
<g id="source-7">
<rect x="-190.08" y="-225.28" width="1244.16" height="1474.56" fill="rgb(0%, 0%, 0%)" fill-opacity="1"/>
<path fill-rule="nonzero" fill="rgb(100%, 100%, 100%)" fill-opacity="1" d="M 72 40 C 72 57.671875 57.671875 72 40 72 C 22.328125 72 8 57.671875 8 40 C 8 22.328125 22.328125 8 40 8 C 57.671875 8 72 22.328125 72 40 "/>
<path fill-rule="nonzero" fill="rgb(100%, 100%, 94.117647%)" fill-opacity="1" d="M 152 40 C 152 57.671875 137.671875 72 120 72 C 102.328125 72 88 57.671875 88 40 C 88 22.328125 102.328125 8 120 8 C 137.671875 8 152 22.328125 152 40 "/>
<path fill-rule="nonzero" fill="rgb(100%, 100%, 87.843137%)" fill-opacity="1" d="M 232 40 C 232 57.671875 217.671875 72 200 72 C 182.328125 72 168 57.671875 168 40 C 168 22.328125 182.328125 8 200 8 C 217.671875 8 232 22.328125 232 40 "/>
<path fill-rule="nonzero" fill="rgb(96.078431%, 100%, 98.039216%)" fill-opacity="1" d="M 312 40 C 312 57.671875 297.671875 72 280 72 C 262.328125 72 248 57.671875 248 40 C 248 22.328125 262.328125 8 280 8 C 297.671875 8 312 22.328125 312 40 "/>
<path fill-rule="nonzero" fill="rgb(94.117647%, 100%, 100%)" fill-opacity="1" d="M 392 40 C 392 57.671875 377.671875 72 360 72 C 342.328125 72 328 57.671875 328 40 C 328 22.328125 342.328125 8 360 8 C 377.671875 8 392 22.328125 392 40 "/>
<path fill-rule="nonzero" fill="rgb(100%, 98.039216%, 98.039216%)" fill-opacity="1" d="M 472 40 C 472 57.671875 457.671875 72 440 72 C 422.328125 72 408 57.671875 408 40 C 408 22.328125 422.328125 8 440 8 C 457.671875 8 472 22.328125 472 40 "/>
<path fill-rule="nonzero" fill="rgb(94.117647%, 100%, 94.117647%)" fill-opacity="1" d="M 552 40 C 552 57.671875 537.671875 72 520 72 C 502.328125 72 488 57.671875 488 40 C 488 22.328125 502.328125 8 520 8 C 537.671875 8 552 22.328125 552 40 "/>
<path fill-rule="nonzero" fill="rgb(100%, 98.039216%, 94.117647%)" fill-opacity="1" d="M 632 40 C 632 57.671875 617.671875 72 600 72 C 582.328125 72 568 57.671875 568 40 C 568 22.328125 582.328125 8 600 8 C 617.671875 8 632 22.328125 632 40 "/>
<path fill-rule="nonzero" fill="rgb(87.843137%, 100%, 100%)" fill-opacity="1" d="M 712 40 C 712 57.671875 697.671875 72 680 72 C 662.328125 72 648 57.671875 648 40 C 648 22.328125 662.328125 8 680 8 C 697.671875 8 712 22.328125 712 40 "/>
<path fill-rule="nonzero" fill="rgb(97.254902%, 97.254902%, 100%)" fill-opacity="1" d="M 792 40 C 792 57.671875 777.671875 72 760 72 C 742.328125 72 728 57.671875 728 40 C 728 22.328125 742.328125 8 760 8 C 777.671875 8 792 22.328125 792 40 "/>
<path fill-rule="nonzero" fill="rgb(100%, 97.254902%, 86.27451%)" fill-opacity="1" d="M 872 40 C 872 57.671875 857.671875 72 840 72 C 822.328125 72 808 57.671875 808 40 C 808 22.328125 822.328125 8 840 8 C 857.671875 8 872 22.328125 872 40 "/>
<path fill-rule="nonzero" fill="rgb(94.117647%, 97.254902%, 100%)" fill-opacity="1" d="M 72 120 C 72 137.671875 57.671875 152 40 152 C 22.328125 152 8 137.671875 8 120 C 8 102.328125 22.328125 88 40 88 C 57.671875 88 72 102.328125 72 120 "/>
<path fill-rule="nonzero" fill="rgb(100%, 96.078431%, 93.333333%)" fill-opacity="1" d="M 152 120 C 152 137.671875 137.671875 152 120 152 C 102.328125 152 88 137.671875 88 120 C 88 102.328125 102.328125 88 120 88 C 137.671875 88 152 102.328125 152 120 "/>
<path fill-rule="nonzero" fill="rgb(99.215686%, 96.078431%, 90.196078%)" fill-opacity="1" d="M 232 120 C 232 137.671875 217.671875 152 200 152 C 182.328125 152 168 137.671875 168 120 C 168 102.328125 182.328125 88 200 88 C 217.671875 88 232 102.328125 232 120 "/>
<path fill-rule="nonzero" fill="rgb(96.078431%, 96.078431%, 96.078431%)" fill-opacity="1" d="M 312 120 C 312 137.671875 297.671875 152 280 152 C 262.328125 152 248 137.671875 248 120 C 248 102.328125 262.328125 88 280 88 C 297.671875 88 312 102.328125 312 120 "/>
<path fill-rule="nonzero" fill="rgb(100%, 94.117647%, 96.078431%)" fill-opacity="1" d="M 392 120 C 392 137.671875 377.671875 152 360 152 C 342.328125 152 328 137.671875 328 120 C 328 102.328125 342.328125 88 360 88 C 377.671875 88 392 102.328125 392 120 "/>
<path fill-rule="nonzero" fill="rgb(96.078431%, 96.078431%, 86.27451%)" fill-opacity="1" d="M 472 120 C 472 137.671875 457.671875 152 440 152 C 422.328125 152 408 137.671875 408 120 C 408 102.328125 422.328125 88 440 88 C 457.671875 88 472 102.328125 472 120 "/>
<path fill-rule="nonzero" fill="rgb(98.039216%, 94.117647%, 90.196078%)" fill-opacity="1" d="M 552 120 C 552 137.671875 537.671875 152 520 152 C 502.328125 152 488 137.671875 488 120 C 488 102.328125 502.328125 88 520 88 C 537.671875 88 552 102.328125 552 120 "/>
<path fill-rule="nonzero" fill="rgb(98.039216%, 92.156863%, 84.313725%)" fill-opacity="1" d="M 632 120 C 632 137.671875 617.671875 152 600 152 C 582.328125 152 568 137.671875 568 120 C 568 102.328125 582.328125 88 600 88 C 617.671875 88 632 102.328125 632 120 "/>
<path fill-rule="nonzero" fill="rgb(100%, 89.411765%, 88.235294%)" fill-opacity="1" d="M 712 120 C 712 137.671875 697.671875 152 680 152 C 662.328125 152 648 137.671875 648 120 C 648 102.328125 662.328125 88 680 88 C 697.671875 88 712 102.328125 712 120 "/>
<path fill-rule="nonzero" fill="rgb(90.196078%, 90.196078%, 98.039216%)" fill-opacity="1" d="M 792 120 C 792 137.671875 777.671875 152 760 152 C 742.328125 152 728 137.671875 728 120 C 728 102.328125 742.328125 88 760 88 C 777.671875 88 792 102.328125 792 120 "/>
<path fill-rule="nonzero" fill="rgb(86.27451%, 86.27451%, 86.27451%)" fill-opacity="1" d="M 872 120 C 872 137.671875 857.671875 152 840 152 C 822.328125 152 808 137.671875 808 120 C 808 102.328125 822.328125 88 840 88 C 857.671875 88 872 102.328125 872 120 "/>
<path fill-rule="nonzero" fill="rgb(82.745098%, 82.745098%, 82.745098%)" fill-opacity="1" d="M 72 200 C 72 217.671875 57.671875 232 40 232 C 22.328125 232 8 217.671875 8 200 C 8 182.328125 22.328125 168 40 168 C 57.671875 168 72 182.328125 72 200 "/>
<path fill-rule="nonzero" fill="rgb(84.705882%, 74.901961%, 84.705882%)" fill-opacity="1" d="M 152 200 C 152 217.671875 137.671875 232 120 232 C 102.328125 232 88 217.671875 88 200 C 88 182.328125 102.328125 168 120 168 C 137.671875 168 152 182.328125 152 200 "/>
<path fill-rule="nonzero" fill="rgb(75.294118%, 75.294118%, 75.294118%)" fill-opacity="1" d="M 232 200 C 232 217.671875 217.671875 232 200 232 C 182.328125 232 168 217.671875 168 200 C 168 182.328125 182.328125 168 200 168 C 217.671875 168 232 182.328125 232 200 "/>
<path fill-rule="nonzero" fill="rgb(66.27451%, 66.27451%, 66.27451%)" fill-opacity="1" d="M 312 200 C 312 217.671875 297.671875 232 280 232 C 262.328125 232 248 217.671875 248 200 C 248 182.328125 262.328125 168 280 168 C 297.671875 168 312 182.328125 312 200 "/>
<path fill-rule="nonzero" fill="rgb(50.196078%, 50.196078%, 50.196078%)" fill-opacity="1" d="M 392 200 C 392 217.671875 377.671875 232 360 232 C 342.328125 232 328 217.671875 328 200 C 328 182.328125 342.328125 168 360 168 C 377.671875 168 392 182.328125 392 200 "/>
<path fill-rule="nonzero" fill="rgb(41.176471%, 41.176471%, 41.176471%)" fill-opacity="1" d="M 472 200 C 472 217.671875 457.671875 232 440 232 C 422.328125 232 408 217.671875 408 200 C 408 182.328125 422.328125 168 440 168 C 457.671875 168 472 182.328125 472 200 "/>
<path fill-rule="nonzero" fill="rgb(0%, 0%, 0%)" fill-opacity="1" d="M 552 200 C 552 217.671875 537.671875 232 520 232 C 502.328125 232 488 217.671875 488 200 C 488 182.328125 502.328125 168 520 168 C 537.671875 168 552 182.328125 552 200 "/>
<path fill-rule="nonzero" fill="rgb(100%, 85.490196%, 72.54902%)" fill-opacity="1" d="M 632 200 C 632 217.671875 617.671875 232 600 232 C 582.328125 232 568 217.671875 568 200 C 568 182.328125 582.328125 168 600 168 C 617.671875 168 632 182.328125 632 200 "/>
<path fill-rule="nonzero" fill="rgb(100%, 62.745098%, 47.843137%)" fill-opacity="1" d="M 712 200 C 712 217.671875 697.671875 232 680 232 C 662.328125 232 648 217.671875 648 200 C 648 182.328125 662.328125 168 680 168 C 697.671875 168 712 182.328125 712 200 "/>
<path fill-rule="nonzero" fill="rgb(95.686275%, 64.313725%, 37.647059%)" fill-opacity="1" d="M 792 200 C 792 217.671875 777.671875 232 760 232 C 742.328125 232 728 217.671875 728 200 C 728 182.328125 742.328125 168 760 168 C 777.671875 168 792 182.328125 792 200 "/>
<path fill-rule="nonzero" fill="rgb(91.372549%, 58.823529%, 47.843137%)" fill-opacity="1" d="M 872 200 C 872 217.671875 857.671875 232 840 232 C 822.328125 232 808 217.671875 808 200 C 808 182.328125 822.328125 168 840 168 C 857.671875 168 872 182.328125 872 200 "/>
<path fill-rule="nonzero" fill="rgb(100%, 49.803922%, 31.372549%)" fill-opacity="1" d="M 72 280 C 72 297.671875 57.671875 312 40 312 C 22.328125 312 8 297.671875 8 280 C 8 262.328125 22.328125 248 40 248 C 57.671875 248 72 262.328125 72 280 "/>
<path fill-rule="nonzero" fill="rgb(98.039216%, 50.196078%, 44.705882%)" fill-opacity="1" d="M 152 280 C 152 297.671875 137.671875 312 120 312 C 102.328125 312 88 297.671875 88 280 C 88 262.328125 102.328125 248 120 248 C 137.671875 248 152 262.328125 152 280 "/>
<path fill-rule="nonzero" fill="rgb(94.117647%, 50.196078%, 50.196078%)" fill-opacity="1" d="M 232 280 C 232 297.671875 217.671875 312 200 312 C 182.328125 312 168 297.671875 168 280 C 168 262.328125 182.328125 248 200 248 C 217.671875 248 232 262.328125 232 280 "/>
<path fill-rule="nonzero" fill="rgb(73.72549%, 56.078431%, 56.078431%)" fill-opacity="1" d="M 312 280 C 312 297.671875 297.671875 312 280 312 C 262.328125 312 248 297.671875 248 280 C 248 262.328125 262.328125 248 280 248 C 297.671875 248 312 262.328125 312 280 "/>
<path fill-rule="nonzero" fill="rgb(100%, 38.823529%, 27.843137%)" fill-opacity="1" d="M 392 280 C 392 297.671875 377.671875 312 360 312 C 342.328125 312 328 297.671875 328 280 C 328 262.328125 342.328125 248 360 248 C 377.671875 248 392 262.328125 392 280 "/>
<path fill-rule="nonzero" fill="rgb(80.392157%, 52.156863%, 24.705882%)" fill-opacity="1" d="M 472 280 C 472 297.671875 457.671875 312 440 312 C 422.328125 312 408 297.671875 408 280 C 408 262.328125 422.328125 248 440 248 C 457.671875 248 472 262.328125 472 280 "/>
<path fill-rule="nonzero" fill="rgb(100%, 27.058824%, 0%)" fill-opacity="1" d="M 552 280 C 552 297.671875 537.671875 312 520 312 C 502.328125 312 488 297.671875 488 280 C 488 262.328125 502.328125 248 520 248 C 537.671875 248 552 262.328125 552 280 "/>
<path fill-rule="nonzero" fill="rgb(82.352941%, 41.176471%, 11.764706%)" fill-opacity="1" d="M 632 280 C 632 297.671875 617.671875 312 600 312 C 582.328125 312 568 297.671875 568 280 C 568 262.328125 582.328125 248 600 248 C 617.671875 248 632 262.328125 632 280 "/>
<path fill-rule="nonzero" fill="rgb(80.392157%, 36.078431%, 36.078431%)" fill-opacity="1" d="M 712 280 C 712 297.671875 697.671875 312 680 312 C 662.328125 312 648 297.671875 648 280 C 648 262.328125 662.328125 248 680 248 C 697.671875 248 712 262.328125 712 280 "/>
<path fill-rule="nonzero" fill="rgb(100%, 0%, 0%)" fill-opacity="1" d="M 792 280 C 792 297.671875 777.671875 312 760 312 C 742.328125 312 728 297.671875 728 280 C 728 262.328125 742.328125 248 760 248 C 777.671875 248 792 262.328125 792 280 "/>
<path fill-rule="nonzero" fill="rgb(62.745098%, 32.156863%, 17.647059%)" fill-opacity="1" d="M 872 280 C 872 297.671875 857.671875 312 840 312 C 822.328125 312 808 297.671875 808 280 C 808 262.328125 822.328125 248 840 248 C 857.671875 248 872 262.328125 872 280 "/>
<path fill-rule="nonzero" fill="rgb(69.803922%, 13.333333%, 13.333333%)" fill-opacity="1" d="M 72 360 C 72 377.671875 57.671875 392 40 392 C 22.328125 392 8 377.671875 8 360 C 8 342.328125 22.328125 328 40 328 C 57.671875 328 72 342.328125 72 360 "/>
<path fill-rule="nonzero" fill="rgb(64.705882%, 16.470588%, 16.470588%)" fill-opacity="1" d="M 152 360 C 152 377.671875 137.671875 392 120 392 C 102.328125 392 88 377.671875 88 360 C 88 342.328125 102.328125 328 120 328 C 137.671875 328 152 342.328125 152 360 "/>
<path fill-rule="nonzero" fill="rgb(54.509804%, 27.058824%, 7.45098%)" fill-opacity="1" d="M 232 360 C 232 377.671875 217.671875 392 200 392 C 182.328125 392 168 377.671875 168 360 C 168 342.328125 182.328125 328 200 328 C 217.671875 328 232 342.328125 232 360 "/>
<path fill-rule="nonzero" fill="rgb(54.509804%, 0%, 0%)" fill-opacity="1" d="M 312 360 C 312 377.671875 297.671875 392 280 392 C 262.328125 392 248 377.671875 248 360 C 248 342.328125 262.328125 328 280 328 C 297.671875 328 312 342.328125 312 360 "/>
<path fill-rule="nonzero" fill="rgb(50.196078%, 0%, 0%)" fill-opacity="1" d="M 392 360 C 392 377.671875 377.671875 392 360 392 C 342.328125 392 328 377.671875 328 360 C 328 342.328125 342.328125 328 360 328 C 377.671875 328 392 342.328125 392 360 "/>
<path fill-rule="nonzero" fill="rgb(100%, 98.039216%, 80.392157%)" fill-opacity="1" d="M 472 360 C 472 377.671875 457.671875 392 440 392 C 422.328125 392 408 377.671875 408 360 C 408 342.328125 422.328125 328 440 328 C 457.671875 328 472 342.328125 472 360 "/>
<path fill-rule="nonzero" fill="rgb(100%, 93.72549%, 83.529412%)" fill-opacity="1" d="M 552 360 C 552 377.671875 537.671875 392 520 392 C 502.328125 392 488 377.671875 488 360 C 488 342.328125 502.328125 328 520 328 C 537.671875 328 552 342.328125 552 360 "/>
<path fill-rule="nonzero" fill="rgb(100%, 92.156863%, 80.392157%)" fill-opacity="1" d="M 632 360 C 632 377.671875 617.671875 392 600 392 C 582.328125 392 568 377.671875 568 360 C 568 342.328125 582.328125 328 600 328 C 617.671875 328 632 342.328125 632 360 "/>
<path fill-rule="nonzero" fill="rgb(100%, 89.411765%, 76.862745%)" fill-opacity="1" d="M 712 360 C 712 377.671875 697.671875 392 680 392 C 662.328125 392 648 377.671875 648 360 C 648 342.328125 662.328125 328 680 328 C 697.671875 328 712 342.328125 712 360 "/>
<path fill-rule="nonzero" fill="rgb(100%, 89.411765%, 70.980392%)" fill-opacity="1" d="M 792 360 C 792 377.671875 777.671875 392 760 392 C 742.328125 392 728 377.671875 728 360 C 728 342.328125 742.328125 328 760 328 C 777.671875 328 792 342.328125 792 360 "/>
<path fill-rule="nonzero" fill="rgb(93.333333%, 90.980392%, 66.666667%)" fill-opacity="1" d="M 872 360 C 872 377.671875 857.671875 392 840 392 C 822.328125 392 808 377.671875 808 360 C 808 342.328125 822.328125 328 840 328 C 857.671875 328 872 342.328125 872 360 "/>
<path fill-rule="nonzero" fill="rgb(94.117647%, 90.196078%, 54.901961%)" fill-opacity="1" d="M 72 440 C 72 457.671875 57.671875 472 40 472 C 22.328125 472 8 457.671875 8 440 C 8 422.328125 22.328125 408 40 408 C 57.671875 408 72 422.328125 72 440 "/>
<path fill-rule="nonzero" fill="rgb(100%, 87.058824%, 67.843137%)" fill-opacity="1" d="M 152 440 C 152 457.671875 137.671875 472 120 472 C 102.328125 472 88 457.671875 88 440 C 88 422.328125 102.328125 408 120 408 C 137.671875 408 152 422.328125 152 440 "/>
<path fill-rule="nonzero" fill="rgb(96.078431%, 87.058824%, 70.196078%)" fill-opacity="1" d="M 232 440 C 232 457.671875 217.671875 472 200 472 C 182.328125 472 168 457.671875 168 440 C 168 422.328125 182.328125 408 200 408 C 217.671875 408 232 422.328125 232 440 "/>
<path fill-rule="nonzero" fill="rgb(100%, 84.313725%, 0%)" fill-opacity="1" d="M 312 440 C 312 457.671875 297.671875 472 280 472 C 262.328125 472 248 457.671875 248 440 C 248 422.328125 262.328125 408 280 408 C 297.671875 408 312 422.328125 312 440 "/>
<path fill-rule="nonzero" fill="rgb(87.058824%, 72.156863%, 52.941176%)" fill-opacity="1" d="M 392 440 C 392 457.671875 377.671875 472 360 472 C 342.328125 472 328 457.671875 328 440 C 328 422.328125 342.328125 408 360 408 C 377.671875 408 392 422.328125 392 440 "/>
<path fill-rule="nonzero" fill="rgb(82.352941%, 70.588235%, 54.901961%)" fill-opacity="1" d="M 472 440 C 472 457.671875 457.671875 472 440 472 C 422.328125 472 408 457.671875 408 440 C 408 422.328125 422.328125 408 440 408 C 457.671875 408 472 422.328125 472 440 "/>
<path fill-rule="nonzero" fill="rgb(100%, 64.705882%, 0%)" fill-opacity="1" d="M 552 440 C 552 457.671875 537.671875 472 520 472 C 502.328125 472 488 457.671875 488 440 C 488 422.328125 502.328125 408 520 408 C 537.671875 408 552 422.328125 552 440 "/>
<path fill-rule="nonzero" fill="rgb(74.117647%, 71.764706%, 41.960784%)" fill-opacity="1" d="M 632 440 C 632 457.671875 617.671875 472 600 472 C 582.328125 472 568 457.671875 568 440 C 568 422.328125 582.328125 408 600 408 C 617.671875 408 632 422.328125 632 440 "/>
<path fill-rule="nonzero" fill="rgb(85.490196%, 64.705882%, 12.54902%)" fill-opacity="1" d="M 712 440 C 712 457.671875 697.671875 472 680 472 C 662.328125 472 648 457.671875 648 440 C 648 422.328125 662.328125 408 680 408 C 697.671875 408 712 422.328125 712 440 "/>
<path fill-rule="nonzero" fill="rgb(100%, 54.901961%, 0%)" fill-opacity="1" d="M 792 440 C 792 457.671875 777.671875 472 760 472 C 742.328125 472 728 457.671875 728 440 C 728 422.328125 742.328125 408 760 408 C 777.671875 408 792 422.328125 792 440 "/>
<path fill-rule="nonzero" fill="rgb(98.039216%, 98.039216%, 82.352941%)" fill-opacity="1" d="M 872 440 C 872 457.671875 857.671875 472 840 472 C 822.328125 472 808 457.671875 808 440 C 808 422.328125 822.328125 408 840 408 C 857.671875 408 872 422.328125 872 440 "/>
<path fill-rule="nonzero" fill="rgb(100%, 100%, 0%)" fill-opacity="1" d="M 72 520 C 72 537.671875 57.671875 552 40 552 C 22.328125 552 8 537.671875 8 520 C 8 502.328125 22.328125 488 40 488 C 57.671875 488 72 502.328125 72 520 "/>
<path fill-rule="nonzero" fill="rgb(67.843137%, 100%, 18.431373%)" fill-opacity="1" d="M 152 520 C 152 537.671875 137.671875 552 120 552 C 102.328125 552 88 537.671875 88 520 C 88 502.328125 102.328125 488 120 488 C 137.671875 488 152 502.328125 152 520 "/>
<path fill-rule="nonzero" fill="rgb(60.392157%, 80.392157%, 19.607843%)" fill-opacity="1" d="M 232 520 C 232 537.671875 217.671875 552 200 552 C 182.328125 552 168 537.671875 168 520 C 168 502.328125 182.328125 488 200 488 C 217.671875 488 232 502.328125 232 520 "/>
<path fill-rule="nonzero" fill="rgb(41.960784%, 55.686275%, 13.72549%)" fill-opacity="1" d="M 312 520 C 312 537.671875 297.671875 552 280 552 C 262.328125 552 248 537.671875 248 520 C 248 502.328125 262.328125 488 280 488 C 297.671875 488 312 502.328125 312 520 "/>
<path fill-rule="nonzero" fill="rgb(50.196078%, 50.196078%, 0%)" fill-opacity="1" d="M 392 520 C 392 537.671875 377.671875 552 360 552 C 342.328125 552 328 537.671875 328 520 C 328 502.328125 342.328125 488 360 488 C 377.671875 488 392 502.328125 392 520 "/>
<path fill-rule="nonzero" fill="rgb(33.333333%, 41.960784%, 18.431373%)" fill-opacity="1" d="M 472 520 C 472 537.671875 457.671875 552 440 552 C 422.328125 552 408 537.671875 408 520 C 408 502.328125 422.328125 488 440 488 C 457.671875 488 472 502.328125 472 520 "/>
<path fill-rule="nonzero" fill="rgb(49.803922%, 100%, 0%)" fill-opacity="1" d="M 552 520 C 552 537.671875 537.671875 552 520 552 C 502.328125 552 488 537.671875 488 520 C 488 502.328125 502.328125 488 520 488 C 537.671875 488 552 502.328125 552 520 "/>
<path fill-rule="nonzero" fill="rgb(48.627451%, 98.823529%, 0%)" fill-opacity="1" d="M 632 520 C 632 537.671875 617.671875 552 600 552 C 582.328125 552 568 537.671875 568 520 C 568 502.328125 582.328125 488 600 488 C 617.671875 488 632 502.328125 632 520 "/>
<path fill-rule="nonzero" fill="rgb(59.607843%, 98.431373%, 59.607843%)" fill-opacity="1" d="M 712 520 C 712 537.671875 697.671875 552 680 552 C 662.328125 552 648 537.671875 648 520 C 648 502.328125 662.328125 488 680 488 C 697.671875 488 712 502.328125 712 520 "/>
<path fill-rule="nonzero" fill="rgb(0%, 100%, 49.803922%)" fill-opacity="1" d="M 792 520 C 792 537.671875 777.671875 552 760 552 C 742.328125 552 728 537.671875 728 520 C 728 502.328125 742.328125 488 760 488 C 777.671875 488 792 502.328125 792 520 "/>
<path fill-rule="nonzero" fill="rgb(0%, 100%, 0%)" fill-opacity="1" d="M 872 520 C 872 537.671875 857.671875 552 840 552 C 822.328125 552 808 537.671875 808 520 C 808 502.328125 822.328125 488 840 488 C 857.671875 488 872 502.328125 872 520 "/>
<path fill-rule="nonzero" fill="rgb(56.470588%, 93.333333%, 56.470588%)" fill-opacity="1" d="M 72 600 C 72 617.671875 57.671875 632 40 632 C 22.328125 632 8 617.671875 8 600 C 8 582.328125 22.328125 568 40 568 C 57.671875 568 72 582.328125 72 600 "/>
<path fill-rule="nonzero" fill="rgb(19.607843%, 80.392157%, 19.607843%)" fill-opacity="1" d="M 152 600 C 152 617.671875 137.671875 632 120 632 C 102.328125 632 88 617.671875 88 600 C 88 582.328125 102.328125 568 120 568 C 137.671875 568 152 582.328125 152 600 "/>
<path fill-rule="nonzero" fill="rgb(56.078431%, 73.72549%, 56.078431%)" fill-opacity="1" d="M 232 600 C 232 617.671875 217.671875 632 200 632 C 182.328125 632 168 617.671875 168 600 C 168 582.328125 182.328125 568 200 568 C 217.671875 568 232 582.328125 232 600 "/>
<path fill-rule="nonzero" fill="rgb(23.529412%, 70.196078%, 44.313725%)" fill-opacity="1" d="M 312 600 C 312 617.671875 297.671875 632 280 632 C 262.328125 632 248 617.671875 248 600 C 248 582.328125 262.328125 568 280 568 C 297.671875 568 312 582.328125 312 600 "/>
<path fill-rule="nonzero" fill="rgb(18.039216%, 54.509804%, 34.117647%)" fill-opacity="1" d="M 392 600 C 392 617.671875 377.671875 632 360 632 C 342.328125 632 328 617.671875 328 600 C 328 582.328125 342.328125 568 360 568 C 377.671875 568 392 582.328125 392 600 "/>
<path fill-rule="nonzero" fill="rgb(13.333333%, 54.509804%, 13.333333%)" fill-opacity="1" d="M 472 600 C 472 617.671875 457.671875 632 440 632 C 422.328125 632 408 617.671875 408 600 C 408 582.328125 422.328125 568 440 568 C 457.671875 568 472 582.328125 472 600 "/>
<path fill-rule="nonzero" fill="rgb(0%, 50.196078%, 0%)" fill-opacity="1" d="M 552 600 C 552 617.671875 537.671875 632 520 632 C 502.328125 632 488 617.671875 488 600 C 488 582.328125 502.328125 568 520 568 C 537.671875 568 552 582.328125 552 600 "/>
<path fill-rule="nonzero" fill="rgb(0%, 39.215686%, 0%)" fill-opacity="1" d="M 632 600 C 632 617.671875 617.671875 632 600 632 C 582.328125 632 568 617.671875 568 600 C 568 582.328125 582.328125 568 600 568 C 617.671875 568 632 582.328125 632 600 "/>
<path fill-rule="nonzero" fill="rgb(49.803922%, 100%, 83.137255%)" fill-opacity="1" d="M 712 600 C 712 617.671875 697.671875 632 680 632 C 662.328125 632 648 617.671875 648 600 C 648 582.328125 662.328125 568 680 568 C 697.671875 568 712 582.328125 712 600 "/>
<path fill-rule="nonzero" fill="rgb(0%, 98.039216%, 60.392157%)" fill-opacity="1" d="M 792 600 C 792 617.671875 777.671875 632 760 632 C 742.328125 632 728 617.671875 728 600 C 728 582.328125 742.328125 568 760 568 C 777.671875 568 792 582.328125 792 600 "/>
<path fill-rule="nonzero" fill="rgb(25.098039%, 87.843137%, 81.568627%)" fill-opacity="1" d="M 872 600 C 872 617.671875 857.671875 632 840 632 C 822.328125 632 808 617.671875 808 600 C 808 582.328125 822.328125 568 840 568 C 857.671875 568 872 582.328125 872 600 "/>
<path fill-rule="nonzero" fill="rgb(28.235294%, 81.960784%, 80%)" fill-opacity="1" d="M 72 680 C 72 697.671875 57.671875 712 40 712 C 22.328125 712 8 697.671875 8 680 C 8 662.328125 22.328125 648 40 648 C 57.671875 648 72 662.328125 72 680 "/>
<path fill-rule="nonzero" fill="rgb(40%, 80.392157%, 66.666667%)" fill-opacity="1" d="M 152 680 C 152 697.671875 137.671875 712 120 712 C 102.328125 712 88 697.671875 88 680 C 88 662.328125 102.328125 648 120 648 C 137.671875 648 152 662.328125 152 680 "/>
<path fill-rule="nonzero" fill="rgb(12.54902%, 69.803922%, 66.666667%)" fill-opacity="1" d="M 232 680 C 232 697.671875 217.671875 712 200 712 C 182.328125 712 168 697.671875 168 680 C 168 662.328125 182.328125 648 200 648 C 217.671875 648 232 662.328125 232 680 "/>
<path fill-rule="nonzero" fill="rgb(0%, 100%, 100%)" fill-opacity="1" d="M 312 680 C 312 697.671875 297.671875 712 280 712 C 262.328125 712 248 697.671875 248 680 C 248 662.328125 262.328125 648 280 648 C 297.671875 648 312 662.328125 312 680 "/>
<path fill-rule="nonzero" fill="rgb(68.627451%, 93.333333%, 93.333333%)" fill-opacity="1" d="M 392 680 C 392 697.671875 377.671875 712 360 712 C 342.328125 712 328 697.671875 328 680 C 328 662.328125 342.328125 648 360 648 C 377.671875 648 392 662.328125 392 680 "/>
<path fill-rule="nonzero" fill="rgb(69.019608%, 87.843137%, 90.196078%)" fill-opacity="1" d="M 472 680 C 472 697.671875 457.671875 712 440 712 C 422.328125 712 408 697.671875 408 680 C 408 662.328125 422.328125 648 440 648 C 457.671875 648 472 662.328125 472 680 "/>
<path fill-rule="nonzero" fill="rgb(67.843137%, 84.705882%, 90.196078%)" fill-opacity="1" d="M 552 680 C 552 697.671875 537.671875 712 520 712 C 502.328125 712 488 697.671875 488 680 C 488 662.328125 502.328125 648 520 648 C 537.671875 648 552 662.328125 552 680 "/>
<path fill-rule="nonzero" fill="rgb(52.941176%, 80.784314%, 98.039216%)" fill-opacity="1" d="M 632 680 C 632 697.671875 617.671875 712 600 712 C 582.328125 712 568 697.671875 568 680 C 568 662.328125 582.328125 648 600 648 C 617.671875 648 632 662.328125 632 680 "/>
<path fill-rule="nonzero" fill="rgb(52.941176%, 80.784314%, 92.156863%)" fill-opacity="1" d="M 712 680 C 712 697.671875 697.671875 712 680 712 C 662.328125 712 648 697.671875 648 680 C 648 662.328125 662.328125 648 680 648 C 697.671875 648 712 662.328125 712 680 "/>
<path fill-rule="nonzero" fill="rgb(0%, 80.784314%, 81.960784%)" fill-opacity="1" d="M 792 680 C 792 697.671875 777.671875 712 760 712 C 742.328125 712 728 697.671875 728 680 C 728 662.328125 742.328125 648 760 648 C 777.671875 648 792 662.328125 792 680 "/>
<path fill-rule="nonzero" fill="rgb(0%, 74.901961%, 100%)" fill-opacity="1" d="M 872 680 C 872 697.671875 857.671875 712 840 712 C 822.328125 712 808 697.671875 808 680 C 808 662.328125 822.328125 648 840 648 C 857.671875 648 872 662.328125 872 680 "/>
<path fill-rule="nonzero" fill="rgb(37.254902%, 61.960784%, 62.745098%)" fill-opacity="1" d="M 72 760 C 72 777.671875 57.671875 792 40 792 C 22.328125 792 8 777.671875 8 760 C 8 742.328125 22.328125 728 40 728 C 57.671875 728 72 742.328125 72 760 "/>
<path fill-rule="nonzero" fill="rgb(11.764706%, 56.470588%, 100%)" fill-opacity="1" d="M 152 760 C 152 777.671875 137.671875 792 120 792 C 102.328125 792 88 777.671875 88 760 C 88 742.328125 102.328125 728 120 728 C 137.671875 728 152 742.328125 152 760 "/>
<path fill-rule="nonzero" fill="rgb(27.45098%, 50.980392%, 70.588235%)" fill-opacity="1" d="M 232 760 C 232 777.671875 217.671875 792 200 792 C 182.328125 792 168 777.671875 168 760 C 168 742.328125 182.328125 728 200 728 C 217.671875 728 232 742.328125 232 760 "/>
<path fill-rule="nonzero" fill="rgb(0%, 54.509804%, 54.509804%)" fill-opacity="1" d="M 312 760 C 312 777.671875 297.671875 792 280 792 C 262.328125 792 248 777.671875 248 760 C 248 742.328125 262.328125 728 280 728 C 297.671875 728 312 742.328125 312 760 "/>
<path fill-rule="nonzero" fill="rgb(0%, 50.196078%, 50.196078%)" fill-opacity="1" d="M 392 760 C 392 777.671875 377.671875 792 360 792 C 342.328125 792 328 777.671875 328 760 C 328 742.328125 342.328125 728 360 728 C 377.671875 728 392 742.328125 392 760 "/>
<path fill-rule="nonzero" fill="rgb(18.431373%, 30.980392%, 30.980392%)" fill-opacity="1" d="M 472 760 C 472 777.671875 457.671875 792 440 792 C 422.328125 792 408 777.671875 408 760 C 408 742.328125 422.328125 728 440 728 C 457.671875 728 472 742.328125 472 760 "/>
<path fill-rule="nonzero" fill="rgb(69.019608%, 76.862745%, 87.058824%)" fill-opacity="1" d="M 552 760 C 552 777.671875 537.671875 792 520 792 C 502.328125 792 488 777.671875 488 760 C 488 742.328125 502.328125 728 520 728 C 537.671875 728 552 742.328125 552 760 "/>
<path fill-rule="nonzero" fill="rgb(39.215686%, 58.431373%, 92.941176%)" fill-opacity="1" d="M 632 760 C 632 777.671875 617.671875 792 600 792 C 582.328125 792 568 777.671875 568 760 C 568 742.328125 582.328125 728 600 728 C 617.671875 728 632 742.328125 632 760 "/>
<path fill-rule="nonzero" fill="rgb(46.666667%, 53.333333%, 60%)" fill-opacity="1" d="M 712 760 C 712 777.671875 697.671875 792 680 792 C 662.328125 792 648 777.671875 648 760 C 648 742.328125 662.328125 728 680 728 C 697.671875 728 712 742.328125 712 760 "/>
<path fill-rule="nonzero" fill="rgb(43.921569%, 50.196078%, 56.470588%)" fill-opacity="1" d="M 792 760 C 792 777.671875 777.671875 792 760 792 C 742.328125 792 728 777.671875 728 760 C 728 742.328125 742.328125 728 760 728 C 777.671875 728 792 742.328125 792 760 "/>
<path fill-rule="nonzero" fill="rgb(25.490196%, 41.176471%, 88.235294%)" fill-opacity="1" d="M 872 760 C 872 777.671875 857.671875 792 840 792 C 822.328125 792 808 777.671875 808 760 C 808 742.328125 822.328125 728 840 728 C 857.671875 728 872 742.328125 872 760 "/>
<path fill-rule="nonzero" fill="rgb(57.647059%, 43.921569%, 85.882353%)" fill-opacity="1" d="M 72 840 C 72 857.671875 57.671875 872 40 872 C 22.328125 872 8 857.671875 8 840 C 8 822.328125 22.328125 808 40 808 C 57.671875 808 72 822.328125 72 840 "/>
<path fill-rule="nonzero" fill="rgb(48.235294%, 40.784314%, 93.333333%)" fill-opacity="1" d="M 152 840 C 152 857.671875 137.671875 872 120 872 C 102.328125 872 88 857.671875 88 840 C 88 822.328125 102.328125 808 120 808 C 137.671875 808 152 822.328125 152 840 "/>
<path fill-rule="nonzero" fill="rgb(41.568627%, 35.294118%, 80.392157%)" fill-opacity="1" d="M 232 840 C 232 857.671875 217.671875 872 200 872 C 182.328125 872 168 857.671875 168 840 C 168 822.328125 182.328125 808 200 808 C 217.671875 808 232 822.328125 232 840 "/>
<path fill-rule="nonzero" fill="rgb(0%, 0%, 100%)" fill-opacity="1" d="M 312 840 C 312 857.671875 297.671875 872 280 872 C 262.328125 872 248 857.671875 248 840 C 248 822.328125 262.328125 808 280 808 C 297.671875 808 312 822.328125 312 840 "/>
<path fill-rule="nonzero" fill="rgb(28.235294%, 23.921569%, 54.509804%)" fill-opacity="1" d="M 392 840 C 392 857.671875 377.671875 872 360 872 C 342.328125 872 328 857.671875 328 840 C 328 822.328125 342.328125 808 360 808 C 377.671875 808 392 822.328125 392 840 "/>
<path fill-rule="nonzero" fill="rgb(0%, 0%, 80.392157%)" fill-opacity="1" d="M 472 840 C 472 857.671875 457.671875 872 440 872 C 422.328125 872 408 857.671875 408 840 C 408 822.328125 422.328125 808 440 808 C 457.671875 808 472 822.328125 472 840 "/>
<path fill-rule="nonzero" fill="rgb(9.803922%, 9.803922%, 43.921569%)" fill-opacity="1" d="M 552 840 C 552 857.671875 537.671875 872 520 872 C 502.328125 872 488 857.671875 488 840 C 488 822.328125 502.328125 808 520 808 C 537.671875 808 552 822.328125 552 840 "/>
<path fill-rule="nonzero" fill="rgb(0%, 0%, 54.509804%)" fill-opacity="1" d="M 632 840 C 632 857.671875 617.671875 872 600 872 C 582.328125 872 568 857.671875 568 840 C 568 822.328125 582.328125 808 600 808 C 617.671875 808 632 822.328125 632 840 "/>
<path fill-rule="nonzero" fill="rgb(0%, 0%, 50.196078%)" fill-opacity="1" d="M 712 840 C 712 857.671875 697.671875 872 680 872 C 662.328125 872 648 857.671875 648 840 C 648 822.328125 662.328125 808 680 808 C 697.671875 808 712 822.328125 712 840 "/>
<path fill-rule="nonzero" fill="rgb(72.941176%, 33.333333%, 82.745098%)" fill-opacity="1" d="M 792 840 C 792 857.671875 777.671875 872 760 872 C 742.328125 872 728 857.671875 728 840 C 728 822.328125 742.328125 808 760 808 C 777.671875 808 792 822.328125 792 840 "/>
<path fill-rule="nonzero" fill="rgb(60%, 19.607843%, 80%)" fill-opacity="1" d="M 872 840 C 872 857.671875 857.671875 872 840 872 C 822.328125 872 808 857.671875 808 840 C 808 822.328125 822.328125 808 840 808 C 857.671875 808 872 822.328125 872 840 "/>
<path fill-rule="nonzero" fill="rgb(54.117647%, 16.862745%, 88.627451%)" fill-opacity="1" d="M 72 920 C 72 937.671875 57.671875 952 40 952 C 22.328125 952 8 937.671875 8 920 C 8 902.328125 22.328125 888 40 888 C 57.671875 888 72 902.328125 72 920 "/>
<path fill-rule="nonzero" fill="rgb(58.039216%, 0%, 82.745098%)" fill-opacity="1" d="M 152 920 C 152 937.671875 137.671875 952 120 952 C 102.328125 952 88 937.671875 88 920 C 88 902.328125 102.328125 888 120 888 C 137.671875 888 152 902.328125 152 920 "/>
<path fill-rule="nonzero" fill="rgb(29.411765%, 0%, 50.980392%)" fill-opacity="1" d="M 232 920 C 232 937.671875 217.671875 952 200 952 C 182.328125 952 168 937.671875 168 920 C 168 902.328125 182.328125 888 200 888 C 217.671875 888 232 902.328125 232 920 "/>
<path fill-rule="nonzero" fill="rgb(86.666667%, 62.745098%, 86.666667%)" fill-opacity="1" d="M 312 920 C 312 937.671875 297.671875 952 280 952 C 262.328125 952 248 937.671875 248 920 C 248 902.328125 262.328125 888 280 888 C 297.671875 888 312 902.328125 312 920 "/>
<path fill-rule="nonzero" fill="rgb(93.333333%, 50.980392%, 93.333333%)" fill-opacity="1" d="M 392 920 C 392 937.671875 377.671875 952 360 952 C 342.328125 952 328 937.671875 328 920 C 328 902.328125 342.328125 888 360 888 C 377.671875 888 392 902.328125 392 920 "/>
<path fill-rule="nonzero" fill="rgb(85.490196%, 43.921569%, 83.921569%)" fill-opacity="1" d="M 472 920 C 472 937.671875 457.671875 952 440 952 C 422.328125 952 408 937.671875 408 920 C 408 902.328125 422.328125 888 440 888 C 457.671875 888 472 902.328125 472 920 "/>
<path fill-rule="nonzero" fill="rgb(100%, 0%, 100%)" fill-opacity="1" d="M 552 920 C 552 937.671875 537.671875 952 520 952 C 502.328125 952 488 937.671875 488 920 C 488 902.328125 502.328125 888 520 888 C 537.671875 888 552 902.328125 552 920 "/>
<path fill-rule="nonzero" fill="rgb(100%, 7.843137%, 57.647059%)" fill-opacity="1" d="M 632 920 C 632 937.671875 617.671875 952 600 952 C 582.328125 952 568 937.671875 568 920 C 568 902.328125 582.328125 888 600 888 C 617.671875 888 632 902.328125 632 920 "/>
<path fill-rule="nonzero" fill="rgb(78.039216%, 8.235294%, 52.156863%)" fill-opacity="1" d="M 712 920 C 712 937.671875 697.671875 952 680 952 C 662.328125 952 648 937.671875 648 920 C 648 902.328125 662.328125 888 680 888 C 697.671875 888 712 902.328125 712 920 "/>
<path fill-rule="nonzero" fill="rgb(54.509804%, 0%, 54.509804%)" fill-opacity="1" d="M 792 920 C 792 937.671875 777.671875 952 760 952 C 742.328125 952 728 937.671875 728 920 C 728 902.328125 742.328125 888 760 888 C 777.671875 888 792 902.328125 792 920 "/>
<path fill-rule="nonzero" fill="rgb(50.196078%, 0%, 50.196078%)" fill-opacity="1" d="M 872 920 C 872 937.671875 857.671875 952 840 952 C 822.328125 952 808 937.671875 808 920 C 808 902.328125 822.328125 888 840 888 C 857.671875 888 872 902.328125 872 920 "/>
<path fill-rule="nonzero" fill="rgb(100%, 75.294118%, 79.607843%)" fill-opacity="1" d="M 72 1000 C 72 1017.671875 57.671875 1032 40 1032 C 22.328125 1032 8 1017.671875 8 1000 C 8 982.328125 22.328125 968 40 968 C 57.671875 968 72 982.328125 72 1000 "/>
<path fill-rule="nonzero" fill="rgb(100%, 71.372549%, 75.686275%)" fill-opacity="1" d="M 152 1000 C 152 1017.671875 137.671875 1032 120 1032 C 102.328125 1032 88 1017.671875 88 1000 C 88 982.328125 102.328125 968 120 968 C 137.671875 968 152 982.328125 152 1000 "/>
<path fill-rule="nonzero" fill="rgb(100%, 41.176471%, 70.588235%)" fill-opacity="1" d="M 232 1000 C 232 1017.671875 217.671875 1032 200 1032 C 182.328125 1032 168 1017.671875 168 1000 C 168 982.328125 182.328125 968 200 968 C 217.671875 968 232 982.328125 232 1000 "/>
<path fill-rule="nonzero" fill="rgb(85.882353%, 43.921569%, 57.647059%)" fill-opacity="1" d="M 312 1000 C 312 1017.671875 297.671875 1032 280 1032 C 262.328125 1032 248 1017.671875 248 1000 C 248 982.328125 262.328125 968 280 968 C 297.671875 968 312 982.328125 312 1000 "/>
<path fill-rule="nonzero" fill="rgb(86.27451%, 7.843137%, 23.529412%)" fill-opacity="1" d="M 392 1000 C 392 1017.671875 377.671875 1032 360 1032 C 342.328125 1032 328 1017.671875 328 1000 C 328 982.328125 342.328125 968 360 968 C 377.671875 968 392 982.328125 392 1000 "/>
</g>
</defs>
<use xlink:href="#source-7"/>
</svg>
